<svg width="99" height="90" viewBox="0 0 99 90" fill="none" xmlns="http://www.w3.org/2000/svg">
<circle cx="16" cy="45" r="16" fill="white"/>
<path d="M16 36V54" stroke="#FBD44B" stroke-width="2.5" stroke-linecap="round" stroke-linejoin="bevel"/>
<path d="M25 45L7 45" stroke="#FBD44B" stroke-width="2.5" stroke-linecap="round" stroke-linejoin="bevel"/>
<path d="M113.528 72.0818L97.24 65.1551C96.8567 64.9669 96.4317 64.5071 96.0667 63.8935L106.942 63.8853C107.132 63.9033 111.615 64.3058 115.21 62.7889C116.572 62.2129 117.585 61.0756 117.992 59.6684C118.402 58.248 118.142 56.7442 117.282 55.5398C114.173 51.1969 106.918 39.8487 106.692 28.3385C106.687 28.1405 106.03 8.56636 86.3417 8.40764C83.4433 8.43055 80.7633 8.91327 78.325 9.80345C77.7933 8.47309 77.01 7.08545 75.845 5.77964C72.4233 1.944 66.8683 0 59.3333 0C51.7983 0 46.2433 1.944 42.82 5.77636C38.8733 10.1962 39.24 15.5553 39.3333 16.4536V25.1575C38.2667 26.3504 37.6667 27.8771 37.6667 29.4529V35.9984C37.6667 37.9898 38.5883 39.8471 40.1617 41.0858C41.6883 47.0209 44.8833 51.4931 46 52.9282V58.3429C46 59.9269 45.12 61.38 43.705 62.1393L28.8367 70.1018C24.0017 72.6938 21 77.6585 21 83.0651V90H94.3333H97.6667H121V83.9504C121 78.8907 118.137 74.3449 113.528 72.0818ZM94.3333 86.7273H24.3333V83.0651C24.3333 78.858 26.67 74.9913 30.4317 72.9785L45.3 65.016C47.7883 63.6824 49.3333 61.1247 49.3333 58.3445V51.768L48.945 51.3131C48.905 51.2656 44.82 46.4138 43.2617 39.7522L43.11 39.1042L42.5417 38.7442C41.5767 38.1322 41 37.1062 41 36V29.4545C41 28.5365 41.3967 27.6807 42.1167 27.0409L42.6667 26.5549V16.3636L42.6517 16.1493C42.6467 16.1051 42.08 11.5691 45.3267 7.93309C48.0883 4.84036 52.8017 3.27273 59.3333 3.27273C65.8417 3.27273 70.545 4.82891 73.31 7.90036C74.685 9.42545 75.3767 11.1289 75.7217 12.5918C75.7483 12.7064 75.7733 12.8193 75.7967 12.9322C75.82 13.0484 75.845 13.1645 75.8633 13.2758C75.885 13.4035 75.9033 13.5245 75.9217 13.6456C75.935 13.7324 75.9483 13.8207 75.9583 13.9042C75.9833 14.1071 76.0033 14.3035 76.0167 14.4851C76.0183 14.4998 76.0183 14.5129 76.0183 14.5276C76.03 14.7044 76.0383 14.8713 76.0433 15.0235C76.0433 15.0529 76.0433 15.0775 76.045 15.1069C76.0483 15.2427 76.0483 15.372 76.0467 15.4849C76.0467 15.5013 76.0467 15.5176 76.0467 15.534C76.04 15.9185 76.0133 16.1476 76.0133 16.1525L76 26.5549L76.55 27.0425C77.27 27.6807 77.6667 28.5365 77.6667 29.4545V36C77.6667 37.4285 76.7133 38.6787 75.2967 39.1075L74.4667 39.3578L74.2 40.1678C73.085 43.5731 71.4967 46.7182 69.4767 49.5164C68.9817 50.2053 68.5 50.8156 68.0817 51.282L67.6667 51.7467V58.4967C67.6667 58.9107 67.7083 59.3165 67.7733 59.7158C67.7867 59.8009 67.81 59.8827 67.8267 59.9678C67.8917 60.2967 67.9783 60.6191 68.085 60.9333C68.11 61.0069 68.1367 61.0773 68.165 61.1509C68.295 61.4929 68.4467 61.8235 68.6233 62.1409C68.6433 62.1769 68.6617 62.2145 68.6817 62.2505C68.9233 62.6695 69.2017 63.0671 69.5217 63.4336L69.9017 63.8935H69.9667C70.5383 64.4465 71.195 64.9276 71.9417 65.2942L87.8633 73.1095C91.855 75.0665 94.3333 79.0036 94.3333 83.3842V86.7273ZM117.667 86.7273H97.6667V83.3842C97.6667 77.7567 94.4817 72.6987 89.3567 70.182L77.9267 64.5693C78.2083 63.9376 78.245 63.2144 77.9983 62.5173C77.59 61.3636 76.5233 60.6191 75.2817 60.6191H71.5867C71.51 60.4865 71.46 60.3409 71.3983 60.2002C71.315 60.012 71.2167 59.8271 71.1617 59.6291C71.06 59.2658 71 58.8862 71 58.4967V52.9642C71.3817 52.506 71.7833 51.984 72.1983 51.408C74.2633 48.5444 75.9183 45.3567 77.1217 41.9187C79.4733 40.86 81 38.5773 81 36V29.4545C81 27.8787 80.4 26.352 79.3333 25.1591V16.4553C79.3767 16.0462 79.47 14.706 79.1933 12.9551C81.34 12.1271 83.745 11.7 86.3433 11.6787C102.745 11.8113 103.343 27.7331 103.36 28.404C103.605 40.8125 111.27 52.83 114.555 57.42C114.837 57.8127 114.922 58.3069 114.787 58.7733C114.71 59.0416 114.49 59.5293 113.895 59.7796C111.095 60.9627 107.297 60.6273 107.102 60.6191H95.63C94.5583 60.6191 93.5817 61.1542 93.0167 62.0493C92.4533 62.9411 92.4 64.0309 92.8733 64.9669C93.395 65.9995 94.3167 67.3789 95.8317 68.1202L112.077 75.0289C115.525 76.7389 117.667 80.1524 117.667 83.9504V86.7273Z" fill="white"/>
</svg>
