<svg width="772" height="320" viewBox="0 0 772 320" fill="none" xmlns="http://www.w3.org/2000/svg">
<path d="M772 172.667V107.333H744C741.63 99.1997 738.369 91.3538 734.279 83.9351L754.093 64.1194L707.894 17.9187L688.08 37.7344C680.656 33.6396 672.807 30.3721 664.667 28V0H599.333V28C591.2 30.3704 583.354 33.6311 575.935 37.7207L556.119 17.9016L509.919 64.1023L529.734 83.9146C525.636 91.3418 522.372 99.1929 520 107.333H492V172.667H520C522.37 180.8 525.631 188.646 529.721 196.065L509.902 215.879L556.102 262.08L575.915 242.266C583.342 246.36 591.193 249.625 599.333 252V280H664.667V252C672.8 249.63 680.646 246.369 688.065 242.279L707.879 262.093L754.08 215.894L734.266 196.079C738.36 188.656 741.625 180.804 744 172.667H772ZM735.937 166.829C733.428 176.535 729.562 185.833 724.453 194.455L722.585 197.574L740.893 215.881L707.881 248.9L689.574 230.593L686.455 232.459C677.835 237.574 668.535 241.442 658.829 243.944L655.334 244.843V270.667H608.666V244.843L605.171 243.937C595.465 241.43 586.165 237.564 577.545 232.453L574.426 230.585L556.119 248.9L523.1 215.879L541.407 197.572L539.541 194.455C534.427 185.833 530.562 176.531 528.056 166.829L527.157 163.331H501.333V116.666H527.157L528.063 113.171C530.57 103.465 534.436 94.165 539.547 85.5449L541.415 82.426L523.1 64.1194L556.119 31.1001L574.426 49.4067L577.545 47.5405C586.165 42.4255 595.465 38.5581 605.171 36.0562L608.666 35.1572V9.33276H655.334V35.1572L658.829 36.063C668.535 38.5701 677.835 42.4358 686.455 47.5474L689.574 49.4153L707.881 31.1001L740.9 64.1194L722.593 82.426L724.459 85.5449C729.574 94.165 733.442 103.465 735.944 113.171L736.85 116.666H762.667V163.334H736.843L735.937 166.829Z" fill="#EBEBEB"/>
<path d="M62.5279 202.248L0 218.718C6.05106 224.208 15.6319 230.696 62.5279 274.117C519.181 370.74 646.455 224.873 653.011 139.862L676.711 175.796L711 160.823L642.421 64L535.519 131.876L557.202 160.823C561.404 158.661 575.759 151.44 599.56 139.862C558.816 303.563 224.562 249.661 62.5279 202.248Z" fill="#EDEDED"/>
<path d="M71.0002 216L9 232.5C15 238 24.5 244.5 71.0002 288C523.8 384.8 650 238.667 656.5 153.5L680 189.5L714 174.5L646 77.5L540 145.5L561.5 174.5C565.667 172.333 579.9 165.1 603.5 153.5C563.1 317.5 231.667 263.5 71.0002 216Z" fill="#E6E6E6"/>
</svg>
