<svg width="50" height="50" viewBox="0 0 50 50" fill="none" xmlns="http://www.w3.org/2000/svg">
<g clip-path="url(#clip0)">
<path d="M49.0003 25.0002C49.0003 38.2539 38.256 48.9982 25.0023 48.9982C11.7486 48.9982 1.00439 38.2539 1.00439 25.0002C1.00439 11.7465 11.7486 1.00229 25.0023 1.00229C38.256 1.00229 49.0003 11.7465 49.0003 25.0002Z" fill="#DBDBDB" stroke="white" stroke-width="2"/>
<path d="M48.443 14.862H13.1285C12.4153 14.862 11.7929 14.3764 11.6194 13.6846L9.94814 7.00654C9.8124 6.4627 9.39922 6.04639 8.88291 5.89238C8.74111 5.85059 8.59209 5.82812 8.43906 5.82812H1.55596C0.69668 5.82812 0 6.5248 0 7.38408V7.41064C0 8.26992 0.69668 8.9666 1.55596 8.9666H5.97188C6.68408 8.9666 7.30547 9.4502 7.47988 10.1399L9.94502 20.1779L16.6903 47.6519H21.7369V48.3931H33.5727L34.1902 47.6519H35.0011V45.6382H20.2065L19.3284 42.6694C18.9298 41.3215 19.9399 39.9692 21.3456 39.9692H43.0424C43.7587 39.9692 44.3831 39.4795 44.5535 38.7836L49.343 19.2801L49.9541 16.7895C50.1949 15.8089 49.452 14.862 48.443 14.862ZM18.9066 26.6529L19.0791 27.9345C19.2046 28.8681 18.4792 29.6976 17.5374 29.6976H16.763C16.0457 29.6976 15.4202 29.2067 15.2509 28.5089L14.9396 27.2273C14.702 26.2479 15.4447 25.304 16.4518 25.304H17.3649C18.1444 25.3041 18.8036 25.8806 18.9066 26.6529ZM14.6784 18.0006H16.3834C17.1629 18.0006 17.8221 18.5771 17.9262 19.3494L18.067 20.4034C18.1925 21.336 17.467 22.1665 16.5253 22.1665H14.9346C14.2163 22.1665 13.5918 21.6747 13.4225 20.9768L13.1664 19.9238C12.9285 18.9443 13.6703 18.0006 14.6784 18.0006ZM18.4954 36.8307C18.1362 36.8307 17.8006 36.7082 17.5332 36.498C17.2659 36.2879 17.068 35.9899 16.9832 35.642L16.7689 34.7594C16.5312 33.7799 17.2729 32.836 18.2811 32.836H18.377C19.1555 32.836 19.8146 33.4125 19.9187 34.1849L20.037 35.0675C20.1626 36.0001 19.4372 36.8307 18.4954 36.8307ZM27.9641 35.2747C27.9641 36.1338 27.2682 36.8307 26.4081 36.8307H24.8011C24.0226 36.8307 23.3635 36.2542 23.2594 35.4818L23.141 34.5992C23.0155 33.6656 23.741 32.8361 24.6827 32.8361H26.4081C27.2683 32.8361 27.9641 33.533 27.9641 34.3921V35.2747ZM27.9641 28.1416C27.9641 29.0018 27.2682 29.6976 26.4081 29.6976H23.843C23.0645 29.6976 22.4054 29.1211 22.3013 28.3487L22.1288 27.0672C22.0033 26.1346 22.7298 25.3041 23.6716 25.3041H26.4081C27.2683 25.3041 27.9641 26.001 27.9641 26.8601V28.1416ZM27.9641 20.6105C27.9641 21.4696 27.2682 22.1665 26.4081 22.1665H22.8318C22.0523 22.1665 21.3932 21.59 21.2891 20.8177L21.1482 19.7637C21.0228 18.8311 21.7481 18.0006 22.6899 18.0006H26.408C27.2682 18.0006 27.964 18.6975 27.964 19.5565V20.6105H27.9641ZM35.9267 34.5992L35.8083 35.4818C35.7042 36.2542 35.0451 36.8307 34.2655 36.8307H32.6585C31.7994 36.8307 31.1025 36.1338 31.1025 35.2747V34.3921C31.1025 33.533 31.7994 32.8361 32.6585 32.8361H34.3839C35.3257 32.8361 36.0522 33.6656 35.9267 34.5992ZM36.9378 27.0672L36.7653 28.3487C36.6623 29.1211 36.0031 29.6976 35.2236 29.6976H32.6585C31.7994 29.6976 31.1025 29.0017 31.1025 28.1416V26.8601C31.1025 26.001 31.7994 25.3041 32.6585 25.3041H35.396C36.3379 25.3041 37.0633 26.1346 36.9378 27.0672ZM37.9193 19.7637L37.7775 20.8177C37.6734 21.59 37.0144 22.1665 36.2358 22.1665H32.6586C31.7995 22.1665 31.1026 21.4696 31.1026 20.6105V19.5565C31.1026 18.6975 31.7995 18.0006 32.6586 18.0006H36.3767C37.3184 18.0006 38.0448 18.8312 37.9193 19.7637ZM42.2986 34.7594L42.0844 35.642C41.915 36.3389 41.2896 36.8307 40.5723 36.8307C39.6305 36.8307 38.9051 36.0001 39.0295 35.0676L39.1488 34.185C39.2519 33.4126 39.911 32.8361 40.6905 32.8361H40.7864C41.7945 32.8361 42.5363 33.7799 42.2986 34.7594ZM44.127 27.2273L43.8158 28.5089C43.6465 29.2068 43.022 29.6976 42.3037 29.6976H41.5303C40.5885 29.6976 39.8631 28.8681 39.9875 27.9345L40.16 26.6529C40.2641 25.8806 40.9231 25.3041 41.7027 25.3041H42.6149C43.623 25.3041 44.3647 26.2479 44.127 27.2273ZM45.9003 19.9239L45.6442 20.9769C45.4749 21.6748 44.8504 22.1666 44.1331 22.1666H42.5414C41.6007 22.1666 40.8742 21.336 40.9997 20.4035L41.1415 19.3495C41.2445 18.5772 41.9037 18.0007 42.6832 18.0007H44.3882C45.3963 18.0006 46.1381 18.9443 45.9003 19.9239Z" fill="white"/>
<path d="M39.8245 45.131C37.7298 46.6769 35.3851 47.9022 32.8628 48.7369C32.8107 48.4768 32.7832 48.2084 32.7832 47.9339C32.7832 45.681 34.6096 43.8546 36.8614 43.8546C38.0287 43.8546 39.0817 44.3443 39.8245 45.131Z" fill="white"/>
<path d="M24.2399 47.9339C24.2399 48.6725 24.0431 49.3664 23.7002 49.9643C21.0382 49.8286 18.4854 49.2746 16.1069 48.3696C16.0916 48.2267 16.0835 48.0808 16.0835 47.934C16.0835 45.6811 17.9089 43.8547 20.1617 43.8547C22.4146 43.8547 24.2399 45.6809 24.2399 47.9339Z" fill="white"/>
<path d="M4.61123 8.9666H1.55596C0.69668 8.9666 0 8.26992 0 7.41064V7.38408C0 6.5248 0.69668 5.82812 1.55596 5.82812H4.61123C5.56631 5.82812 6.2999 6.67412 6.16465 7.61963C6.0541 8.39248 5.39199 8.9666 4.61123 8.9666Z" fill="white"/>
</g>
<defs>
<clipPath id="clip0">
<rect width="50" height="50" fill="white"/>
</clipPath>
</defs>
</svg>
