<svg width="41" height="41" viewBox="0 0 41 41" fill="none" xmlns="http://www.w3.org/2000/svg">
<g filter="url(#filter0_d)">
<circle cx="20.3636" cy="16.3636" r="16.3636" fill="#FBD44B"/>
</g>
<path d="M26.8229 10.1719C26.45 9.8099 25.702 10.0164 24.469 10.822C23.4215 11.5064 22.1651 12.543 20.9312 13.7408C19.1019 15.5166 17.7111 17.2602 17.248 18.3367C17.1718 18.3099 17.0927 18.2884 17.0112 18.2728C16.532 18.1808 16.0116 18.2984 15.5832 18.5953C14.9686 19.0214 14.8058 19.6298 14.7822 19.7324C14.6528 20.2015 14.4078 20.6491 14.0733 21.0271C13.9657 21.1487 13.978 21.3315 14.1009 21.4385C14.5307 21.8125 15.0805 22 15.6524 22C16.2035 22 16.7751 21.8258 17.2793 21.4762C17.5157 21.3124 17.6947 21.1311 17.7294 21.0953C18.1578 20.6484 18.3397 20.0624 18.2494 19.527C19.3374 19.1484 21.2342 17.7479 23.1465 15.8914C24.3805 14.6936 25.4482 13.4739 26.1532 12.4571C26.983 11.26 27.1958 10.5339 26.8229 10.1719ZM17.2854 20.6934C17.2691 20.7103 17.1204 20.8623 16.9266 20.9966C16.2225 21.4847 15.3604 21.5411 14.7342 21.1653C15.0275 20.7751 15.2454 20.3351 15.3706 19.8774V19.8773C15.372 19.8722 15.3733 19.867 15.3744 19.8618C15.3754 19.8572 15.4808 19.3904 15.936 19.0749C16.2288 18.8719 16.5778 18.7903 16.8935 18.8508C17.1539 18.9008 17.3728 19.0451 17.5099 19.257C17.7789 19.673 17.6843 20.2773 17.2854 20.6934ZM18.0426 18.9741C18.0364 18.964 17.9444 18.7826 17.7729 18.6478C17.9206 18.2643 18.2387 17.7461 18.682 17.1509L19.633 18.0741C18.964 18.5416 18.4158 18.8464 18.0426 18.9741ZM20.1242 17.7176L19.0501 16.675C19.2357 16.443 19.4366 16.2028 19.6506 15.957L20.8644 17.1354C20.6075 17.346 20.3601 17.5403 20.1242 17.7176ZM25.5568 12.26C24.8731 13.2192 23.8647 14.3609 22.7173 15.4747C22.2356 15.9423 21.7685 16.3677 21.3248 16.7489L20.0487 15.5101C20.4534 15.0657 20.8947 14.6095 21.3604 14.1575C22.5078 13.0437 23.6838 12.0647 24.6719 11.401C25.8885 10.5838 26.3083 10.5825 26.389 10.5932C26.4001 10.6714 26.3986 11.079 25.5568 12.26Z" fill="black"/>
<path d="M16.8858 20.0335C16.7792 19.9617 16.6453 20.0092 16.5866 20.1397C16.5806 20.1529 16.5735 20.1652 16.5652 20.1764C16.5487 20.1973 16.4946 20.2614 16.4383 20.3106C16.353 20.3852 16.2609 20.4386 16.1646 20.4694C16.0469 20.5071 15.9764 20.6545 16.0072 20.7986C16.0331 20.9197 16.1224 21 16.2202 21C16.2387 21 16.2574 20.9971 16.2761 20.9912C16.4245 20.9437 16.5652 20.8624 16.6944 20.7495C16.7774 20.677 16.8874 20.5443 16.8882 20.5433C16.921 20.4998 16.9494 20.4515 16.9727 20.3997C17.0313 20.2692 16.9925 20.1052 16.8858 20.0335Z" fill="black"/>
<defs>
<filter id="filter0_d" x="0" y="0" width="40.7273" height="40.7273" filterUnits="userSpaceOnUse" color-interpolation-filters="sRGB">
<feFlood flood-opacity="0" result="BackgroundImageFix"/>
<feColorMatrix in="SourceAlpha" type="matrix" values="0 0 0 0 0 0 0 0 0 0 0 0 0 0 0 0 0 0 127 0"/>
<feOffset dy="4"/>
<feGaussianBlur stdDeviation="2"/>
<feColorMatrix type="matrix" values="0 0 0 0 0 0 0 0 0 0 0 0 0 0 0 0 0 0 0.05 0"/>
<feBlend mode="normal" in2="BackgroundImageFix" result="effect1_dropShadow"/>
<feBlend mode="normal" in="SourceGraphic" in2="effect1_dropShadow" result="shape"/>
</filter>
</defs>
</svg>
