<svg width="18" height="18" viewBox="0 0 18 18" fill="none" xmlns="http://www.w3.org/2000/svg">
<g clip-path="url(#clip0)">
<path d="M6.51718 6.52148C6.75001 6.52148 6.93872 6.71019 6.93872 6.94303V14.9102C6.93872 15.1429 6.75001 15.3318 6.51718 15.3318C6.28434 15.3318 6.09563 15.1429 6.09563 14.9102V6.94303C6.09563 6.71019 6.28434 6.52148 6.51718 6.52148Z" fill="black"/>
<path d="M11.4914 6.52148C11.7242 6.52148 11.9129 6.71019 11.9129 6.94303V14.9102C11.9129 15.1429 11.7242 15.3318 11.4914 15.3318C11.2585 15.3318 11.0698 15.1429 11.0698 14.9102V6.94303C11.0698 6.71019 11.2585 6.52148 11.4914 6.52148Z" fill="black"/>
<path d="M15.1167 5.35877V15.7447C15.1167 16.3586 14.8916 16.9351 14.4984 17.3487C14.1069 17.7635 13.5622 17.999 12.9922 18H5.01641C4.44618 17.999 3.90146 17.7635 3.51021 17.3487C3.11699 16.9351 2.8919 16.3586 2.8919 15.7447V5.35877C2.11023 5.15129 1.60371 4.39614 1.70828 3.59405C1.81301 2.79213 2.4962 2.19225 3.30504 2.19209H5.46332V1.66515C5.46085 1.22204 5.63605 0.796543 5.94974 0.483514C6.26343 0.170649 6.68958 -0.00356726 7.1327 5.53875e-05H10.8759C11.319 -0.00356726 11.7451 0.170649 12.0588 0.483514C12.3725 0.796543 12.5477 1.22204 12.5453 1.66515V2.19209H14.7035C15.5124 2.19225 16.1956 2.79213 16.3003 3.59405C16.4049 4.39614 15.8983 5.15129 15.1167 5.35877ZM5.01641 17.1569H12.9922C13.7129 17.1569 14.2736 16.5378 14.2736 15.7447V5.39582H3.73498V15.7447C3.73498 16.5378 4.29567 17.1569 5.01641 17.1569ZM11.7022 1.66515C11.705 1.44566 11.6187 1.23439 11.4629 1.07944C11.3073 0.924489 11.0955 0.839356 10.8759 0.843144H7.1327C6.91303 0.839356 6.70127 0.924489 6.54566 1.07944C6.38989 1.23422 6.30361 1.44566 6.30641 1.66515V2.19209H11.7022V1.66515ZM14.7035 3.03517H3.30504C2.88597 3.03517 2.54626 3.37488 2.54626 3.79395C2.54626 4.21303 2.88597 4.55273 3.30504 4.55273H14.7035C15.1226 4.55273 15.4623 4.21303 15.4623 3.79395C15.4623 3.37488 15.1226 3.03517 14.7035 3.03517Z" fill="black"/>
<path d="M9.00428 6.52148C9.23712 6.52148 9.42583 6.71019 9.42583 6.94303V14.9102C9.42583 15.1429 9.23712 15.3318 9.00428 15.3318C8.77144 15.3318 8.58274 15.1429 8.58274 14.9102V6.94303C8.58274 6.71019 8.77144 6.52148 9.00428 6.52148Z" fill="black"/>
</g>
<defs>
<clipPath id="clip0">
<rect width="18" height="18" transform="matrix(-1 0 0 1 18 0)" fill="white"/>
</clipPath>
</defs>
</svg>
