<svg width="30" height="30" viewBox="0 0 30 30" fill="none" xmlns="http://www.w3.org/2000/svg">
<circle cx="15" cy="15.0001" r="15" fill="#FBD44B"/>
<g clip-path="url(#clip0)">
<path d="M12.5169 12.5216C12.7498 12.5216 12.9385 12.7103 12.9385 12.9432V20.9104C12.9385 21.143 12.7498 21.3319 12.5169 21.3319C12.2841 21.3319 12.0954 21.143 12.0954 20.9104V12.9432C12.0954 12.7103 12.2841 12.5216 12.5169 12.5216Z" fill="black"/>
<path d="M17.4915 12.5216C17.7244 12.5216 17.9131 12.7103 17.9131 12.9432V20.9104C17.9131 21.143 17.7244 21.3319 17.4915 21.3319C17.2587 21.3319 17.07 21.143 17.07 20.9104V12.9432C17.07 12.7103 17.2587 12.5216 17.4915 12.5216Z" fill="black"/>
<path d="M21.1167 11.3589V21.7449C21.1167 22.3587 20.8916 22.9352 20.4984 23.3489C20.107 23.7637 19.5623 23.9991 18.9922 24.0001H11.0164C10.4462 23.9991 9.90149 23.7637 9.51025 23.3489C9.11702 22.9352 8.89193 22.3587 8.89193 21.7449V11.3589C8.11026 11.1514 7.60375 10.3963 7.70831 9.59417C7.81304 8.79225 8.49623 8.19237 9.30507 8.19221H11.4633V7.66528C11.4609 7.22216 11.6361 6.79667 11.9498 6.48364C12.2635 6.17077 12.6896 5.99655 13.1327 6.00018H16.8759C17.319 5.99655 17.7452 6.17077 18.0589 6.48364C18.3726 6.79667 18.5478 7.22216 18.5453 7.66528V8.19221H20.7036C21.5124 8.19237 22.1956 8.79225 22.3003 9.59417C22.4049 10.3963 21.8984 11.1514 21.1167 11.3589ZM11.0164 23.157H18.9922C19.7129 23.157 20.2736 22.5379 20.2736 21.7449V11.3959H9.73501V21.7449C9.73501 22.5379 10.2957 23.157 11.0164 23.157ZM17.7022 7.66528C17.705 7.44578 17.6187 7.23451 17.4629 7.07956C17.3073 6.92461 17.0956 6.83948 16.8759 6.84327H13.1327C12.9131 6.83948 12.7013 6.92461 12.5457 7.07956C12.3899 7.23435 12.3036 7.44578 12.3064 7.66528V8.19221H17.7022V7.66528ZM20.7036 9.0353H9.30507C8.886 9.0353 8.54629 9.375 8.54629 9.79408C8.54629 10.2131 8.886 10.5529 9.30507 10.5529H20.7036C21.1226 10.5529 21.4623 10.2131 21.4623 9.79408C21.4623 9.375 21.1226 9.0353 20.7036 9.0353Z" fill="black"/>
<path d="M15.0042 12.5216C15.2371 12.5216 15.4258 12.7103 15.4258 12.9432V20.9104C15.4258 21.143 15.2371 21.3319 15.0042 21.3319C14.7714 21.3319 14.5827 21.143 14.5827 20.9104V12.9432C14.5827 12.7103 14.7714 12.5216 15.0042 12.5216Z" fill="black"/>
</g>
<defs>
<clipPath id="clip0">
<rect width="18" height="18" transform="matrix(-1 0 0 1 24 6.00012)" fill="white"/>
</clipPath>
</defs>
</svg>
