<svg width="188" height="131" viewBox="0 0 188 131" fill="none" xmlns="http://www.w3.org/2000/svg">
<rect width="12.4906" height="12.4906" rx="6.24531" transform="matrix(0.99804 0.0625847 0.0625847 -0.99804 44.1035 112.275)" fill="#FBD44B"/>
<rect x="74.9556" y="78.1367" width="20.5728" height="20.5728" rx="10.2864" transform="rotate(3.58818 74.9556 78.1367)" fill="#FBD44B"/>
<rect x="145.832" y="47.4897" width="52.9014" height="52.9014" rx="26.4507" transform="rotate(3.58818 145.832 47.4897)" fill="#FBD44B"/>
<rect x="32.0513" y="104.894" width="10.2864" height="10.2864" rx="5.14319" transform="rotate(3.58818 32.0513 104.894)" fill="#101010"/>
<rect x="103.741" y="65.2178" width="32.3286" height="32.3286" rx="16.1643" transform="rotate(3.58818 103.741 65.2178)" fill="#101010"/>
<rect x="19.4012" y="107.045" width="8.8169" height="8.8169" rx="4.40845" transform="rotate(3.58818 19.4012 107.045)" fill="#FBD44B"/>
<rect x="61.3857" y="94.9541" width="14.6948" height="14.6948" rx="7.34742" transform="rotate(3.58818 61.3857 94.9541)" fill="#101010"/>
<rect x="6.26892" y="110.914" width="4.40845" height="4.40845" rx="2.20423" transform="rotate(153.588 6.26892 110.914)" fill="#FBD44B"/>
<rect width="5.52444" height="5.52444" rx="2.76222" transform="matrix(0.947834 0.318764 0.318764 -0.947834 7.73779 112.079)" fill="#101010"/>
</svg>
