<svg width="748" height="648" viewBox="0 0 748 648" fill="none" xmlns="http://www.w3.org/2000/svg">
<path d="M366.182 641.713L323.344 561.178M137.143 255.603L290.217 273.88L377.605 342.991L499.265 406.391L331.055 431.808L212.823 342.706L137.143 255.603Z" stroke="#FBD44B" stroke-width="0.62"/>
<path d="M451.857 501.777L484.985 605.73L572.374 545.757L634.632 466.936L499.264 406.392L451.857 501.777ZM451.857 501.777L323.344 561.179L331.341 432.095L377.605 342.992L462.71 278.45L594.079 255.603L484.7 148.509L366.182 184.778L323.344 104.243L227.102 170.213L290.216 273.881L213.108 342.992L177.696 466.936L115.438 545.757L227.388 627.435" stroke="#FBD44B" stroke-width="0.62"/>
<path d="M213.108 342.992L5.77393 278.45M28.0495 148.794L227.102 170.213L366.182 184.778L462.71 278.45L484.7 148.509L684.323 170.499L594.079 255.603L670.044 342.992L499.264 406.392L572.374 545.757L28.0495 148.794ZM323.344 104.243L484.7 148.509L323.344 104.243ZM484.985 605.73L323.344 561.179L484.985 605.73ZM177.696 10L227.388 170.499L177.696 10Z" stroke="#FBD44B" stroke-width="0.62"/>
<path d="M594.079 260.743C596.918 260.743 599.219 258.441 599.219 255.602C599.219 252.763 596.918 250.462 594.079 250.462C591.239 250.462 588.938 252.763 588.938 255.602C588.938 258.441 591.239 260.743 594.079 260.743Z" fill="#FBD44B"/>
<path d="M462.71 283.59C465.549 283.59 467.85 281.288 467.85 278.449C467.85 275.61 465.549 273.309 462.71 273.309C459.871 273.309 457.569 275.61 457.569 278.449C457.569 281.288 459.871 283.59 462.71 283.59Z" fill="#FBD44B"/>
<path d="M499.264 411.532C502.103 411.532 504.405 409.231 504.405 406.392C504.405 403.552 502.103 401.251 499.264 401.251C496.425 401.251 494.124 403.552 494.124 406.392C494.124 409.231 496.425 411.532 499.264 411.532Z" fill="#FBD44B"/>
<path d="M572.374 550.897C575.213 550.897 577.514 548.596 577.514 545.757C577.514 542.918 575.213 540.616 572.374 540.616C569.535 540.616 567.233 542.918 567.233 545.757C567.233 548.596 569.535 550.897 572.374 550.897Z" fill="#FBD44B"/>
<path d="M485.141 609.281C487.98 609.281 490.281 606.98 490.281 604.141C490.281 601.301 487.98 599 485.141 599C482.301 599 480 601.301 480 604.141C480 606.98 482.301 609.281 485.141 609.281Z" fill="#FBD44B"/>
<path d="M451.857 506.917C454.696 506.917 456.998 504.615 456.998 501.776C456.998 498.937 454.696 496.636 451.857 496.636C449.018 496.636 446.717 498.937 446.717 501.776C446.717 504.615 449.018 506.917 451.857 506.917Z" fill="#FBD44B"/>
<path d="M331.34 437.234C334.18 437.234 336.481 434.933 336.481 432.094C336.481 429.255 334.18 426.953 331.34 426.953C328.501 426.953 326.2 429.255 326.2 432.094C326.2 434.933 328.501 437.234 331.34 437.234Z" fill="#FBD44B"/>
<path d="M323.344 566.319C326.183 566.319 328.485 564.018 328.485 561.179C328.485 558.34 326.183 556.038 323.344 556.038C320.505 556.038 318.204 558.34 318.204 561.179C318.204 564.018 320.505 566.319 323.344 566.319Z" fill="#FBD44B"/>
<path d="M177.696 472.076C180.535 472.076 182.837 469.774 182.837 466.935C182.837 464.096 180.535 461.795 177.696 461.795C174.857 461.795 172.556 464.096 172.556 466.935C172.556 469.774 174.857 472.076 177.696 472.076Z" fill="#FBD44B"/>
<path d="M115.706 550.863C118.545 550.863 120.847 548.562 120.847 545.723C120.847 542.884 118.545 540.582 115.706 540.582C112.867 540.582 110.566 542.884 110.566 545.723C110.566 548.562 112.867 550.863 115.706 550.863Z" fill="#FBD44B"/>
<path d="M226.211 630.993C229.05 630.993 231.351 628.691 231.351 625.852C231.351 623.013 229.05 620.712 226.211 620.712C223.372 620.712 221.07 623.013 221.07 625.852C221.07 628.691 223.372 630.993 226.211 630.993Z" fill="#FBD44B"/>
<path d="M633.965 472.042C636.804 472.042 639.106 469.74 639.106 466.901C639.106 464.062 636.804 461.761 633.965 461.761C631.126 461.761 628.824 464.062 628.824 466.901C628.824 469.74 631.126 472.042 633.965 472.042Z" fill="#FBD44B"/>
<path d="M669.953 347.483C672.792 347.483 675.094 345.182 675.094 342.343C675.094 339.504 672.792 337.202 669.953 337.202C667.114 337.202 664.812 339.504 664.812 342.343C664.812 345.182 667.114 347.483 669.953 347.483Z" fill="#FBD44B"/>
<path d="M684.048 175.992C686.887 175.992 689.189 173.69 689.189 170.851C689.189 168.012 686.887 165.711 684.048 165.711C681.209 165.711 678.908 168.012 678.908 170.851C678.908 173.69 681.209 175.992 684.048 175.992Z" fill="#FBD44B"/>
<path d="M213.109 348.132C215.948 348.132 218.249 345.83 218.249 342.991C218.249 340.152 215.948 337.851 213.109 337.851C210.27 337.851 207.968 340.152 207.968 342.991C207.968 345.83 210.27 348.132 213.109 348.132Z" fill="#FBD44B"/>
<path d="M227.388 175.638C230.227 175.638 232.528 173.337 232.528 170.498C232.528 167.659 230.227 165.357 227.388 165.357C224.549 165.357 222.247 167.659 222.247 170.498C222.247 173.337 224.549 175.638 227.388 175.638Z" fill="#FBD44B"/>
<path d="M366.182 189.918C369.021 189.918 371.323 187.616 371.323 184.777C371.323 181.938 369.021 179.637 366.182 179.637C363.343 179.637 361.042 181.938 361.042 184.777C361.042 187.616 363.343 189.918 366.182 189.918Z" fill="#FBD44B"/>
<path d="M324.141 109.281C326.98 109.281 329.281 106.98 329.281 104.141C329.281 101.301 326.98 99 324.141 99C321.301 99 319 101.301 319 104.141C319 106.98 321.301 109.281 324.141 109.281Z" fill="#FBD44B"/>
<path d="M484.985 153.934C487.824 153.934 490.126 151.633 490.126 148.794C490.126 145.955 487.824 143.653 484.985 143.653C482.146 143.653 479.845 145.955 479.845 148.794C479.845 151.633 482.146 153.934 484.985 153.934Z" fill="#FBD44B"/>
<path d="M178.141 15.2811C180.98 15.2811 183.281 12.9796 183.281 10.1405C183.281 7.30149 180.98 5 178.141 5C175.301 5 173 7.30149 173 10.1405C173 12.9796 175.301 15.2811 178.141 15.2811Z" fill="#FBD44B"/>
<path d="M31.1688 154.228C34.0079 154.228 36.3094 151.927 36.3094 149.088C36.3094 146.249 34.0079 143.947 31.1688 143.947C28.3298 143.947 26.0283 146.249 26.0283 149.088C26.0283 151.927 28.3298 154.228 31.1688 154.228Z" fill="#FBD44B"/>
<path d="M138.485 261.094C141.324 261.094 143.625 258.792 143.625 255.953C143.625 253.114 141.324 250.812 138.485 250.812C135.645 250.812 133.344 253.114 133.344 255.953C133.344 258.792 135.645 261.094 138.485 261.094Z" fill="#FBD44B"/>
<path d="M5.14053 283.406C7.97956 283.406 10.2811 281.105 10.2811 278.266C10.2811 275.426 7.97956 273.125 5.14053 273.125C2.30149 273.125 0 275.426 0 278.266C0 281.105 2.30149 283.406 5.14053 283.406Z" fill="#FBD44B"/>
<path d="M365.433 647.375C368.272 647.375 370.573 645.073 370.573 642.234C370.573 639.395 368.272 637.094 365.433 637.094C362.594 637.094 360.292 639.395 360.292 642.234C360.292 645.073 362.594 647.375 365.433 647.375Z" fill="#FBD44B"/>
<path d="M290.216 279.02C293.055 279.02 295.357 276.719 295.357 273.88C295.357 271.041 293.055 268.739 290.216 268.739C287.377 268.739 285.076 271.041 285.076 273.88C285.076 276.719 287.377 279.02 290.216 279.02Z" fill="#FBD44B"/>
<path d="M377.605 348.132C380.444 348.132 382.746 345.83 382.746 342.991C382.746 340.152 380.444 337.851 377.605 337.851C374.766 337.851 372.465 340.152 372.465 342.991C372.465 345.83 374.766 348.132 377.605 348.132Z" fill="#FBD44B"/>
</svg>
