<svg width="498" height="465" viewBox="0 0 498 465" fill="none" xmlns="http://www.w3.org/2000/svg">
<path d="M729 449.551V279.449H656.1C649.929 258.274 641.439 237.846 630.791 218.531L682.379 166.939L562.096 46.6526L510.509 98.2441C491.181 87.5832 470.744 79.0759 449.551 72.9V0H279.449V72.9C258.274 79.0714 237.846 87.561 218.531 98.2085L166.939 46.6081L46.6526 166.895L98.2441 218.478C87.5743 237.815 79.0759 258.256 72.9 279.449H0V449.551H72.9C79.0714 470.727 87.561 491.154 98.2085 510.469L46.6081 562.056L166.895 682.343L218.478 630.756C237.815 641.417 258.256 649.915 279.449 656.1V729H449.551V656.1C470.727 649.929 491.154 641.439 510.469 630.791L562.056 682.379L682.343 562.096L630.756 510.505C641.417 491.181 649.915 470.735 656.1 449.551H729ZM635.107 434.352C628.576 459.621 618.511 483.83 605.207 506.278L600.344 514.398L648.011 562.061L562.061 648.029L514.398 600.366L506.278 605.225C483.835 618.542 459.621 628.611 434.352 635.125L425.253 637.466V704.701H303.747V637.466L294.648 635.107C269.379 628.58 245.165 618.515 222.722 605.207L214.602 600.344L166.939 648.029L80.9713 562.056L128.634 514.393L123.775 506.278C110.462 483.83 100.398 459.612 93.8748 434.352L91.5344 425.244H24.2985V303.747H91.5344L93.8926 294.648C100.42 269.379 110.485 245.165 123.793 222.722L128.656 214.602L80.9713 166.939L166.939 80.9713L214.602 128.634L222.722 123.775C245.165 110.458 269.379 100.389 294.648 93.8748L303.747 91.5344V24.2985H425.253V91.5344L434.352 93.8926C459.621 100.42 483.835 110.485 506.278 123.793L514.398 128.656L562.061 80.9713L648.029 166.939L600.366 214.602L605.225 222.722C618.542 245.165 628.611 269.379 635.125 294.648L637.483 303.747H704.701V425.253H637.466L635.107 434.352Z" fill="#EBEBEB"/>
</svg>
