<svg width="100" height="100" viewBox="0 0 100 100" fill="none" xmlns="http://www.w3.org/2000/svg">
<path fill-rule="evenodd" clip-rule="evenodd" d="M50 28.0576C37.8815 28.0576 28.0576 37.8815 28.0576 50C28.0576 62.1185 37.8815 71.9425 50 71.9425C62.1185 71.9425 71.9425 62.1185 71.9425 50C71.9425 37.8815 62.1185 28.0576 50 28.0576ZM0 50C0 22.3858 22.3858 0 50 0C77.6142 0 100 22.3858 100 50C100 77.6142 77.6142 100 50 100C22.3858 100 0 77.6142 0 50Z" fill="#92B0FF"/>
<path fill-rule="evenodd" clip-rule="evenodd" d="M50 28.0576C37.8815 28.0576 28.0576 37.8815 28.0576 50C28.0576 62.1185 37.8815 71.9425 50 71.9425V100C22.3858 100 0 77.6142 0 50C0 22.3858 22.3858 0 50 0C77.6142 0 100 22.3858 100 50H71.9425C71.9425 37.8815 62.1185 28.0576 50 28.0576Z" fill="#FBD44B"/>
<path fill-rule="evenodd" clip-rule="evenodd" d="M50 28.0576C37.8815 28.0576 28.0576 37.8815 28.0576 50C28.0576 62.1185 37.8815 71.9425 50 71.9425V100C22.3858 100 0 77.6142 0 50C0 22.3858 22.3858 0 50 0V28.0576Z" fill="#FFE68F"/>
</svg>
