<svg width="162" height="162" viewBox="0 0 162 162" fill="none" xmlns="http://www.w3.org/2000/svg">
<rect width="162" height="162" rx="10" fill="#FBD44B"/>
<path d="M62.2292 43.6236C67.1814 40.2662 73.8137 38.5888 82.1207 38.5888C96.7032 38.5888 103.993 43.8153 103.993 54.2709C103.993 56.1959 103.746 58.3419 103.25 60.7088L95.9045 95.127L87.9729 95.127L95.3187 60.7088C95.7101 59.1113 95.9045 57.6256 95.9045 56.2518C95.9045 49.2654 90.8351 45.7695 80.6936 45.7695C68.7896 45.7695 61.8192 50.6685 59.7797 60.4665L52.3327 95.127L44.4011 95.127L51.7443 60.5438C53.3977 52.9503 56.8935 47.3111 62.2292 43.6236Z" fill="black" stroke="black" stroke-width="2" stroke-miterlimit="10"/>
<path d="M100.242 120.341C95.2895 123.699 88.6572 125.376 80.3502 125.376C65.7677 125.376 58.4777 120.149 58.4777 109.694C58.4777 107.769 58.7254 105.623 59.2206 103.256L66.5664 68.8378L74.498 68.8378L67.1522 103.256C66.7608 104.853 66.5664 106.339 66.5664 107.713C66.5664 114.699 71.6358 118.195 81.7773 118.195C93.6813 118.195 100.652 113.296 102.691 103.498L110.138 68.8378L118.07 68.8378L110.727 103.421C109.073 111.014 105.577 116.656 100.242 120.341Z" fill="black" stroke="black" stroke-width="2" stroke-miterlimit="10"/>
<path d="M69.0186 76.5072L69.0186 85.4932L94.4787 85.4932L94.4787 76.5072L69.0186 76.5072Z" fill="black"/>
<path d="M81 21.0937C47.9147 21.0938 21.0937 47.9147 21.0937 81C21.0937 114.085 47.9147 140.906 81 140.906C114.085 140.906 140.906 114.085 140.906 81C140.906 47.9147 114.085 21.0937 81 21.0937Z" stroke="black" stroke-width="7" stroke-miterlimit="10"/>
</svg>
