<svg width="128" height="128" viewBox="0 0 128 128" fill="none" xmlns="http://www.w3.org/2000/svg">
<path d="M45.2292 26.6236C50.1814 23.2662 56.8137 21.5888 65.1207 21.5888C79.7032 21.5888 86.9932 26.8153 86.9932 37.2709C86.9932 39.1959 86.7456 41.3419 86.2503 43.7088L78.9045 78.127L70.9729 78.127L78.3187 43.7088C78.7101 42.1113 78.9045 40.6256 78.9045 39.2518C78.9045 32.2654 73.8351 28.7695 63.6936 28.7695C51.7896 28.7695 44.8192 33.6685 42.7797 43.4665L35.3327 78.127L27.4011 78.127L34.7443 43.5438C36.3977 35.9503 39.8935 30.3111 45.2292 26.6236Z" fill="black" stroke="black" stroke-width="2" stroke-miterlimit="10"/>
<path d="M83.2417 103.341C78.2895 106.699 71.6572 108.376 63.3502 108.376C48.7677 108.376 41.4777 103.149 41.4777 92.6939C41.4777 90.7689 41.7254 88.6229 42.2206 86.2559L49.5664 51.8378L57.498 51.8378L50.1522 86.2559C49.7608 87.8534 49.5664 89.3391 49.5664 90.713C49.5664 97.6994 54.6358 101.195 64.7773 101.195C76.6813 101.195 83.6517 96.2962 85.6912 86.4982L93.1382 51.8378L101.07 51.8378L93.7266 86.421C92.0732 94.0145 88.5774 99.6563 83.2417 103.341Z" fill="black" stroke="black" stroke-width="2" stroke-miterlimit="10"/>
<path d="M52.0186 59.5072L52.0186 68.4932L77.4787 68.4932L77.4787 59.5072L52.0186 59.5072Z" fill="black"/>
<path d="M64 4.09375C30.9147 4.09375 4.09373 30.9147 4.09374 64C4.09374 97.0853 30.9147 123.906 64 123.906C97.0853 123.906 123.906 97.0853 123.906 64C123.906 30.9147 97.0853 4.09374 64 4.09375Z" stroke="black" stroke-width="7" stroke-miterlimit="10"/>
</svg>
