<svg width="10" height="10" viewBox="0 0 10 10" fill="none" xmlns="http://www.w3.org/2000/svg">
<path d="M9.84796 9.10842L7.38279 6.63308C8.01662 5.90563 8.36391 4.99035 8.36391 4.0375C8.36391 1.81126 6.48785 0 4.18195 0C1.87606 0 0 1.81126 0 4.0375C0 6.26374 1.87606 8.07499 4.18195 8.07499C5.04762 8.07499 5.87255 7.82291 6.57785 7.34438L9.06175 9.8385C9.16557 9.9426 9.30521 10 9.45485 10C9.59649 10 9.73086 9.94786 9.83287 9.85307C10.0496 9.65172 10.0565 9.31784 9.84796 9.10842ZM4.18195 1.05326C5.88637 1.05326 7.27296 2.39195 7.27296 4.0375C7.27296 5.68304 5.88637 7.02173 4.18195 7.02173C2.47754 7.02173 1.09094 5.68304 1.09094 4.0375C1.09094 2.39195 2.47754 1.05326 4.18195 1.05326Z" fill="black"/>
</svg>
