<svg width="239" height="80" viewBox="0 0 239 80" fill="none" xmlns="http://www.w3.org/2000/svg">
<path d="M90.4595 12.2353H80.0205V1.54531C80.0205 1.13546 79.8581 0.742411 79.5691 0.45261C79.28 0.162809 78.888 0 78.4792 0H13.5217C13.1129 0 12.7209 0.162809 12.4318 0.45261C12.1427 0.742411 11.9804 1.13546 11.9804 1.54531V12.2353H6.23856C4.58463 12.2374 2.99905 12.897 1.82955 14.0695C0.660046 15.242 0.00209756 16.8316 0 18.4898V72.7415C0.00209822 74.6659 0.765556 76.5109 2.12287 77.8717C3.48017 79.2325 5.32048 79.9979 7.24 80H90.4586C90.8674 80 91.2595 79.8372 91.5486 79.5474C91.8376 79.2576 92 78.8645 92 78.4547V13.7806C92 13.3709 91.8377 12.978 91.5489 12.6882C91.26 12.3984 90.8682 12.2355 90.4595 12.2353ZM88.9182 60.5989H70.7891C68.4828 60.5989 66.2709 59.6804 64.6401 58.0454C63.0093 56.4104 62.0932 54.193 62.0932 51.8807C62.0932 49.5685 63.0093 47.351 64.6401 45.7161C66.2709 44.0811 68.4828 43.1626 70.7891 43.1626H88.9182V60.5989ZM15.0631 3.08973H76.9378V17.3586H73.3425V12.0375C73.3425 11.6276 73.1801 11.2346 72.891 10.9448C72.6019 10.655 72.2099 10.4922 71.8011 10.4922C70.9858 10.4924 70.2038 10.1681 69.6269 9.59059C69.05 9.01305 68.7255 8.22951 68.7245 7.41217C68.7245 7.00232 68.5621 6.60927 68.2731 6.31947C67.984 6.02967 67.592 5.86686 67.1832 5.86686H24.8133C24.4045 5.86686 24.0125 6.02967 23.7234 6.31947C23.4343 6.60927 23.2719 7.00232 23.2719 7.41217C23.271 8.22875 22.947 9.01162 22.3711 9.58903C21.7952 10.1664 21.0143 10.4912 20.1998 10.4922C19.791 10.4922 19.3989 10.655 19.1099 10.9448C18.8208 11.2346 18.6584 11.6276 18.6584 12.0375V17.3586H15.0631V3.08973ZM70.2597 17.3586H21.7411V13.385C22.804 13.1069 23.7736 12.5499 24.5503 11.7712C25.327 10.9925 25.8827 10.0204 26.16 8.95482H65.8409C66.1182 10.0204 66.6739 10.9925 67.4506 11.7712C68.2272 12.5499 69.1969 13.1069 70.2597 13.385V17.3586ZM3.08273 18.4907C3.08366 17.6518 3.41645 16.8476 4.00808 16.2545C4.59971 15.6613 5.40187 15.3277 6.23856 15.3268H11.9804V17.3577H9.15482C8.74602 17.3577 8.35397 17.5206 8.06491 17.8104C7.77585 18.1002 7.61345 18.4932 7.61345 18.9031C7.61345 19.3129 7.77585 19.7059 8.06491 19.9957C8.35397 20.2855 8.74602 20.4484 9.15482 20.4484H82.8461C83.2549 20.4484 83.6469 20.2855 83.936 19.9957C84.225 19.7059 84.3874 19.3129 84.3874 18.9031C84.3874 18.4932 84.225 18.1002 83.936 17.8104C83.6469 17.5206 83.2549 17.3577 82.8461 17.3577H80.0205V15.3268H88.9164V22.4793H6.23856C5.40187 22.4784 4.59971 22.1448 4.00808 21.5516C3.41645 20.9585 3.08366 20.1543 3.08273 19.3154V18.4889V18.4907ZM7.24 76.9103C6.13778 76.9091 5.08104 76.4696 4.30165 75.6882C3.52226 74.9068 3.08389 73.8474 3.08273 72.7424V24.7055C4.03789 25.2736 5.12792 25.5738 6.23856 25.5744H88.9173V40.0728H70.7891C67.6652 40.0728 64.6692 41.317 62.4603 43.5316C60.2514 45.7461 59.0104 48.7497 59.0104 51.8816C59.0104 55.0135 60.2514 58.0171 62.4603 60.2317C64.6692 62.4463 67.6652 63.6904 70.7891 63.6904H88.9182V76.9112L7.24 76.9103Z" fill="white" fill-opacity="0.07"/>
<path d="M66 51.5C66 52.5878 66.2933 53.6512 66.8427 54.5557C67.3921 55.4602 68.1731 56.1652 69.0868 56.5814C70.0005 56.9977 71.0058 57.1065 71.9758 56.8942C72.9457 56.682 73.8366 56.158 74.5358 55.3888C75.2351 54.6195 75.7112 53.6394 75.904 52.5724C76.0969 51.5055 75.9977 50.3996 75.6192 49.3946C75.2406 48.3896 74.5996 47.5307 73.7772 46.9265C72.9549 46.3222 71.9881 45.9998 70.9992 46C69.6736 46.0017 68.4028 46.5817 67.4656 47.6128C66.5284 48.6439 66.0013 50.0419 66 51.5ZM70.9992 49.1908C71.4144 49.1906 71.8204 49.3259 72.1657 49.5795C72.511 49.8331 72.7802 50.1937 72.9392 50.6157C73.0983 51.0376 73.14 51.5019 73.059 51.9499C72.9781 52.3979 72.7783 52.8095 72.4847 53.1325C72.1912 53.4556 71.8171 53.6756 71.4099 53.7648C71.0026 53.854 70.5805 53.8083 70.1968 53.6335C69.8132 53.4588 69.4853 53.1628 69.2546 52.783C69.0239 52.4033 68.9007 51.9568 68.9007 51.5C68.9014 50.8879 69.1226 50.3011 69.516 49.8683C69.9094 49.4354 70.4427 49.1917 70.9992 49.1908Z" fill="white" fill-opacity="0.07"/>
<path d="M1.98 34.99H16.59V38.74H6.24V42.28H11.43C13.49 42.28 15.11 42.89 16.29 44.11C17.47 45.33 18.06 46.84 18.06 48.64C18.06 50.44 17.47 51.95 16.29 53.17C15.11 54.39 13.49 55 11.43 55H1.98V34.99ZM10.86 46.03H6.24V51.25H10.86C11.7 51.25 12.38 51.01 12.9 50.53C13.44 50.05 13.71 49.42 13.71 48.64C13.71 47.84 13.44 47.21 12.9 46.75C12.38 46.27 11.7 46.03 10.86 46.03ZM33.4207 55H29.6107V53.5C28.5707 54.74 27.0407 55.36 25.0207 55.36C23.7207 55.36 22.5507 54.94 21.5107 54.1C20.4907 53.24 19.9807 52.06 19.9807 50.56C19.9807 49 20.4807 47.83 21.4807 47.05C22.5007 46.27 23.6807 45.88 25.0207 45.88C27.0807 45.88 28.6107 46.47 29.6107 47.65V45.7C29.6107 44.96 29.3207 44.37 28.7407 43.93C28.1607 43.49 27.3907 43.27 26.4307 43.27C24.8507 43.27 23.4407 43.84 22.2007 44.98L20.7607 42.43C22.4807 40.91 24.5907 40.15 27.0907 40.15C28.9507 40.15 30.4707 40.58 31.6507 41.44C32.8307 42.3 33.4207 43.7 33.4207 45.64V55ZM26.5507 52.78C27.9707 52.78 28.9907 52.36 29.6107 51.52V49.72C28.9907 48.88 27.9707 48.46 26.5507 48.46C25.7707 48.46 25.1207 48.66 24.6007 49.06C24.0807 49.44 23.8207 49.97 23.8207 50.65C23.8207 51.31 24.0807 51.83 24.6007 52.21C25.1207 52.59 25.7707 52.78 26.5507 52.78ZM36.1498 55.36V52.24C36.7498 52.24 37.2298 51.89 37.5898 51.19C37.9498 50.47 38.2398 49.25 38.4598 47.53L39.3898 40.51H51.1198V55H47.3098V43.84H42.7198L42.2398 47.98C41.9398 50.52 41.2998 52.39 40.3198 53.59C39.3598 54.77 37.9698 55.36 36.1498 55.36ZM67.7121 55H63.9021V53.5C62.8621 54.74 61.3321 55.36 59.3121 55.36C58.0121 55.36 56.8421 54.94 55.8021 54.1C54.7821 53.24 54.2721 52.06 54.2721 50.56C54.2721 49 54.7721 47.83 55.7721 47.05C56.7921 46.27 57.9721 45.88 59.3121 45.88C61.3721 45.88 62.9021 46.47 63.9021 47.65V45.7C63.9021 44.96 63.6121 44.37 63.0321 43.93C62.4521 43.49 61.6821 43.27 60.7221 43.27C59.1421 43.27 57.7321 43.84 56.4921 44.98L55.0521 42.43C56.7721 40.91 58.8821 40.15 61.3821 40.15C63.2421 40.15 64.7621 40.58 65.9421 41.44C67.1221 42.3 67.7121 43.7 67.7121 45.64V55ZM60.8421 52.78C62.2621 52.78 63.2821 52.36 63.9021 51.52V49.72C63.2821 48.88 62.2621 48.46 60.8421 48.46C60.0621 48.46 59.4121 48.66 58.8921 49.06C58.3721 49.44 58.1121 49.97 58.1121 50.65C58.1121 51.31 58.3721 51.83 58.8921 52.21C59.4121 52.59 60.0621 52.78 60.8421 52.78ZM75.6012 55H71.7912V40.51H75.6012V45.88H81.6012V40.51H85.4112V55H81.6012V49.21H75.6012V55ZM96.2435 55.36C94.0035 55.36 92.1635 54.65 90.7235 53.23C89.2835 51.81 88.5635 49.98 88.5635 47.74C88.5635 45.52 89.2835 43.7 90.7235 42.28C92.1635 40.86 94.0035 40.15 96.2435 40.15C98.8035 40.15 100.714 41.02 101.974 42.76L99.4835 45.1C98.7835 44.06 97.7635 43.54 96.4235 43.54C95.2635 43.54 94.3135 43.93 93.5735 44.71C92.8535 45.47 92.4935 46.48 92.4935 47.74C92.4935 49 92.8535 50.02 93.5735 50.8C94.3135 51.58 95.2635 51.97 96.4235 51.97C97.7235 51.97 98.7435 51.45 99.4835 50.41L101.974 52.72C100.714 54.48 98.8035 55.36 96.2435 55.36ZM116.4 55H112.74V40.51H116.55V49.27L122.52 40.51H126.36V55H122.55V45.91L116.4 55ZM145.168 55.36C142.928 55.36 141.088 54.65 139.648 53.23C138.208 51.81 137.488 49.98 137.488 47.74C137.488 45.52 138.208 43.7 139.648 42.28C141.088 40.86 142.928 40.15 145.168 40.15C147.728 40.15 149.638 41.02 150.898 42.76L148.408 45.1C147.708 44.06 146.688 43.54 145.348 43.54C144.188 43.54 143.238 43.93 142.498 44.71C141.778 45.47 141.418 46.48 141.418 47.74C141.418 49 141.778 50.02 142.498 50.8C143.238 51.58 144.188 51.97 145.348 51.97C146.648 51.97 147.668 51.45 148.408 50.41L150.898 52.72C149.638 54.48 147.728 55.36 145.168 55.36ZM152.339 58.69V51.82C152.779 51.74 153.119 51.6 153.359 51.4C153.619 51.18 153.859 50.77 154.079 50.17C154.319 49.55 154.509 48.67 154.649 47.53L155.579 40.51H167.309V51.67H168.899V58.69H165.089V55H156.179V58.69H152.339ZM158.909 43.84L158.459 47.77C158.259 49.51 157.699 50.81 156.779 51.67H163.499V43.84H158.909ZM178.406 55.36C176.166 55.36 174.316 54.66 172.856 53.26C171.396 51.86 170.666 50.02 170.666 47.74C170.666 45.6 171.366 43.8 172.766 42.34C174.186 40.88 175.986 40.15 178.166 40.15C180.326 40.15 182.076 40.89 183.416 42.37C184.756 43.83 185.426 45.75 185.426 48.13V48.97H174.656C174.776 49.93 175.206 50.73 175.946 51.37C176.686 52.01 177.646 52.33 178.826 52.33C179.466 52.33 180.156 52.2 180.896 51.94C181.656 51.68 182.256 51.33 182.696 50.89L184.376 53.35C182.916 54.69 180.926 55.36 178.406 55.36ZM181.736 46.39C181.676 45.57 181.346 44.83 180.746 44.17C180.166 43.51 179.306 43.18 178.166 43.18C177.086 43.18 176.246 43.51 175.646 44.17C175.046 44.81 174.696 45.55 174.596 46.39H181.736ZM187.128 55.36V52.24C187.728 52.24 188.208 51.89 188.568 51.19C188.928 50.47 189.218 49.25 189.438 47.53L190.368 40.51H202.098V55H198.288V43.84H193.698L193.218 47.98C192.918 50.52 192.278 52.39 191.298 53.59C190.338 54.77 188.948 55.36 187.128 55.36ZM220.341 55H215.571L211.731 49.42L209.991 51.28V55H206.181V40.51H209.991V46.96L215.481 40.51H220.161L214.431 47.08L220.341 55ZM226.195 55H222.535V40.51H226.345V49.27L232.315 40.51H236.155V55H232.345V45.91L226.195 55Z" fill="white"/>
</svg>
