<svg width="213" height="1216" viewBox="0 0 213 1216" fill="none" xmlns="http://www.w3.org/2000/svg">
<rect width="213" height="1216" fill="#101010"/>
<path d="M26.5919 10C26.9535 10 27.3012 10.1368 27.5793 10.3967C28.1217 10.9303 28.1217 11.8058 27.5793 12.3394L23.3655 16.4983L27.5932 20.6572C28.1356 21.1907 28.1356 22.0663 27.5932 22.5998C27.0508 23.1334 26.1608 23.1334 25.6184 22.5998L20.4033 17.4696C20.1391 17.2097 20 16.8677 20 16.4983C20 16.1289 20.153 15.7869 20.4033 15.527L25.6045 10.3967C25.8827 10.1368 26.2442 10 26.5919 10Z" fill="white"/>
<path d="M47.3955 519.203C47.6581 518.912 48.0199 518.749 48.3975 518.75H48.4693C48.8466 518.749 49.2078 518.913 49.4701 519.203C49.7169 519.475 49.8479 519.844 49.8322 520.223L49.8049 520.896C49.7636 521.666 49.1621 522.264 48.4423 522.25H48.4245C47.7047 522.264 47.1032 521.666 47.0619 520.896L47.0334 520.223C47.0178 519.844 47.1488 519.475 47.3955 519.203ZM47.5281 520.875C47.5597 521.377 47.9551 521.763 48.4245 521.75H48.4423C48.9117 521.763 49.3071 521.377 49.3387 520.875L49.3469 520.671C48.9021 520.65 48.475 520.478 48.127 520.18C47.9835 520.408 47.7669 520.57 47.5185 520.637L47.5281 520.875ZM47.8207 519.693C47.8337 519.587 47.9089 519.501 48.0073 519.48C48.1055 519.458 48.2055 519.507 48.2551 519.6C48.2582 519.605 48.5477 520.096 49.3649 520.171C49.3669 519.94 49.2837 519.716 49.1334 519.55C48.9592 519.358 48.7195 519.249 48.4693 519.25H48.3975C48.1473 519.249 47.9076 519.358 47.7334 519.55C47.5973 519.702 47.5165 519.901 47.5057 520.111C47.6671 520.034 47.7843 519.879 47.8207 519.693Z" fill="white"/>
<path d="M38.2954 525.203C38.558 524.912 38.9198 524.749 39.2974 524.75H39.3692C39.7465 524.749 40.1077 524.913 40.37 525.203C40.6168 525.475 40.7478 525.844 40.7321 526.223L40.7048 526.896C40.6635 527.666 40.062 528.264 39.3422 528.25H39.3244C38.6046 528.264 38.0031 527.666 37.9618 526.896L37.9333 526.223C37.9177 525.844 38.0487 525.475 38.2954 525.203ZM38.4 526.202L38.428 526.875C38.4596 527.377 38.855 527.763 39.3244 527.75H39.3422C39.8116 527.763 40.207 527.377 40.2386 526.875L40.2666 526.201C40.2757 525.959 40.1913 525.724 40.0333 525.55C39.8591 525.358 39.6194 525.249 39.3692 525.25H39.2974C39.0472 525.249 38.8075 525.358 38.6333 525.55C38.4751 525.724 38.3906 525.96 38.4 526.202Z" fill="white"/>
<path d="M43.7919 519.636C44.0423 519.376 44.4396 519.376 44.69 519.636L47.2949 522.427C47.3387 522.474 47.3982 522.5 47.4601 522.5H49.8333C50.4773 522.501 50.9992 523.06 51 523.75V527.25C51 527.664 50.6866 528 50.3 528C50.2205 528 50.1416 527.985 50.0667 527.957V528.25C50.0667 528.388 49.9622 528.5 49.8333 528.5H47.0333C46.9045 528.5 46.8 528.388 46.8 528.25V524.196C46.8 524.133 46.7777 524.072 46.7375 524.026L43.7767 520.614C43.5287 520.34 43.5355 519.901 43.7919 519.636ZM44.11 520.265C44.1108 520.266 44.1116 520.266 44.1125 520.267L47.08 523.686C47.2002 523.825 47.2669 524.007 47.2667 524.196V528H49.6V524.25C49.6 524.112 49.7045 524 49.8333 524C49.9622 524 50.0667 524.112 50.0667 524.25V527.25C50.0667 527.388 50.1711 527.5 50.3 527.5C50.4289 527.5 50.5333 527.388 50.5333 527.25V523.75C50.5333 523.336 50.2199 523 49.8333 523H47.4601C47.2743 523.001 47.096 522.921 46.965 522.78L44.3601 519.989C44.289 519.917 44.1777 519.917 44.1067 519.989C44.0366 520.066 44.0381 520.19 44.11 520.265Z" fill="white"/>
<path d="M48.4334 523.25C48.5623 523.25 48.6667 523.362 48.6667 523.5V526.5C48.6667 526.638 48.5623 526.75 48.4334 526.75C48.3046 526.75 48.2001 526.638 48.2001 526.5V523.5C48.2001 523.362 48.3046 523.25 48.4334 523.25Z" fill="white"/>
<path d="M43.4299 525.203C43.6922 524.913 44.0535 524.749 44.4307 524.75H44.5025C44.8798 524.749 45.241 524.913 45.5033 525.203C45.7501 525.475 45.8811 525.844 45.8654 526.223L45.8381 526.896C45.7968 527.666 45.1953 528.264 44.4755 528.25H44.4577C43.7379 528.264 43.1364 527.666 43.0951 526.896L43.0678 526.223C43.0521 525.844 43.1832 525.475 43.4299 525.203ZM43.5333 526.202L43.5613 526.875C43.5929 527.377 43.9883 527.763 44.4577 527.75H44.4755C44.9449 527.763 45.3403 527.377 45.3719 526.875L45.3999 526.201C45.409 525.959 45.3246 525.724 45.1666 525.55C44.9924 525.358 44.7527 525.249 44.5025 525.25H44.4307C44.1805 525.249 43.9408 525.358 43.7666 525.55C43.6084 525.724 43.5239 525.96 43.5333 526.202Z" fill="white"/>
<path d="M43.2611 528.5H45.6724C46.2949 528.501 46.7994 529.041 46.8 529.708V530.75C46.8 530.888 46.6956 531 46.5667 531C46.4379 531 46.3334 530.888 46.3334 530.75V529.708C46.333 529.317 46.0373 529 45.6724 529H43.2611C42.8962 529 42.6004 529.317 42.6001 529.708V530.75C42.6001 530.888 42.4956 531 42.3667 531C42.2379 531 42.1334 530.888 42.1334 530.75V529.708C42.134 529.041 42.6386 528.501 43.2611 528.5Z" fill="white"/>
<path d="M38.1278 528.5H40.5391C41.1616 528.501 41.6661 529.041 41.6667 529.708V530.75C41.6667 530.888 41.5623 531 41.4334 531C41.3046 531 41.2001 530.888 41.2001 530.75V529.708C41.1997 529.317 40.904 529 40.5391 529H38.1278C37.7629 529 37.4671 529.317 37.4668 529.708V530.75C37.4668 530.888 37.3623 531 37.2334 531C37.1046 531 37.0001 530.888 37.0001 530.75V529.708C37.0007 529.041 37.5053 528.501 38.1278 528.5Z" fill="white"/>
<path d="M37.6883 516H45.8783C46.2615 516.004 46.5693 516.339 46.5666 516.75V520.5C46.5666 520.638 46.4622 520.75 46.3333 520.75C46.2044 520.75 46.1 520.638 46.1 520.5V517.5H37.4667V523.5C37.4637 523.635 37.5628 523.746 37.6883 523.75H45.6508C45.7797 523.75 45.8841 523.862 45.8841 524C45.8841 524.138 45.7797 524.25 45.6508 524.25H37.6883C37.3052 524.246 36.9973 523.911 37 523.5V516.75C36.9973 516.339 37.3052 516.004 37.6883 516ZM37.4667 517H46.1V516.75C46.103 516.615 46.0039 516.504 45.8783 516.5H37.6883C37.5628 516.504 37.4637 516.615 37.4667 516.75V517Z" fill="white"/>
<path d="M38.1666 519.188C38.2954 519.188 38.3999 519.299 38.3999 519.437V523C38.3999 523.138 38.2954 523.25 38.1666 523.25C38.0377 523.25 37.9332 523.138 37.9332 523V519.437C37.9332 519.299 38.0377 519.188 38.1666 519.188Z" fill="white"/>
<path d="M39.0999 520.75C39.2288 520.75 39.3333 520.862 39.3333 521V523C39.3333 523.138 39.2288 523.25 39.0999 523.25C38.9711 523.25 38.8666 523.138 38.8666 523V521C38.8666 520.862 38.9711 520.75 39.0999 520.75Z" fill="white"/>
<path d="M40.0333 520.25C40.1621 520.25 40.2666 520.362 40.2666 520.5V523C40.2666 523.138 40.1621 523.25 40.0333 523.25C39.9044 523.25 39.7999 523.138 39.7999 523V520.5C39.7999 520.362 39.9044 520.25 40.0333 520.25Z" fill="white"/>
<path d="M40.9666 521.75C41.0955 521.75 41.2 521.862 41.2 522V523C41.2 523.138 41.0955 523.25 40.9666 523.25C40.8378 523.25 40.7333 523.138 40.7333 523V522C40.7333 521.862 40.8378 521.75 40.9666 521.75Z" fill="white"/>
<path d="M38.0371 518.042C38.1443 517.965 38.2892 517.996 38.3608 518.111L39.1574 519.391L39.8933 518.8C39.996 518.717 40.1423 518.738 40.2202 518.848C40.2291 518.861 40.2368 518.874 40.2433 518.888L41.1519 520.835L42.04 521.55C42.1431 521.633 42.1639 521.79 42.0866 521.9C42.0093 522.01 41.8631 522.033 41.76 521.95L40.8266 521.2C40.7972 521.177 40.7732 521.147 40.7566 521.112L39.9486 519.38L39.24 519.95C39.1369 520.033 38.9906 520.01 38.9133 519.9C38.9107 519.896 38.9082 519.893 38.9058 519.889L37.9725 518.389C37.901 518.274 37.9299 518.119 38.0371 518.042Z" fill="white"/>
<path d="M42.6 518H45.4C45.5288 518 45.6333 518.112 45.6333 518.25C45.6333 518.388 45.5288 518.5 45.4 518.5H42.6C42.4711 518.5 42.3666 518.388 42.3666 518.25C42.3666 518.112 42.4711 518 42.6 518Z" fill="white"/>
<path d="M41.1999 518H41.6666C41.7954 518 41.8999 518.112 41.8999 518.25C41.8999 518.388 41.7954 518.5 41.6666 518.5H41.1999C41.071 518.5 40.9666 518.388 40.9666 518.25C40.9666 518.112 41.071 518 41.1999 518Z" fill="white"/>
<path d="M190.242 177.074H179.42V176.15H190.242V177.074Z" fill="white"/>
<path d="M190.242 276.074H179.42V275.15H190.242V276.074Z" fill="white"/>
<path d="M190.242 377.074H179.42V376.15H190.242V377.074Z" fill="white"/>
<path d="M190.242 480.074H179.42V479.15H190.242V480.074Z" fill="white"/>
<rect y="202" width="213" height="36" fill="#FBD44B"/>
<path d="M49.5211 316.561H48.2248V315.237C48.2248 315.186 48.2046 315.137 48.1687 315.101C48.1328 315.066 48.0841 315.045 48.0334 315.045H39.967C39.9162 315.045 39.8675 315.066 39.8316 315.101C39.7957 315.137 39.7756 315.186 39.7756 315.237V316.561H39.0625C38.8572 316.561 38.6603 316.643 38.515 316.788C38.3698 316.933 38.2881 317.13 38.2878 317.336V324.055C38.2881 324.294 38.3829 324.522 38.5515 324.691C38.72 324.859 38.9485 324.954 39.1869 324.954H49.521C49.5717 324.954 49.6204 324.934 49.6563 324.898C49.6922 324.863 49.7124 324.814 49.7124 324.763V316.752C49.7124 316.702 49.6922 316.653 49.6564 316.617C49.6205 316.581 49.5718 316.561 49.5211 316.561ZM49.3297 322.551H47.0784C46.792 322.551 46.5174 322.438 46.3148 322.235C46.1123 322.033 45.9986 321.758 45.9986 321.472C45.9986 321.185 46.1123 320.91 46.3148 320.708C46.5174 320.505 46.792 320.392 47.0784 320.392H49.3297V322.551ZM40.1584 315.428H47.842V317.196H47.3955V316.536C47.3955 316.486 47.3753 316.437 47.3394 316.401C47.3035 316.365 47.2549 316.345 47.2041 316.345C47.1029 316.345 47.0057 316.305 46.9341 316.233C46.8625 316.162 46.8222 316.065 46.822 315.964C46.822 315.913 46.8019 315.864 46.766 315.828C46.7301 315.792 46.6814 315.772 46.6306 315.772H41.3692C41.3184 315.772 41.2697 315.792 41.2338 315.828C41.1979 315.864 41.1777 315.913 41.1777 315.964C41.1776 316.065 41.1374 316.162 41.0659 316.233C40.9944 316.305 40.8974 316.345 40.7962 316.345C40.7455 316.345 40.6968 316.365 40.6609 316.401C40.625 316.437 40.6048 316.486 40.6048 316.536V317.196H40.1584V315.428ZM47.0127 317.196H40.9877V316.703C41.1196 316.669 41.24 316.6 41.3365 316.503C41.4329 316.407 41.5019 316.287 41.5364 316.155H46.464C46.4984 316.287 46.5674 316.407 46.6638 316.503C46.7603 316.6 46.8807 316.669 47.0127 316.703V317.196ZM38.6707 317.336C38.6708 317.232 38.7121 317.132 38.7856 317.059C38.859 316.985 38.9586 316.944 39.0625 316.944H39.7756V317.195H39.4247C39.3739 317.195 39.3252 317.216 39.2893 317.251C39.2534 317.287 39.2333 317.336 39.2333 317.387C39.2333 317.438 39.2534 317.486 39.2893 317.522C39.3252 317.558 39.3739 317.578 39.4247 317.578H48.5757C48.6264 317.578 48.6751 317.558 48.711 317.522C48.7469 317.486 48.7671 317.438 48.7671 317.387C48.7671 317.336 48.7469 317.287 48.711 317.251C48.6751 317.216 48.6264 317.195 48.5757 317.195H48.2248V316.944H49.3295V317.83H39.0625C38.9586 317.83 38.859 317.788 38.7856 317.715C38.7121 317.641 38.6708 317.542 38.6707 317.438V317.336V317.336ZM39.1869 324.572C39.05 324.572 38.9188 324.517 38.822 324.42C38.7252 324.324 38.6708 324.192 38.6707 324.056V318.106C38.7893 318.176 38.9246 318.213 39.0625 318.213H49.3296V320.009H47.0784C46.6905 320.009 46.3185 320.163 46.0442 320.437C45.7699 320.712 45.6157 321.084 45.6157 321.472C45.6157 321.86 45.7699 322.232 46.0442 322.506C46.3185 322.78 46.6905 322.934 47.0784 322.934H49.3297V324.572L39.1869 324.572Z" fill="white"/>
<path d="M46.4924 321.479C46.4924 321.609 46.5311 321.737 46.6036 321.846C46.6762 321.954 46.7792 322.039 46.8998 322.089C47.0204 322.139 47.1531 322.152 47.2811 322.126C47.4091 322.101 47.5266 322.038 47.6189 321.946C47.7112 321.853 47.774 321.736 47.7995 321.608C47.8249 321.48 47.8118 321.347 47.7619 321.226C47.7119 321.106 47.6273 321.003 47.5188 320.93C47.4103 320.858 47.2827 320.819 47.1522 320.819C46.9772 320.819 46.8095 320.889 46.6859 321.013C46.5622 321.136 46.4926 321.304 46.4924 321.479ZM47.1522 321.202C47.207 321.202 47.2606 321.218 47.3061 321.249C47.3517 321.279 47.3872 321.322 47.4082 321.373C47.4292 321.423 47.4347 321.479 47.424 321.533C47.4133 321.587 47.387 321.636 47.3482 321.675C47.3095 321.714 47.2601 321.74 47.2064 321.751C47.1526 321.761 47.0969 321.756 47.0463 321.735C46.9957 321.714 46.9524 321.678 46.9219 321.633C46.8915 321.587 46.8752 321.534 46.8752 321.479C46.8753 321.406 46.9045 321.335 46.9564 321.283C47.0084 321.231 47.0787 321.202 47.1522 321.202Z" fill="white"/>
<path d="M70.008 224H68.772L65.736 220.4L64.932 221.312V224H63.936V215.996H64.932V220.136L68.472 215.996H69.72L66.384 219.8L70.008 224ZM70.543 224.144V223.4C70.815 223.4 71.039 223.22 71.215 222.86C71.391 222.5 71.535 221.9 71.647 221.06L72.019 218.204H76.051V224H75.151V218.996H72.811L72.547 221.168C72.419 222.232 72.195 222.996 71.875 223.46C71.555 223.916 71.111 224.144 70.543 224.144ZM78.8321 224H77.9681V218.204H78.8681V222.632L81.9041 218.204H82.7921V224H81.8921V219.488L78.8321 224ZM87.3252 224.144C86.4612 224.144 85.7532 223.864 85.2012 223.304C84.6492 222.736 84.3732 222 84.3732 221.096C84.3732 220.248 84.6452 219.532 85.1892 218.948C85.7332 218.356 86.4132 218.06 87.2292 218.06C88.0852 218.06 88.7612 218.356 89.2572 218.948C89.7612 219.532 90.0132 220.272 90.0132 221.168V221.396H85.3212C85.3612 221.964 85.5692 222.44 85.9452 222.824C86.3212 223.208 86.8092 223.4 87.4092 223.4C88.1292 223.4 88.7252 223.156 89.1972 222.668L89.6292 223.256C89.0372 223.848 88.2692 224.144 87.3252 224.144ZM89.1252 220.736C89.1172 220.24 88.9492 219.796 88.6212 219.404C88.2932 219.004 87.8252 218.804 87.2172 218.804C86.6412 218.804 86.1852 219 85.8492 219.392C85.5212 219.784 85.3452 220.232 85.3212 220.736H89.1252ZM92.4909 224H91.5909V218.204H92.4909V220.616H95.5149V218.204H96.4149V224H95.5149V221.408H92.4909V224ZM100.288 224H99.388V218.996H97.708V218.204H101.98V218.996H100.288V224ZM103.28 218.204H104.18V220.448H106.352C106.928 220.448 107.376 220.62 107.696 220.964C108.016 221.3 108.176 221.72 108.176 222.224C108.176 222.728 108.012 223.152 107.684 223.496C107.364 223.832 106.92 224 106.352 224H103.28V218.204ZM106.256 221.24H104.18V223.208H106.256C106.576 223.208 106.82 223.12 106.988 222.944C107.164 222.76 107.252 222.52 107.252 222.224C107.252 221.928 107.164 221.692 106.988 221.516C106.82 221.332 106.576 221.24 106.256 221.24ZM110.024 224H109.124V218.204H110.024V224ZM116.021 224H115.157V218.204H116.057V222.632L119.093 218.204H119.981V224H119.081V219.488L116.021 224ZM129.936 224H129.036V218.996H126.012V224H125.112V218.204H129.936V224ZM136.377 224H135.477V223.34C134.989 223.876 134.349 224.144 133.557 224.144C133.021 224.144 132.549 223.972 132.141 223.628C131.733 223.284 131.529 222.816 131.529 222.224C131.529 221.616 131.729 221.148 132.129 220.82C132.537 220.484 133.013 220.316 133.557 220.316C134.381 220.316 135.021 220.58 135.477 221.108V220.064C135.477 219.68 135.341 219.38 135.069 219.164C134.797 218.948 134.445 218.84 134.013 218.84C133.333 218.84 132.741 219.108 132.237 219.644L131.817 219.02C132.433 218.38 133.205 218.06 134.133 218.06C134.797 218.06 135.337 218.22 135.753 218.54C136.169 218.86 136.377 219.352 136.377 220.016V224ZM133.881 223.496C134.601 223.496 135.133 223.256 135.477 222.776V221.684C135.133 221.204 134.601 220.964 133.881 220.964C133.465 220.964 133.121 221.084 132.849 221.324C132.585 221.556 132.453 221.86 132.453 222.236C132.453 222.604 132.585 222.908 132.849 223.148C133.121 223.38 133.465 223.496 133.881 223.496ZM141.157 224.144C140.341 224.144 139.689 223.804 139.201 223.124V226.208H138.301V218.204H139.201V219.068C139.417 218.764 139.697 218.52 140.041 218.336C140.385 218.152 140.757 218.06 141.157 218.06C141.925 218.06 142.545 218.336 143.017 218.888C143.497 219.432 143.737 220.168 143.737 221.096C143.737 222.024 143.497 222.764 143.017 223.316C142.545 223.868 141.925 224.144 141.157 224.144ZM140.929 223.34C141.497 223.34 141.949 223.132 142.285 222.716C142.621 222.292 142.789 221.752 142.789 221.096C142.789 220.44 142.621 219.904 142.285 219.488C141.949 219.072 141.497 218.864 140.929 218.864C140.585 218.864 140.249 218.956 139.921 219.14C139.601 219.316 139.361 219.532 139.201 219.788V222.404C139.361 222.668 139.601 222.892 139.921 223.076C140.249 223.252 140.585 223.34 140.929 223.34ZM147.244 224H146.344V218.996H144.664V218.204H148.936V218.996H147.244V224ZM151.136 224H150.236V218.204H151.136V220.616H154.16V218.204H155.06V224H154.16V221.408H151.136V224ZM161.129 216.368C161.241 216.472 161.297 216.6 161.297 216.752C161.297 216.904 161.241 217.036 161.129 217.148C161.017 217.26 160.885 217.316 160.733 217.316C160.581 217.316 160.449 217.26 160.337 217.148C160.225 217.036 160.169 216.904 160.169 216.752C160.169 216.6 160.225 216.472 160.337 216.368C160.449 216.256 160.581 216.2 160.733 216.2C160.885 216.2 161.017 216.256 161.129 216.368ZM158.645 216.368C158.757 216.472 158.813 216.6 158.813 216.752C158.813 216.904 158.757 217.036 158.645 217.148C158.541 217.26 158.413 217.316 158.261 217.316C158.101 217.316 157.965 217.264 157.853 217.16C157.749 217.048 157.697 216.912 157.697 216.752C157.697 216.6 157.753 216.472 157.865 216.368C157.977 216.256 158.109 216.2 158.261 216.2C158.413 216.2 158.541 216.256 158.645 216.368ZM159.593 224.144C158.729 224.144 158.021 223.864 157.469 223.304C156.917 222.736 156.641 222 156.641 221.096C156.641 220.248 156.913 219.532 157.457 218.948C158.001 218.356 158.681 218.06 159.497 218.06C160.353 218.06 161.029 218.356 161.525 218.948C162.029 219.532 162.281 220.272 162.281 221.168V221.396H157.589C157.629 221.964 157.837 222.44 158.213 222.824C158.589 223.208 159.077 223.4 159.677 223.4C160.397 223.4 160.993 223.156 161.465 222.668L161.897 223.256C161.305 223.848 160.537 224.144 159.593 224.144ZM161.393 220.736C161.385 220.24 161.217 219.796 160.889 219.404C160.561 219.004 160.093 218.804 159.485 218.804C158.909 218.804 158.453 219 158.117 219.392C157.789 219.784 157.613 220.232 157.589 220.736H161.393ZM166.715 224.144C165.899 224.144 165.247 223.804 164.759 223.124V226.208H163.859V218.204H164.759V219.068C164.975 218.764 165.255 218.52 165.599 218.336C165.943 218.152 166.315 218.06 166.715 218.06C167.483 218.06 168.103 218.336 168.575 218.888C169.055 219.432 169.295 220.168 169.295 221.096C169.295 222.024 169.055 222.764 168.575 223.316C168.103 223.868 167.483 224.144 166.715 224.144ZM166.487 223.34C167.055 223.34 167.507 223.132 167.843 222.716C168.179 222.292 168.347 221.752 168.347 221.096C168.347 220.44 168.179 219.904 167.843 219.488C167.507 219.072 167.055 218.864 166.487 218.864C166.143 218.864 165.807 218.956 165.479 219.14C165.159 219.316 164.919 219.532 164.759 219.788V222.404C164.919 222.668 165.159 222.892 165.479 223.076C165.807 223.252 166.143 223.34 166.487 223.34ZM170.846 218.204H171.746V220.448H173.918C174.494 220.448 174.942 220.62 175.262 220.964C175.582 221.3 175.742 221.72 175.742 222.224C175.742 222.728 175.578 223.152 175.25 223.496C174.93 223.832 174.486 224 173.918 224H170.846V218.204ZM173.822 221.24H171.746V223.208H173.822C174.142 223.208 174.386 223.12 174.554 222.944C174.73 222.76 174.818 222.52 174.818 222.224C174.818 221.928 174.73 221.692 174.554 221.516C174.386 221.332 174.142 221.24 173.822 221.24ZM177.59 224H176.69V218.204H177.59V224Z" fill="#101010"/>
<path d="M37.584 180.144C36.408 180.144 35.452 179.752 34.716 178.968C33.98 178.184 33.612 177.196 33.612 176.004C33.612 174.812 33.98 173.824 34.716 173.04C35.452 172.256 36.408 171.864 37.584 171.864C38.752 171.864 39.704 172.256 40.44 173.04C41.184 173.824 41.556 174.812 41.556 176.004C41.556 177.196 41.184 178.184 40.44 178.968C39.704 179.752 38.752 180.144 37.584 180.144ZM37.584 179.256C38.464 179.256 39.172 178.952 39.708 178.344C40.252 177.728 40.524 176.948 40.524 176.004C40.524 175.052 40.252 174.272 39.708 173.664C39.172 173.056 38.464 172.752 37.584 172.752C36.696 172.752 35.984 173.056 35.448 173.664C34.912 174.272 34.644 175.052 34.644 176.004C34.644 176.948 34.912 177.728 35.448 178.344C35.984 178.952 36.696 179.256 37.584 179.256ZM48.2958 180H47.1438L45.0558 177.396L44.0958 178.344V180H43.1958V174.204H44.0958V177.288L47.1438 174.204H48.2838L45.7158 176.832L48.2958 180ZM52.3358 180.144C51.5198 180.144 50.8678 179.804 50.3798 179.124V182.208H49.4798V174.204H50.3798V175.068C50.5958 174.764 50.8758 174.52 51.2198 174.336C51.5638 174.152 51.9358 174.06 52.3358 174.06C53.1038 174.06 53.7238 174.336 54.1958 174.888C54.6758 175.432 54.9158 176.168 54.9158 177.096C54.9158 178.024 54.6758 178.764 54.1958 179.316C53.7238 179.868 53.1038 180.144 52.3358 180.144ZM52.1078 179.34C52.6758 179.34 53.1278 179.132 53.4638 178.716C53.7998 178.292 53.9678 177.752 53.9678 177.096C53.9678 176.44 53.7998 175.904 53.4638 175.488C53.1278 175.072 52.6758 174.864 52.1078 174.864C51.7638 174.864 51.4278 174.956 51.0998 175.14C50.7798 175.316 50.5398 175.532 50.3798 175.788V178.404C50.5398 178.668 50.7798 178.892 51.0998 179.076C51.4278 179.252 51.7638 179.34 52.1078 179.34ZM56.143 182.268L56.287 181.452C56.431 181.516 56.595 181.548 56.779 181.548C56.987 181.548 57.159 181.504 57.295 181.416C57.431 181.328 57.547 181.168 57.643 180.936L58.027 180.06L55.603 174.204H56.575L58.507 178.956L60.427 174.204H61.411L58.507 181.176C58.187 181.944 57.619 182.336 56.803 182.352C56.563 182.352 56.343 182.324 56.143 182.268ZM62.8898 180H61.7378L64.3178 176.832L61.7498 174.204H62.8898L65.3858 176.76V174.204H66.2858V176.748L68.7818 174.204H69.9218L67.3418 176.832L69.9338 180H68.7818L66.6938 177.396L66.2858 177.804V180H65.3858V177.804L64.9778 177.396L62.8898 180ZM73.7019 180.144C72.8379 180.144 72.1299 179.864 71.5779 179.304C71.0259 178.736 70.7499 178 70.7499 177.096C70.7499 176.248 71.0219 175.532 71.5659 174.948C72.1099 174.356 72.7899 174.06 73.6059 174.06C74.4619 174.06 75.1379 174.356 75.6339 174.948C76.1379 175.532 76.3899 176.272 76.3899 177.168V177.396H71.6979C71.7379 177.964 71.9459 178.44 72.3219 178.824C72.6979 179.208 73.1859 179.4 73.7859 179.4C74.5059 179.4 75.1019 179.156 75.5739 178.668L76.0059 179.256C75.4139 179.848 74.6459 180.144 73.7019 180.144ZM75.5019 176.736C75.4939 176.24 75.3259 175.796 74.9979 175.404C74.6699 175.004 74.2019 174.804 73.5939 174.804C73.0179 174.804 72.5619 175 72.2259 175.392C71.8979 175.784 71.7219 176.232 71.6979 176.736H75.5019ZM78.8677 180H77.9677V174.204H78.8677V176.616H81.8917V174.204H82.7917V180H81.8917V177.408H78.8677V180ZM85.5728 180H84.7088V174.204H85.6088V178.632L88.6448 174.204H89.5328V180H88.6328V175.488L85.5728 180ZM94.0658 180.144C93.2018 180.144 92.4938 179.864 91.9418 179.304C91.3898 178.736 91.1138 178 91.1138 177.096C91.1138 176.248 91.3858 175.532 91.9298 174.948C92.4738 174.356 93.1538 174.06 93.9698 174.06C94.8258 174.06 95.5018 174.356 95.9978 174.948C96.5018 175.532 96.7538 176.272 96.7538 177.168V177.396H92.0618C92.1018 177.964 92.3098 178.44 92.6858 178.824C93.0618 179.208 93.5498 179.4 94.1498 179.4C94.8698 179.4 95.4658 179.156 95.9378 178.668L96.3698 179.256C95.7778 179.848 95.0098 180.144 94.0658 180.144ZM95.8658 176.736C95.8578 176.24 95.6898 175.796 95.3618 175.404C95.0338 175.004 94.5658 174.804 93.9578 174.804C93.3818 174.804 92.9258 175 92.5898 175.392C92.2618 175.784 92.0858 176.232 92.0618 176.736H95.8658Z" fill="white"/>
<line x1="22" y1="193.5" x2="191" y2="193.5" stroke="#3F3F3F"/>
<path d="M71.772 323H70.776V316.412L68.052 323H67.644L64.932 316.412V323H63.936V314.996H65.364L67.848 321.02L70.344 314.996H71.772V323ZM78.3311 322.268C77.8111 322.852 77.1191 323.144 76.2551 323.144C75.3911 323.144 74.6951 322.852 74.1671 322.268C73.6471 321.684 73.3871 320.96 73.3871 320.096C73.3871 319.232 73.6471 318.512 74.1671 317.936C74.6951 317.352 75.3911 317.06 76.2551 317.06C77.1191 317.06 77.8111 317.352 78.3311 317.936C78.8591 318.512 79.1231 319.232 79.1231 320.096C79.1231 320.96 78.8591 321.684 78.3311 322.268ZM74.8391 321.692C75.1911 322.124 75.6631 322.34 76.2551 322.34C76.8471 322.34 77.3151 322.124 77.6591 321.692C78.0031 321.252 78.1751 320.72 78.1751 320.096C78.1751 319.472 78.0031 318.944 77.6591 318.512C77.3151 318.08 76.8471 317.864 76.2551 317.864C75.6631 317.864 75.1911 318.084 74.8391 318.524C74.4951 318.956 74.3231 319.48 74.3231 320.096C74.3231 320.72 74.4951 321.252 74.8391 321.692ZM81.5743 323H80.7103V317.204H81.6103V321.632L84.6463 317.204H85.5343V323H84.6343V318.488L81.5743 323ZM85.2223 315.488C84.7023 316.192 84.0023 316.544 83.1223 316.544C82.2503 316.544 81.5463 316.192 81.0103 315.488L81.4543 315.104C81.8703 315.68 82.4263 315.968 83.1223 315.968C83.8263 315.968 84.3783 315.68 84.7783 315.104L85.2223 315.488ZM91.7812 321.692C92.1332 322.124 92.6052 322.34 93.1972 322.34C93.7892 322.34 94.2572 322.124 94.6012 321.692C94.9452 321.252 95.1172 320.716 95.1172 320.084C95.1172 319.468 94.9452 318.944 94.6012 318.512C94.2572 318.08 93.7892 317.864 93.1972 317.864C92.6052 317.864 92.1332 318.08 91.7812 318.512C91.4372 318.944 91.2652 319.468 91.2652 320.084C91.2652 320.716 91.4372 321.252 91.7812 321.692ZM93.1972 323.144C92.3252 323.144 91.6292 322.836 91.1092 322.22C90.5892 321.604 90.3292 320.808 90.3292 319.832C90.3292 318.456 90.5772 317.44 91.0732 316.784C91.5692 316.12 92.3332 315.72 93.3652 315.584C93.9812 315.488 94.4052 315.396 94.6372 315.308C94.8772 315.22 94.9972 315.116 94.9972 314.996H95.8732C95.8732 315.22 95.8052 315.416 95.6692 315.584C95.5332 315.744 95.3372 315.872 95.0812 315.968C94.8332 316.064 94.5972 316.14 94.3732 316.196C94.1572 316.244 93.8972 316.288 93.5932 316.328C92.7932 316.44 92.2132 316.66 91.8532 316.988C91.5012 317.316 91.2692 317.752 91.1572 318.296C91.6852 317.472 92.4132 317.06 93.3412 317.06C94.1412 317.06 94.7932 317.352 95.2972 317.936C95.8012 318.52 96.0532 319.236 96.0532 320.084C96.0532 320.948 95.7932 321.676 95.2732 322.268C94.7532 322.852 94.0612 323.144 93.1972 323.144ZM102.235 323H101.335V322.34C100.847 322.876 100.207 323.144 99.4149 323.144C98.8789 323.144 98.4069 322.972 97.9989 322.628C97.5909 322.284 97.3869 321.816 97.3869 321.224C97.3869 320.616 97.5869 320.148 97.9869 319.82C98.3949 319.484 98.8709 319.316 99.4149 319.316C100.239 319.316 100.879 319.58 101.335 320.108V319.064C101.335 318.68 101.199 318.38 100.927 318.164C100.655 317.948 100.303 317.84 99.8709 317.84C99.1909 317.84 98.5989 318.108 98.0949 318.644L97.6749 318.02C98.2909 317.38 99.0629 317.06 99.9909 317.06C100.655 317.06 101.195 317.22 101.611 317.54C102.027 317.86 102.235 318.352 102.235 319.016V323ZM99.7389 322.496C100.459 322.496 100.991 322.256 101.335 321.776V320.684C100.991 320.204 100.459 319.964 99.7389 319.964C99.3229 319.964 98.9789 320.084 98.7069 320.324C98.4429 320.556 98.3109 320.86 98.3109 321.236C98.3109 321.604 98.4429 321.908 98.7069 322.148C98.9789 322.38 99.3229 322.496 99.7389 322.496ZM103.475 323.144V322.4C103.747 322.4 103.971 322.22 104.147 321.86C104.323 321.5 104.467 320.9 104.579 320.06L104.951 317.204H108.983V323H108.083V317.996H105.743L105.479 320.168C105.351 321.232 105.127 321.996 104.807 322.46C104.487 322.916 104.043 323.144 103.475 323.144ZM115.424 323H114.524V322.34C114.036 322.876 113.396 323.144 112.604 323.144C112.068 323.144 111.596 322.972 111.188 322.628C110.78 322.284 110.576 321.816 110.576 321.224C110.576 320.616 110.776 320.148 111.176 319.82C111.584 319.484 112.06 319.316 112.604 319.316C113.428 319.316 114.068 319.58 114.524 320.108V319.064C114.524 318.68 114.388 318.38 114.116 318.164C113.844 317.948 113.492 317.84 113.06 317.84C112.38 317.84 111.788 318.108 111.284 318.644L110.864 318.02C111.48 317.38 112.252 317.06 113.18 317.06C113.844 317.06 114.384 317.22 114.8 317.54C115.216 317.86 115.424 318.352 115.424 319.016V323ZM112.928 322.496C113.648 322.496 114.18 322.256 114.524 321.776V320.684C114.18 320.204 113.648 319.964 112.928 319.964C112.512 319.964 112.168 320.084 111.896 320.324C111.632 320.556 111.5 320.86 111.5 321.236C111.5 321.604 111.632 321.908 111.896 322.148C112.168 322.38 112.512 322.496 112.928 322.496ZM118.248 323H117.348V317.204H118.248V319.616H121.272V317.204H122.172V323H121.272V320.408H118.248V323ZM126.645 323.144C125.789 323.144 125.093 322.856 124.557 322.28C124.021 321.696 123.753 320.968 123.753 320.096C123.753 319.224 124.021 318.5 124.557 317.924C125.093 317.348 125.789 317.06 126.645 317.06C127.541 317.06 128.249 317.396 128.769 318.068L128.169 318.62C127.801 318.116 127.309 317.864 126.693 317.864C126.085 317.864 125.597 318.072 125.229 318.488C124.869 318.904 124.689 319.44 124.689 320.096C124.689 320.752 124.869 321.292 125.229 321.716C125.597 322.132 126.085 322.34 126.693 322.34C127.301 322.34 127.793 322.088 128.169 321.584L128.769 322.136C128.249 322.808 127.541 323.144 126.645 323.144ZM134.229 323H133.365V317.204H134.265V321.632L137.301 317.204H138.189V323H137.289V318.488L134.229 323ZM145.875 323.144C145.019 323.144 144.323 322.856 143.787 322.28C143.251 321.696 142.983 320.968 142.983 320.096C142.983 319.224 143.251 318.5 143.787 317.924C144.323 317.348 145.019 317.06 145.875 317.06C146.771 317.06 147.479 317.396 147.999 318.068L147.399 318.62C147.031 318.116 146.539 317.864 145.923 317.864C145.315 317.864 144.827 318.072 144.459 318.488C144.099 318.904 143.919 319.44 143.919 320.096C143.919 320.752 144.099 321.292 144.459 321.716C144.827 322.132 145.315 322.34 145.923 322.34C146.531 322.34 147.023 322.088 147.399 321.584L147.999 322.136C147.479 322.808 146.771 323.144 145.875 323.144ZM148.697 324.476V322.256C148.993 322.2 149.225 322.024 149.393 321.728C149.561 321.424 149.697 320.868 149.801 320.06L150.173 317.204H154.205V322.208H154.877V324.476H153.977V323H149.597V324.476H148.697ZM150.965 317.996L150.701 320.168C150.565 321.184 150.285 321.864 149.861 322.208H153.305V317.996H150.965ZM158.843 323.144C157.979 323.144 157.271 322.864 156.719 322.304C156.167 321.736 155.891 321 155.891 320.096C155.891 319.248 156.163 318.532 156.707 317.948C157.251 317.356 157.931 317.06 158.747 317.06C159.603 317.06 160.279 317.356 160.775 317.948C161.279 318.532 161.531 319.272 161.531 320.168V320.396H156.839C156.879 320.964 157.087 321.44 157.463 321.824C157.839 322.208 158.327 322.4 158.927 322.4C159.647 322.4 160.243 322.156 160.715 321.668L161.147 322.256C160.555 322.848 159.787 323.144 158.843 323.144ZM160.643 319.736C160.635 319.24 160.467 318.796 160.139 318.404C159.811 318.004 159.343 317.804 158.735 317.804C158.159 317.804 157.703 318 157.367 318.392C157.039 318.784 156.863 319.232 156.839 319.736H160.643ZM162.425 323.144V322.4C162.697 322.4 162.921 322.22 163.097 321.86C163.273 321.5 163.417 320.9 163.529 320.06L163.901 317.204H167.933V323H167.033V317.996H164.693L164.429 320.168C164.301 321.232 164.077 321.996 163.757 322.46C163.437 322.916 162.993 323.144 162.425 323.144ZM174.95 323H173.798L171.71 320.396L170.75 321.344V323H169.85V317.204H170.75V320.288L173.798 317.204H174.938L172.37 319.832L174.95 323ZM176.998 323H176.134V317.204H177.034V321.632L180.07 317.204H180.958V323H180.058V318.488L176.998 323Z" fill="white"/>
<path d="M38.328 279H37.332V278.22C36.18 278.14 35.272 277.812 34.608 277.236C33.944 276.66 33.612 275.916 33.612 275.004C33.612 274.1 33.944 273.36 34.608 272.784C35.272 272.208 36.18 271.88 37.332 271.8V270.996H38.328V271.8C39.472 271.88 40.38 272.212 41.052 272.796C41.724 273.372 42.06 274.108 42.06 275.004C42.06 275.916 41.724 276.66 41.052 277.236C40.388 277.812 39.48 278.14 38.328 278.22V279ZM40.308 276.588C40.788 276.172 41.028 275.644 41.028 275.004C41.028 274.364 40.788 273.836 40.308 273.42C39.828 273.004 39.168 272.76 38.328 272.688V277.32C39.168 277.248 39.828 277.004 40.308 276.588ZM35.352 273.42C34.88 273.836 34.644 274.364 34.644 275.004C34.644 275.644 34.88 276.172 35.352 276.588C35.832 277.004 36.492 277.248 37.332 277.32V272.688C36.492 272.76 35.832 273.004 35.352 273.42ZM44.552 279H43.688V273.204H44.588V277.632L47.624 273.204H48.512V279H47.612V274.488L44.552 279ZM51.3291 279H50.4291V273.204H51.3291V275.616H54.3531V273.204H55.2531V279H54.3531V276.408H51.3291V279ZM61.6942 279H60.7942V278.34C60.3062 278.876 59.6662 279.144 58.8742 279.144C58.3382 279.144 57.8662 278.972 57.4582 278.628C57.0502 278.284 56.8462 277.816 56.8462 277.224C56.8462 276.616 57.0462 276.148 57.4462 275.82C57.8542 275.484 58.3302 275.316 58.8742 275.316C59.6982 275.316 60.3382 275.58 60.7942 276.108V275.064C60.7942 274.68 60.6582 274.38 60.3862 274.164C60.1142 273.948 59.7622 273.84 59.3302 273.84C58.6502 273.84 58.0582 274.108 57.5542 274.644L57.1342 274.02C57.7502 273.38 58.5222 273.06 59.4502 273.06C60.1142 273.06 60.6542 273.22 61.0702 273.54C61.4862 273.86 61.6942 274.352 61.6942 275.016V279ZM59.1982 278.496C59.9182 278.496 60.4502 278.256 60.7942 277.776V276.684C60.4502 276.204 59.9182 275.964 59.1982 275.964C58.7822 275.964 58.4382 276.084 58.1662 276.324C57.9022 276.556 57.7702 276.86 57.7702 277.236C57.7702 277.604 57.9022 277.908 58.1662 278.148C58.4382 278.38 58.7822 278.496 59.1982 278.496ZM64.5183 279H63.6183V273.204H64.5183V275.616H67.5423V273.204H68.4423V279H67.5423V276.408H64.5183V279ZM72.9154 279.144C72.0594 279.144 71.3634 278.856 70.8274 278.28C70.2914 277.696 70.0234 276.968 70.0234 276.096C70.0234 275.224 70.2914 274.5 70.8274 273.924C71.3634 273.348 72.0594 273.06 72.9154 273.06C73.8114 273.06 74.5194 273.396 75.0394 274.068L74.4394 274.62C74.0714 274.116 73.5794 273.864 72.9634 273.864C72.3554 273.864 71.8674 274.072 71.4994 274.488C71.1394 274.904 70.9594 275.44 70.9594 276.096C70.9594 276.752 71.1394 277.292 71.4994 277.716C71.8674 278.132 72.3554 278.34 72.9634 278.34C73.5714 278.34 74.0634 278.088 74.4394 277.584L75.0394 278.136C74.5194 278.808 73.8114 279.144 72.9154 279.144ZM76.4208 273.204H77.3208V275.448H79.4928C80.0688 275.448 80.5168 275.62 80.8368 275.964C81.1568 276.3 81.3168 276.72 81.3168 277.224C81.3168 277.728 81.1528 278.152 80.8248 278.496C80.5048 278.832 80.0608 279 79.4928 279H76.4208V273.204ZM79.3968 276.24H77.3208V278.208H79.3968C79.7168 278.208 79.9608 278.12 80.1288 277.944C80.3048 277.76 80.3928 277.52 80.3928 277.224C80.3928 276.928 80.3048 276.692 80.1288 276.516C79.9608 276.332 79.7168 276.24 79.3968 276.24ZM83.1648 279H82.2648V273.204H83.1648V279Z" fill="white"/>
<line x1="22" y1="292.5" x2="191" y2="292.5" stroke="#3F3F3F"/>
<path d="M63.384 527.144V526.256C63.728 526.256 64.008 526.176 64.224 526.016C64.44 525.856 64.632 525.54 64.8 525.068C64.968 524.588 65.108 523.904 65.22 523.016L65.712 518.996H70.608V527H69.612V519.884H66.6L66.204 523.088C66.1 523.944 65.96 524.648 65.784 525.2C65.616 525.752 65.404 526.168 65.148 526.448C64.9 526.72 64.64 526.904 64.368 527C64.104 527.096 63.776 527.144 63.384 527.144ZM75.179 527.144C74.315 527.144 73.607 526.864 73.055 526.304C72.503 525.736 72.227 525 72.227 524.096C72.227 523.248 72.499 522.532 73.043 521.948C73.587 521.356 74.267 521.06 75.083 521.06C75.939 521.06 76.615 521.356 77.111 521.948C77.615 522.532 77.867 523.272 77.867 524.168V524.396H73.175C73.215 524.964 73.423 525.44 73.799 525.824C74.175 526.208 74.663 526.4 75.263 526.4C75.983 526.4 76.579 526.156 77.051 525.668L77.483 526.256C76.891 526.848 76.123 527.144 75.179 527.144ZM76.979 523.736C76.971 523.24 76.803 522.796 76.475 522.404C76.147 522.004 75.679 521.804 75.071 521.804C74.495 521.804 74.039 522 73.703 522.392C73.375 522.784 73.199 523.232 73.175 523.736H76.979ZM84.5447 527H83.3927L81.3047 524.396L80.3447 525.344V527H79.4447V521.204H80.3447V524.288L83.3927 521.204H84.5327L81.9647 523.832L84.5447 527ZM90.3248 528.476V527H85.7288V521.204H86.6288V526.208H89.6528V521.204H90.5528V526.208H91.2248V528.476H90.3248ZM93.4393 527H92.5753V521.204H93.4753V525.632L96.5113 521.204H97.3993V527H96.4993V522.488L93.4393 527ZM100.18 527H99.3164V521.204H100.216V525.632L103.252 521.204H104.14V527H103.24V522.488L100.18 527ZM110.135 527H109.271V521.204H110.171V525.632L113.207 521.204H114.095V527H113.195V522.488L110.135 527ZM123.834 526.268C123.314 526.852 122.622 527.144 121.758 527.144C120.894 527.144 120.198 526.852 119.67 526.268C119.15 525.684 118.89 524.96 118.89 524.096C118.89 523.232 119.15 522.512 119.67 521.936C120.198 521.352 120.894 521.06 121.758 521.06C122.622 521.06 123.314 521.352 123.834 521.936C124.362 522.512 124.626 523.232 124.626 524.096C124.626 524.96 124.362 525.684 123.834 526.268ZM120.342 525.692C120.694 526.124 121.166 526.34 121.758 526.34C122.35 526.34 122.818 526.124 123.162 525.692C123.506 525.252 123.678 524.72 123.678 524.096C123.678 523.472 123.506 522.944 123.162 522.512C122.818 522.08 122.35 521.864 121.758 521.864C121.166 521.864 120.694 522.084 120.342 522.524C119.998 522.956 119.826 523.48 119.826 524.096C119.826 524.72 119.998 525.252 120.342 525.692ZM127.329 525.692C127.681 526.124 128.153 526.34 128.745 526.34C129.337 526.34 129.805 526.124 130.149 525.692C130.493 525.252 130.665 524.716 130.665 524.084C130.665 523.468 130.493 522.944 130.149 522.512C129.805 522.08 129.337 521.864 128.745 521.864C128.153 521.864 127.681 522.08 127.329 522.512C126.985 522.944 126.813 523.468 126.813 524.084C126.813 524.716 126.985 525.252 127.329 525.692ZM128.745 527.144C127.873 527.144 127.177 526.836 126.657 526.22C126.137 525.604 125.877 524.808 125.877 523.832C125.877 522.456 126.125 521.44 126.621 520.784C127.117 520.12 127.881 519.72 128.913 519.584C129.529 519.488 129.953 519.396 130.185 519.308C130.425 519.22 130.545 519.116 130.545 518.996H131.421C131.421 519.22 131.353 519.416 131.217 519.584C131.081 519.744 130.885 519.872 130.629 519.968C130.381 520.064 130.145 520.14 129.921 520.196C129.705 520.244 129.445 520.288 129.141 520.328C128.341 520.44 127.761 520.66 127.401 520.988C127.049 521.316 126.817 521.752 126.705 522.296C127.233 521.472 127.961 521.06 128.889 521.06C129.689 521.06 130.341 521.352 130.845 521.936C131.349 522.52 131.601 523.236 131.601 524.084C131.601 524.948 131.341 525.676 130.821 526.268C130.301 526.852 129.609 527.144 128.745 527.144ZM132.935 529.268L133.079 528.452C133.223 528.516 133.387 528.548 133.571 528.548C133.779 528.548 133.951 528.504 134.087 528.416C134.223 528.328 134.339 528.168 134.435 527.936L134.819 527.06L132.395 521.204H133.367L135.299 525.956L137.219 521.204H138.203L135.299 528.176C134.979 528.944 134.411 529.336 133.595 529.352C133.355 529.352 133.135 529.324 132.935 529.268ZM139.142 521.204H140.042V522.836C140.042 523.356 140.162 523.716 140.402 523.916C140.642 524.116 141.014 524.216 141.518 524.216C142.142 524.216 142.654 524.112 143.054 523.904V521.204H143.954V527H143.054V524.636C142.542 524.892 141.954 525.02 141.29 525.02C140.538 525.02 139.99 524.868 139.646 524.564C139.31 524.26 139.142 523.776 139.142 523.112V521.204ZM148.49 527.144C147.626 527.144 146.918 526.864 146.366 526.304C145.814 525.736 145.538 525 145.538 524.096C145.538 523.248 145.81 522.532 146.354 521.948C146.898 521.356 147.578 521.06 148.394 521.06C149.25 521.06 149.926 521.356 150.422 521.948C150.926 522.532 151.178 523.272 151.178 524.168V524.396H146.486C146.526 524.964 146.734 525.44 147.11 525.824C147.486 526.208 147.974 526.4 148.574 526.4C149.294 526.4 149.89 526.156 150.362 525.668L150.794 526.256C150.202 526.848 149.434 527.144 148.49 527.144ZM150.29 523.736C150.282 523.24 150.114 522.796 149.786 522.404C149.458 522.004 148.99 521.804 148.382 521.804C147.806 521.804 147.35 522 147.014 522.392C146.686 522.784 146.51 523.232 146.486 523.736H150.29ZM153.656 527H152.756V521.204H153.656V523.616H156.68V521.204H157.58V527H156.68V524.408H153.656V527ZM160.361 527H159.497V521.204H160.397V525.632L163.433 521.204H164.321V527H163.421V522.488L160.361 527ZM168.854 527.144C167.99 527.144 167.282 526.864 166.73 526.304C166.178 525.736 165.902 525 165.902 524.096C165.902 523.248 166.174 522.532 166.718 521.948C167.262 521.356 167.942 521.06 168.758 521.06C169.614 521.06 170.29 521.356 170.786 521.948C171.29 522.532 171.542 523.272 171.542 524.168V524.396H166.85C166.89 524.964 167.098 525.44 167.474 525.824C167.85 526.208 168.338 526.4 168.938 526.4C169.658 526.4 170.254 526.156 170.726 525.668L171.158 526.256C170.566 526.848 169.798 527.144 168.854 527.144ZM170.654 523.736C170.646 523.24 170.478 522.796 170.15 522.404C169.822 522.004 169.354 521.804 168.746 521.804C168.17 521.804 167.714 522 167.378 522.392C167.05 522.784 166.874 523.232 166.85 523.736H170.654Z" fill="white"/>
<path d="M40.608 483H39.612V475.884H34.932V483H33.936V474.996H40.608V483ZM47.171 482.268C46.651 482.852 45.959 483.144 45.095 483.144C44.231 483.144 43.535 482.852 43.007 482.268C42.487 481.684 42.227 480.96 42.227 480.096C42.227 479.232 42.487 478.512 43.007 477.936C43.535 477.352 44.231 477.06 45.095 477.06C45.959 477.06 46.651 477.352 47.171 477.936C47.699 478.512 47.963 479.232 47.963 480.096C47.963 480.96 47.699 481.684 47.171 482.268ZM43.679 481.692C44.031 482.124 44.503 482.34 45.095 482.34C45.687 482.34 46.155 482.124 46.499 481.692C46.843 481.252 47.015 480.72 47.015 480.096C47.015 479.472 46.843 478.944 46.499 478.512C46.155 478.08 45.687 477.864 45.095 477.864C44.503 477.864 44.031 478.084 43.679 478.524C43.335 478.956 43.163 479.48 43.163 480.096C43.163 480.72 43.335 481.252 43.679 481.692ZM48.8662 483.144V482.4C49.1382 482.4 49.3622 482.22 49.5382 481.86C49.7142 481.5 49.8582 480.9 49.9702 480.06L50.3422 477.204H54.3742V483H53.4742V477.996H51.1342L50.8702 480.168C50.7422 481.232 50.5182 481.996 50.1982 482.46C49.8782 482.916 49.4342 483.144 48.8662 483.144ZM58.9073 483.144C58.0433 483.144 57.3353 482.864 56.7833 482.304C56.2313 481.736 55.9553 481 55.9553 480.096C55.9553 479.248 56.2273 478.532 56.7713 477.948C57.3153 477.356 57.9953 477.06 58.8113 477.06C59.6673 477.06 60.3433 477.356 60.8393 477.948C61.3433 478.532 61.5953 479.272 61.5953 480.168V480.396H56.9033C56.9433 480.964 57.1513 481.44 57.5273 481.824C57.9033 482.208 58.3913 482.4 58.9913 482.4C59.7113 482.4 60.3073 482.156 60.7793 481.668L61.2113 482.256C60.6193 482.848 59.8513 483.144 58.9073 483.144ZM60.7073 479.736C60.6993 479.24 60.5313 478.796 60.2033 478.404C59.8753 478.004 59.4073 477.804 58.7993 477.804C58.2233 477.804 57.7673 478 57.4313 478.392C57.1033 478.784 56.9273 479.232 56.9033 479.736H60.7073ZM65.225 483.144C64.113 483.144 63.241 482.828 62.609 482.196L63.053 481.62C63.597 482.14 64.321 482.4 65.225 482.4C65.745 482.4 66.157 482.308 66.461 482.124C66.773 481.94 66.929 481.696 66.929 481.392C66.929 480.752 66.321 480.432 65.105 480.432H63.809V479.7H65.105C65.609 479.7 66.021 479.62 66.341 479.46C66.661 479.292 66.821 479.048 66.821 478.728C66.821 478.456 66.661 478.236 66.341 478.068C66.021 477.892 65.617 477.804 65.129 477.804C64.321 477.804 63.673 478.052 63.185 478.548L62.717 477.996C63.317 477.38 64.109 477.072 65.093 477.072C65.885 477.064 66.525 477.2 67.013 477.48C67.509 477.752 67.757 478.132 67.757 478.62C67.757 479.02 67.593 479.344 67.265 479.592C66.945 479.84 66.589 479.988 66.197 480.036C66.605 480.068 66.985 480.204 67.337 480.444C67.697 480.684 67.877 481.02 67.877 481.452C67.877 481.948 67.637 482.356 67.157 482.676C66.685 482.988 66.041 483.144 65.225 483.144ZM70.357 483H69.457V477.204H70.357V479.616H73.381V477.204H74.281V483H73.381V480.408H70.357V483ZM80.8061 482.268C80.2861 482.852 79.5941 483.144 78.7301 483.144C77.8661 483.144 77.1701 482.852 76.6421 482.268C76.1221 481.684 75.8621 480.96 75.8621 480.096C75.8621 479.232 76.1221 478.512 76.6421 477.936C77.1701 477.352 77.8661 477.06 78.7301 477.06C79.5941 477.06 80.2861 477.352 80.8061 477.936C81.3341 478.512 81.5981 479.232 81.5981 480.096C81.5981 480.96 81.3341 481.684 80.8061 482.268ZM77.3141 481.692C77.6661 482.124 78.1381 482.34 78.7301 482.34C79.3221 482.34 79.7901 482.124 80.1341 481.692C80.4781 481.252 80.6501 480.72 80.6501 480.096C80.6501 479.472 80.4781 478.944 80.1341 478.512C79.7901 478.08 79.3221 477.864 78.7301 477.864C78.1381 477.864 77.6661 478.084 77.3141 478.524C76.9701 478.956 76.7981 479.48 76.7981 480.096C76.7981 480.72 76.9701 481.252 77.3141 481.692ZM85.8013 483.144C84.9373 483.144 84.2293 482.864 83.6773 482.304C83.1253 481.736 82.8493 481 82.8493 480.096C82.8493 479.248 83.1213 478.532 83.6653 477.948C84.2093 477.356 84.8893 477.06 85.7053 477.06C86.5613 477.06 87.2373 477.356 87.7333 477.948C88.2373 478.532 88.4893 479.272 88.4893 480.168V480.396H83.7973C83.8373 480.964 84.0453 481.44 84.4213 481.824C84.7973 482.208 85.2853 482.4 85.8853 482.4C86.6053 482.4 87.2013 482.156 87.6733 481.668L88.1053 482.256C87.5133 482.848 86.7453 483.144 85.8013 483.144ZM87.6013 479.736C87.5933 479.24 87.4253 478.796 87.0973 478.404C86.7693 478.004 86.3013 477.804 85.6933 477.804C85.1173 477.804 84.6613 478 84.3253 478.392C83.9973 478.784 83.8213 479.232 83.7973 479.736H87.6013Z" fill="white"/>
<line x1="22" y1="496.76" x2="191" y2="496.76" stroke="#3F3F3F"/>
<path d="M40.608 380.161H39.612V373.045H34.932V380.161H33.936V372.157H40.608V380.161ZM45.419 380.305C44.603 380.305 43.951 379.965 43.463 379.285V382.369H42.563V374.365H43.463V375.229C43.679 374.925 43.959 374.681 44.303 374.497C44.647 374.313 45.019 374.221 45.419 374.221C46.187 374.221 46.807 374.497 47.279 375.049C47.759 375.593 47.999 376.329 47.999 377.257C47.999 378.185 47.759 378.925 47.279 379.477C46.807 380.029 46.187 380.305 45.419 380.305ZM45.191 379.501C45.759 379.501 46.211 379.293 46.547 378.877C46.883 378.453 47.051 377.913 47.051 377.257C47.051 376.601 46.883 376.065 46.547 375.649C46.211 375.233 45.759 375.025 45.191 375.025C44.847 375.025 44.511 375.117 44.183 375.301C43.863 375.477 43.623 375.693 43.463 375.949V378.565C43.623 378.829 43.863 379.053 44.183 379.237C44.511 379.413 44.847 379.501 45.191 379.501ZM54.1582 379.429C53.6382 380.013 52.9462 380.305 52.0822 380.305C51.2182 380.305 50.5222 380.013 49.9942 379.429C49.4742 378.845 49.2142 378.121 49.2142 377.257C49.2142 376.393 49.4742 375.673 49.9942 375.097C50.5222 374.513 51.2182 374.221 52.0822 374.221C52.9462 374.221 53.6382 374.513 54.1582 375.097C54.6862 375.673 54.9502 376.393 54.9502 377.257C54.9502 378.121 54.6862 378.845 54.1582 379.429ZM50.6662 378.853C51.0182 379.285 51.4902 379.501 52.0822 379.501C52.6742 379.501 53.1422 379.285 53.4862 378.853C53.8302 378.413 54.0022 377.881 54.0022 377.257C54.0022 376.633 53.8302 376.105 53.4862 375.673C53.1422 375.241 52.6742 375.025 52.0822 375.025C51.4902 375.025 51.0182 375.245 50.6662 375.685C50.3222 376.117 50.1502 376.641 50.1502 377.257C50.1502 377.881 50.3222 378.413 50.6662 378.853ZM59.1533 380.305C58.2893 380.305 57.5813 380.025 57.0293 379.465C56.4773 378.897 56.2013 378.161 56.2013 377.257C56.2013 376.409 56.4733 375.693 57.0173 375.109C57.5613 374.517 58.2413 374.221 59.0573 374.221C59.9133 374.221 60.5893 374.517 61.0853 375.109C61.5893 375.693 61.8413 376.433 61.8413 377.329V377.557H57.1493C57.1893 378.125 57.3973 378.601 57.7733 378.985C58.1493 379.369 58.6373 379.561 59.2373 379.561C59.9573 379.561 60.5533 379.317 61.0253 378.829L61.4573 379.417C60.8653 380.009 60.0973 380.305 59.1533 380.305ZM60.9533 376.897C60.9453 376.401 60.7773 375.957 60.4493 375.565C60.1213 375.165 59.6533 374.965 59.0453 374.965C58.4693 374.965 58.0133 375.161 57.6773 375.553C57.3493 375.945 57.1733 376.393 57.1493 376.897H60.9533ZM68.5191 380.161H67.3671L65.2791 377.557L64.3191 378.505V380.161H63.4191V374.365H64.3191V377.449L67.3671 374.365H68.5071L65.9391 376.993L68.5191 380.161ZM71.6591 380.161H70.7591V375.157H69.0791V374.365H73.3511V375.157H71.6591V380.161ZM74.6513 374.365H75.5513V376.609H77.7233C78.2993 376.609 78.7473 376.781 79.0673 377.125C79.3873 377.461 79.5473 377.881 79.5473 378.385C79.5473 378.889 79.3833 379.313 79.0553 379.657C78.7353 379.993 78.2913 380.161 77.7233 380.161H74.6513V374.365ZM77.6273 377.401H75.5513V379.369H77.6273C77.9473 379.369 78.1913 379.281 78.3593 379.105C78.5353 378.921 78.6233 378.681 78.6233 378.385C78.6233 378.089 78.5353 377.853 78.3593 377.677C78.1913 377.493 77.9473 377.401 77.6273 377.401ZM81.3953 380.161H80.4953V374.365H81.3953V380.161Z" fill="white"/>
<line x1="22" y1="393.661" x2="191" y2="393.661" stroke="#3F3F3F"/>
<path d="M71.772 424.161H70.776V417.573L68.052 424.161H67.644L64.932 417.573V424.161H63.936V416.157H65.364L67.848 422.181L70.344 416.157H71.772V424.161ZM78.3311 423.429C77.8111 424.013 77.1191 424.305 76.2551 424.305C75.3911 424.305 74.6951 424.013 74.1671 423.429C73.6471 422.845 73.3871 422.121 73.3871 421.257C73.3871 420.393 73.6471 419.673 74.1671 419.097C74.6951 418.513 75.3911 418.221 76.2551 418.221C77.1191 418.221 77.8111 418.513 78.3311 419.097C78.8591 419.673 79.1231 420.393 79.1231 421.257C79.1231 422.121 78.8591 422.845 78.3311 423.429ZM74.8391 422.853C75.1911 423.285 75.6631 423.501 76.2551 423.501C76.8471 423.501 77.3151 423.285 77.6591 422.853C78.0031 422.413 78.1751 421.881 78.1751 421.257C78.1751 420.633 78.0031 420.105 77.6591 419.673C77.3151 419.241 76.8471 419.025 76.2551 419.025C75.6631 419.025 75.1911 419.245 74.8391 419.685C74.4951 420.117 74.3231 420.641 74.3231 421.257C74.3231 421.881 74.4951 422.413 74.8391 422.853ZM81.5743 424.161H80.5183L82.0663 421.881C81.6263 421.825 81.2663 421.641 80.9863 421.329C80.7143 421.017 80.5783 420.621 80.5783 420.141C80.5783 419.629 80.7423 419.205 81.0703 418.869C81.3983 418.533 81.8463 418.365 82.4143 418.365H85.4743V424.161H84.5743V421.917H82.9903L81.5743 424.161ZM82.5103 421.125H84.5743V419.157H82.5103C82.1983 419.157 81.9503 419.249 81.7663 419.433C81.5903 419.609 81.5023 419.845 81.5023 420.141C81.5023 420.437 81.5903 420.677 81.7663 420.861C81.9423 421.037 82.1903 421.125 82.5103 421.125ZM93.1626 424.305C92.3066 424.305 91.6106 424.017 91.0746 423.441C90.5386 422.857 90.2706 422.129 90.2706 421.257C90.2706 420.385 90.5386 419.661 91.0746 419.085C91.6106 418.509 92.3066 418.221 93.1626 418.221C94.0586 418.221 94.7666 418.557 95.2866 419.229L94.6866 419.781C94.3186 419.277 93.8266 419.025 93.2106 419.025C92.6026 419.025 92.1146 419.233 91.7466 419.649C91.3866 420.065 91.2066 420.601 91.2066 421.257C91.2066 421.913 91.3866 422.453 91.7466 422.877C92.1146 423.293 92.6026 423.501 93.2106 423.501C93.8186 423.501 94.3106 423.249 94.6866 422.745L95.2866 423.297C94.7666 423.969 94.0586 424.305 93.1626 424.305ZM98.624 424.161H97.724V419.157H96.044V418.365H100.316V419.157H98.624V424.161ZM104.472 424.305C103.656 424.305 103.004 423.965 102.516 423.285V426.369H101.616V418.365H102.516V419.229C102.732 418.925 103.012 418.681 103.356 418.497C103.7 418.313 104.072 418.221 104.472 418.221C105.24 418.221 105.86 418.497 106.332 419.049C106.812 419.593 107.052 420.329 107.052 421.257C107.052 422.185 106.812 422.925 106.332 423.477C105.86 424.029 105.24 424.305 104.472 424.305ZM104.244 423.501C104.812 423.501 105.264 423.293 105.6 422.877C105.936 422.453 106.104 421.913 106.104 421.257C106.104 420.601 105.936 420.065 105.6 419.649C105.264 419.233 104.812 419.025 104.244 419.025C103.9 419.025 103.564 419.117 103.236 419.301C102.916 419.477 102.676 419.693 102.516 419.949V422.565C102.676 422.829 102.916 423.053 103.236 423.237C103.564 423.413 103.9 423.501 104.244 423.501ZM108.279 426.429L108.423 425.613C108.567 425.677 108.731 425.709 108.915 425.709C109.123 425.709 109.295 425.665 109.431 425.577C109.567 425.489 109.683 425.329 109.779 425.097L110.163 424.221L107.739 418.365H108.711L110.643 423.117L112.563 418.365H113.547L110.643 425.337C110.323 426.105 109.755 426.497 108.939 426.513C108.699 426.513 108.479 426.485 108.279 426.429ZM119.706 424.161H118.554L116.466 421.557L115.506 422.505V424.161H114.606V418.365H115.506V421.449L118.554 418.365H119.694L117.126 420.993L119.706 424.161ZM122.846 424.161H121.946V419.157H120.266V418.365H124.538V419.157H122.846V424.161ZM125.514 426.429L125.658 425.613C125.802 425.677 125.966 425.709 126.15 425.709C126.358 425.709 126.53 425.665 126.666 425.577C126.802 425.489 126.918 425.329 127.014 425.097L127.398 424.221L124.974 418.365H125.946L127.878 423.117L129.798 418.365H130.782L127.878 425.337C127.558 426.105 126.99 426.497 126.174 426.513C125.934 426.513 125.714 426.485 125.514 426.429ZM134.697 424.305C133.881 424.305 133.229 423.965 132.741 423.285V426.369H131.841V418.365H132.741V419.229C132.957 418.925 133.237 418.681 133.581 418.497C133.925 418.313 134.297 418.221 134.697 418.221C135.465 418.221 136.085 418.497 136.557 419.049C137.037 419.593 137.277 420.329 137.277 421.257C137.277 422.185 137.037 422.925 136.557 423.477C136.085 424.029 135.465 424.305 134.697 424.305ZM134.469 423.501C135.037 423.501 135.489 423.293 135.825 422.877C136.161 422.453 136.329 421.913 136.329 421.257C136.329 420.601 136.161 420.065 135.825 419.649C135.489 419.233 135.037 419.025 134.469 419.025C134.125 419.025 133.789 419.117 133.461 419.301C133.141 419.477 132.901 419.693 132.741 419.949V422.565C132.901 422.829 133.141 423.053 133.461 423.237C133.789 423.413 134.125 423.501 134.469 423.501ZM143.352 424.161H142.452V423.501C141.964 424.037 141.324 424.305 140.532 424.305C139.996 424.305 139.524 424.133 139.116 423.789C138.708 423.445 138.504 422.977 138.504 422.385C138.504 421.777 138.704 421.309 139.104 420.981C139.512 420.645 139.988 420.477 140.532 420.477C141.356 420.477 141.996 420.741 142.452 421.269V420.225C142.452 419.841 142.316 419.541 142.044 419.325C141.772 419.109 141.42 419.001 140.988 419.001C140.308 419.001 139.716 419.269 139.212 419.805L138.792 419.181C139.408 418.541 140.18 418.221 141.108 418.221C141.772 418.221 142.312 418.381 142.728 418.701C143.144 419.021 143.352 419.513 143.352 420.177V424.161ZM140.856 423.657C141.576 423.657 142.108 423.417 142.452 422.937V421.845C142.108 421.365 141.576 421.125 140.856 421.125C140.44 421.125 140.096 421.245 139.824 421.485C139.56 421.717 139.428 422.021 139.428 422.397C139.428 422.765 139.56 423.069 139.824 423.309C140.096 423.541 140.44 423.657 140.856 423.657Z" fill="white"/>
<path d="M43.8676 1170.05L43.5563 1169.27L43.1187 1169.45L43.3435 1170.01L42.0308 1170.52L41.8062 1169.96C41.768 1169.87 41.6717 1169.81 41.5675 1169.82C41.3918 1169.83 41.2111 1169.83 41.0354 1169.82C40.9308 1169.8 40.8348 1169.87 40.7966 1169.96L40.5721 1170.52L39.2594 1170.01L39.484 1169.45C39.5222 1169.35 39.4925 1169.24 39.4108 1169.18C39.2213 1169.03 39.0493 1168.86 38.8996 1168.67C38.8354 1168.59 38.725 1168.56 38.6282 1168.6L38.0605 1168.82L37.5408 1167.52L38.108 1167.3C38.2047 1167.26 38.2648 1167.16 38.2557 1167.06C38.248 1166.97 38.2422 1166.89 38.2422 1166.8C38.2422 1166.71 38.248 1166.62 38.2556 1166.53C38.2646 1166.43 38.2045 1166.33 38.1078 1166.3L37.5406 1166.07L38.0602 1164.77L38.628 1164.99C38.7247 1165.03 38.835 1165 38.8993 1164.92C39.0488 1164.73 39.2208 1164.56 39.4104 1164.41C39.4921 1164.35 39.5218 1164.24 39.4835 1164.15L39.2586 1163.58L40.5713 1163.07L40.7959 1163.63C40.8343 1163.73 40.9331 1163.79 41.0351 1163.78C41.2107 1163.76 41.3909 1163.76 41.5662 1163.78C41.6685 1163.79 41.7671 1163.73 41.8055 1163.63L42.0301 1163.07L42.7959 1163.37L42.9692 1162.93L41.9845 1162.55C41.9264 1162.52 41.8618 1162.53 41.8044 1162.55C41.7472 1162.57 41.7021 1162.62 41.6791 1162.68L41.4313 1163.3C41.3447 1163.3 41.2568 1163.3 41.1701 1163.3L40.9222 1162.68C40.8992 1162.62 40.8542 1162.57 40.7968 1162.55C40.7396 1162.53 40.6746 1162.52 40.6168 1162.55L38.8666 1163.23C38.7458 1163.28 38.6866 1163.42 38.7345 1163.54L38.9831 1164.16C38.862 1164.26 38.7481 1164.38 38.6425 1164.5L38.0145 1164.25C37.8932 1164.2 37.757 1164.26 37.7092 1164.38L37.0165 1166.12C36.9935 1166.18 36.9946 1166.24 37.0194 1166.3C37.0441 1166.35 37.0907 1166.4 37.1488 1166.42L37.7748 1166.67C37.7727 1166.71 37.7716 1166.75 37.7716 1166.8C37.7716 1166.84 37.7727 1166.88 37.7748 1166.93L37.1488 1167.17C37.0907 1167.19 37.0442 1167.24 37.0194 1167.3C36.9947 1167.35 36.9937 1167.42 37.0166 1167.47L37.7097 1169.21C37.7575 1169.33 37.8942 1169.39 38.0151 1169.34L38.6429 1169.09C38.7487 1169.21 38.8627 1169.33 38.9836 1169.43L38.7352 1170.05C38.6874 1170.17 38.7466 1170.31 38.8674 1170.36L40.6178 1171.04C40.6457 1171.06 40.675 1171.06 40.7044 1171.06C40.7362 1171.06 40.768 1171.05 40.7979 1171.04C40.8551 1171.02 40.9003 1170.97 40.9232 1170.91L41.171 1170.29C41.2574 1170.3 41.3454 1170.3 41.432 1170.29L41.68 1170.91C41.7277 1171.03 41.8645 1171.09 41.9854 1171.04L43.7356 1170.36C43.8564 1170.31 43.9155 1170.17 43.8676 1170.05Z" fill="white"/>
<path d="M41.7647 1167.19C41.6308 1167.34 41.4378 1167.43 41.2353 1167.43C40.8461 1167.43 40.5294 1167.12 40.5294 1166.73C40.5294 1166.34 40.8461 1166.03 41.2353 1166.03C41.2951 1166.03 41.3546 1166.04 41.4121 1166.05L41.5291 1165.6C41.4333 1165.58 41.3345 1165.56 41.2353 1165.56C40.5866 1165.56 40.0588 1166.09 40.0588 1166.73C40.0588 1167.37 40.5866 1167.9 41.2353 1167.9C41.5728 1167.9 41.8945 1167.75 42.1177 1167.5L41.7647 1167.19Z" fill="white"/>
<path d="M50.8116 1161.45C50.5272 1160.67 49.9297 1160.03 49.1724 1159.69L47.6858 1159.02C47.6008 1158.98 47.5006 1159 47.4311 1159.06C47.3615 1159.12 47.3358 1159.22 47.3653 1159.31L48.2661 1161.99L47.491 1162.95L46.3439 1162.76L45.2173 1160.08C45.1863 1160 45.1193 1159.95 45.0397 1159.94C44.9601 1159.92 44.8792 1159.95 44.8253 1160.01L44.5024 1160.37C43.3708 1161.61 42.9327 1163.31 43.3113 1164.93L41.8486 1165.55C41.7726 1165.58 41.7192 1165.65 41.7082 1165.74C41.6971 1165.82 41.7298 1165.9 41.7944 1165.95L41.9122 1166.04C43.0562 1166.95 43.8872 1168.16 44.3151 1169.55C44.4575 1170.02 44.5296 1170.53 44.5296 1171.07V1172.77C44.5296 1172.9 44.635 1173 44.7649 1173H47.8239C47.9538 1173 48.0592 1172.9 48.0592 1172.77V1170.45L48.1801 1169.43C48.4026 1167.55 49.1642 1165.8 50.3917 1164.34C51.0119 1163.5 51.1688 1162.42 50.8116 1161.45ZM50.0215 1164.05C48.7442 1165.57 47.9458 1167.41 47.7127 1169.37L47.5901 1170.41C47.5891 1170.42 47.5885 1170.42 47.5885 1170.43V1172.53H47.1179V1169.97H46.6473V1172.53H45.9414V1169.97H45.4708V1172.53H45.0002V1171.07C45.0002 1170.48 44.9211 1169.92 44.7652 1169.42C44.3328 1168.01 43.5143 1166.78 42.3911 1165.83L43.6811 1165.28C43.789 1165.24 43.8463 1165.12 43.8154 1165.01C43.3945 1163.48 43.7822 1161.86 44.8521 1160.68L44.9262 1160.6L45.9595 1163.06C45.9907 1163.13 46.0581 1163.18 46.138 1163.2L46.836 1163.31L44.189 1164.62L44.3995 1165.04L47.6937 1163.41L47.6928 1163.41C47.7228 1163.39 47.7505 1163.37 47.7722 1163.35L48.7134 1162.18C48.7633 1162.12 48.7782 1162.03 48.7529 1161.96L47.9823 1159.67L48.9777 1160.12C49.6206 1160.41 50.1278 1160.95 50.3693 1161.61C50.6726 1162.44 50.5393 1163.35 50.0215 1164.05Z" fill="white"/>
<path d="M47.5764 1167.56L46.8705 1165.46C46.8494 1165.4 46.8029 1165.35 46.7423 1165.32C46.6815 1165.29 46.6124 1165.29 46.5517 1165.32L44.4339 1166.25C44.3232 1166.3 44.268 1166.43 44.3063 1166.54L45.0122 1168.64C45.0332 1168.7 45.0798 1168.75 45.1404 1168.78C45.1707 1168.79 45.203 1168.8 45.2354 1168.8C45.2679 1168.8 45.3006 1168.79 45.331 1168.78L47.4487 1167.85C47.5595 1167.8 47.6146 1167.67 47.5764 1167.56ZM45.3767 1168.25L44.8203 1166.59L44.9106 1166.55L45.7645 1168.08L45.3767 1168.25ZM46.1962 1167.89L45.3423 1166.36L45.589 1166.26L46.5266 1167.74L46.1962 1167.89ZM46.961 1167.55L46.0234 1166.06L46.5059 1165.85L47.0623 1167.51L46.961 1167.55Z" fill="white"/>
<path d="M48.4418 1165.08L47.2654 1165.55L47.4402 1165.98L48.6166 1165.52L48.4418 1165.08Z" fill="white"/>
<path d="M70.7174 1170H69.7214V1166.33H65.0414V1170H64.0454V1162H65.0414V1165.44H69.7214V1162H70.7174V1170ZM77.0763 1170H76.1763V1169.34C75.6883 1169.88 75.0483 1170.14 74.2563 1170.14C73.7203 1170.14 73.2483 1169.97 72.8403 1169.63C72.4323 1169.28 72.2283 1168.82 72.2283 1168.22C72.2283 1167.62 72.4283 1167.15 72.8283 1166.82C73.2363 1166.48 73.7123 1166.32 74.2563 1166.32C75.0803 1166.32 75.7203 1166.58 76.1763 1167.11V1166.06C76.1763 1165.68 76.0403 1165.38 75.7683 1165.16C75.4963 1164.95 75.1443 1164.84 74.7123 1164.84C74.0323 1164.84 73.4403 1165.11 72.9363 1165.64L72.5163 1165.02C73.1323 1164.38 73.9043 1164.06 74.8323 1164.06C75.4963 1164.06 76.0363 1164.22 76.4523 1164.54C76.8683 1164.86 77.0763 1165.35 77.0763 1166.02V1170ZM74.5803 1169.5C75.3003 1169.5 75.8323 1169.26 76.1763 1168.78V1167.68C75.8323 1167.2 75.3003 1166.96 74.5803 1166.96C74.1643 1166.96 73.8203 1167.08 73.5483 1167.32C73.2843 1167.56 73.1523 1167.86 73.1523 1168.24C73.1523 1168.6 73.2843 1168.91 73.5483 1169.15C73.8203 1169.38 74.1643 1169.5 74.5803 1169.5ZM81.4365 1170.14C80.5805 1170.14 79.8845 1169.86 79.3485 1169.28C78.8125 1168.7 78.5445 1167.97 78.5445 1167.1C78.5445 1166.22 78.8125 1165.5 79.3485 1164.92C79.8845 1164.35 80.5805 1164.06 81.4365 1164.06C82.3325 1164.06 83.0405 1164.4 83.5605 1165.07L82.9605 1165.62C82.5925 1165.12 82.1005 1164.86 81.4845 1164.86C80.8765 1164.86 80.3885 1165.07 80.0205 1165.49C79.6605 1165.9 79.4805 1166.44 79.4805 1167.1C79.4805 1167.75 79.6605 1168.29 80.0205 1168.72C80.3885 1169.13 80.8765 1169.34 81.4845 1169.34C82.0925 1169.34 82.5845 1169.09 82.9605 1168.58L83.5605 1169.14C83.0405 1169.81 82.3325 1170.14 81.4365 1170.14ZM86.7779 1170H85.8779V1165H84.1979V1164.2H88.4699V1165H86.7779V1170ZM92.506 1170.14C91.69 1170.14 91.038 1169.8 90.55 1169.12V1172.21H89.65V1164.2H90.55V1165.07C90.766 1164.76 91.046 1164.52 91.39 1164.34C91.734 1164.15 92.106 1164.06 92.506 1164.06C93.274 1164.06 93.894 1164.34 94.366 1164.89C94.846 1165.43 95.086 1166.17 95.086 1167.1C95.086 1168.02 94.846 1168.76 94.366 1169.32C93.894 1169.87 93.274 1170.14 92.506 1170.14ZM92.278 1169.34C92.846 1169.34 93.298 1169.13 93.634 1168.72C93.97 1168.29 94.138 1167.75 94.138 1167.1C94.138 1166.44 93.97 1165.9 93.634 1165.49C93.298 1165.07 92.846 1164.86 92.278 1164.86C91.934 1164.86 91.598 1164.96 91.27 1165.14C90.95 1165.32 90.71 1165.53 90.55 1165.79V1168.4C90.71 1168.67 90.95 1168.89 91.27 1169.08C91.598 1169.25 91.934 1169.34 92.278 1169.34ZM101.125 1169.27C100.605 1169.85 99.9132 1170.14 99.0492 1170.14C98.1852 1170.14 97.4892 1169.85 96.9612 1169.27C96.4412 1168.68 96.1812 1167.96 96.1812 1167.1C96.1812 1166.23 96.4412 1165.51 96.9612 1164.94C97.4892 1164.35 98.1852 1164.06 99.0492 1164.06C99.9132 1164.06 100.605 1164.35 101.125 1164.94C101.653 1165.51 101.917 1166.23 101.917 1167.1C101.917 1167.96 101.653 1168.68 101.125 1169.27ZM97.6332 1168.69C97.9852 1169.12 98.4572 1169.34 99.0492 1169.34C99.6412 1169.34 100.109 1169.12 100.453 1168.69C100.797 1168.25 100.969 1167.72 100.969 1167.1C100.969 1166.47 100.797 1165.94 100.453 1165.51C100.109 1165.08 99.6412 1164.86 99.0492 1164.86C98.4572 1164.86 97.9852 1165.08 97.6332 1165.52C97.2892 1165.96 97.1172 1166.48 97.1172 1167.1C97.1172 1167.72 97.2892 1168.25 97.6332 1168.69ZM104.248 1170H103.384V1164.2H104.284V1168.63L107.32 1164.2H108.208V1170H107.308V1165.49L104.248 1170ZM107.896 1162.49C107.376 1163.19 106.676 1163.54 105.796 1163.54C104.924 1163.54 104.22 1163.19 103.684 1162.49L104.128 1162.1C104.544 1162.68 105.1 1162.97 105.796 1162.97C106.5 1162.97 107.052 1162.68 107.452 1162.1L107.896 1162.49ZM115.105 1170H113.953L111.865 1167.4L110.905 1168.34V1170H110.005V1164.2H110.905V1167.29L113.953 1164.2H115.093L112.525 1166.83L115.105 1170ZM117.034 1170H116.17V1164.2H117.07V1168.63L120.106 1164.2H120.994V1170H120.094V1165.49L117.034 1170Z" fill="white"/>
<path d="M63.384 52.476V50.196C63.736 50.172 64.016 50.088 64.224 49.944C64.432 49.8 64.62 49.496 64.788 49.032C64.964 48.568 65.108 47.896 65.22 47.016L65.712 42.996H70.608V50.112H71.34V52.476H70.344V51H64.38V52.476H63.384ZM66.204 47.088C66.02 48.632 65.612 49.64 64.98 50.112H69.612V43.884H66.6L66.204 47.088ZM77.2999 50.268C76.7799 50.852 76.0879 51.144 75.2239 51.144C74.3599 51.144 73.6639 50.852 73.1359 50.268C72.6159 49.684 72.3559 48.96 72.3559 48.096C72.3559 47.232 72.6159 46.512 73.1359 45.936C73.6639 45.352 74.3599 45.06 75.2239 45.06C76.0879 45.06 76.7799 45.352 77.2999 45.936C77.8279 46.512 78.0919 47.232 78.0919 48.096C78.0919 48.96 77.8279 49.684 77.2999 50.268ZM73.8079 49.692C74.1599 50.124 74.6319 50.34 75.2239 50.34C75.8159 50.34 76.2839 50.124 76.6279 49.692C76.9719 49.252 77.1439 48.72 77.1439 48.096C77.1439 47.472 76.9719 46.944 76.6279 46.512C76.2839 46.08 75.8159 45.864 75.2239 45.864C74.6319 45.864 74.1599 46.084 73.8079 46.524C73.4639 46.956 73.2919 47.48 73.2919 48.096C73.2919 48.72 73.4639 49.252 73.8079 49.692ZM85.5951 51H84.6951V46.452L82.8111 51H82.4751L80.5791 46.452V51H79.6791V45.204H80.8671L82.6431 49.5L84.3951 45.204H85.5951V51ZM92.034 51H91.134V50.34C90.646 50.876 90.006 51.144 89.214 51.144C88.678 51.144 88.206 50.972 87.798 50.628C87.39 50.284 87.186 49.816 87.186 49.224C87.186 48.616 87.386 48.148 87.786 47.82C88.194 47.484 88.67 47.316 89.214 47.316C90.038 47.316 90.678 47.58 91.134 48.108V47.064C91.134 46.68 90.998 46.38 90.726 46.164C90.454 45.948 90.102 45.84 89.67 45.84C88.99 45.84 88.398 46.108 87.894 46.644L87.474 46.02C88.09 45.38 88.862 45.06 89.79 45.06C90.454 45.06 90.994 45.22 91.41 45.54C91.826 45.86 92.034 46.352 92.034 47.016V51ZM89.538 50.496C90.258 50.496 90.79 50.256 91.134 49.776V48.684C90.79 48.204 90.258 47.964 89.538 47.964C89.122 47.964 88.778 48.084 88.506 48.324C88.242 48.556 88.11 48.86 88.11 49.236C88.11 49.604 88.242 49.908 88.506 50.148C88.778 50.38 89.122 50.496 89.538 50.496ZM100.654 45.204H101.554V51H93.9581V45.204H94.8581V50.208H97.3061V45.204H98.2061V50.208H100.654V45.204ZM104.377 51H103.477V45.204H104.377V47.616H107.401V45.204H108.301V51H107.401V48.408H104.377V51ZM111.082 51H110.026L111.574 48.72C111.134 48.664 110.774 48.48 110.494 48.168C110.222 47.856 110.086 47.46 110.086 46.98C110.086 46.468 110.25 46.044 110.578 45.708C110.906 45.372 111.354 45.204 111.922 45.204H114.982V51H114.082V48.756H112.498L111.082 51ZM112.018 47.964H114.082V45.996H112.018C111.706 45.996 111.458 46.088 111.274 46.272C111.098 46.448 111.01 46.684 111.01 46.98C111.01 47.276 111.098 47.516 111.274 47.7C111.45 47.876 111.698 47.964 112.018 47.964ZM117.764 51H116.708L118.256 48.72C117.816 48.664 117.456 48.48 117.176 48.168C116.904 47.856 116.768 47.46 116.768 46.98C116.768 46.468 116.932 46.044 117.26 45.708C117.588 45.372 118.036 45.204 118.604 45.204H121.664V51H120.764V48.756H119.18L117.764 51ZM118.7 47.964H120.764V45.996H118.7C118.388 45.996 118.14 46.088 117.956 46.272C117.78 46.448 117.692 46.684 117.692 46.98C117.692 47.276 117.78 47.516 117.956 47.7C118.132 47.876 118.38 47.964 118.7 47.964ZM129.352 51.144C128.496 51.144 127.8 50.856 127.264 50.28C126.728 49.696 126.46 48.968 126.46 48.096C126.46 47.224 126.728 46.5 127.264 45.924C127.8 45.348 128.496 45.06 129.352 45.06C130.248 45.06 130.956 45.396 131.476 46.068L130.876 46.62C130.508 46.116 130.016 45.864 129.4 45.864C128.792 45.864 128.304 46.072 127.936 46.488C127.576 46.904 127.396 47.44 127.396 48.096C127.396 48.752 127.576 49.292 127.936 49.716C128.304 50.132 128.792 50.34 129.4 50.34C130.008 50.34 130.5 50.088 130.876 49.584L131.476 50.136C130.956 50.808 130.248 51.144 129.352 51.144ZM134.814 51H133.914V45.996H132.234V45.204H136.506V45.996H134.814V51ZM140.662 51.144C139.846 51.144 139.194 50.804 138.706 50.124V53.208H137.806V45.204H138.706V46.068C138.922 45.764 139.202 45.52 139.546 45.336C139.89 45.152 140.262 45.06 140.662 45.06C141.43 45.06 142.05 45.336 142.522 45.888C143.002 46.432 143.242 47.168 143.242 48.096C143.242 49.024 143.002 49.764 142.522 50.316C142.05 50.868 141.43 51.144 140.662 51.144ZM140.434 50.34C141.002 50.34 141.454 50.132 141.79 49.716C142.126 49.292 142.294 48.752 142.294 48.096C142.294 47.44 142.126 46.904 141.79 46.488C141.454 46.072 141.002 45.864 140.434 45.864C140.09 45.864 139.754 45.956 139.426 46.14C139.106 46.316 138.866 46.532 138.706 46.788V49.404C138.866 49.668 139.106 49.892 139.426 50.076C139.754 50.252 140.09 50.34 140.434 50.34ZM149.317 51H148.417V50.34C147.929 50.876 147.289 51.144 146.497 51.144C145.961 51.144 145.489 50.972 145.081 50.628C144.673 50.284 144.469 49.816 144.469 49.224C144.469 48.616 144.669 48.148 145.069 47.82C145.477 47.484 145.953 47.316 146.497 47.316C147.321 47.316 147.961 47.58 148.417 48.108V47.064C148.417 46.68 148.281 46.38 148.009 46.164C147.737 45.948 147.385 45.84 146.953 45.84C146.273 45.84 145.681 46.108 145.177 46.644L144.757 46.02C145.373 45.38 146.145 45.06 147.073 45.06C147.737 45.06 148.277 45.22 148.693 45.54C149.109 45.86 149.317 46.352 149.317 47.016V51ZM146.821 50.496C147.541 50.496 148.073 50.256 148.417 49.776V48.684C148.073 48.204 147.541 47.964 146.821 47.964C146.405 47.964 146.061 48.084 145.789 48.324C145.525 48.556 145.393 48.86 145.393 49.236C145.393 49.604 145.525 49.908 145.789 50.148C146.061 50.38 146.405 50.496 146.821 50.496ZM152.141 51H151.241V45.204H152.141V47.616H155.165V45.204H156.065V51H155.165V48.408H152.141V51ZM158.846 51H157.982V45.204H158.882V49.632L161.918 45.204H162.806V51H161.906V46.488L158.846 51ZM169.319 52.476V51H164.723V45.204H165.623V50.208H168.647V45.204H169.547V50.208H170.219V52.476H169.319ZM176.094 51H175.194V50.34C174.706 50.876 174.066 51.144 173.274 51.144C172.738 51.144 172.266 50.972 171.858 50.628C171.45 50.284 171.246 49.816 171.246 49.224C171.246 48.616 171.446 48.148 171.846 47.82C172.254 47.484 172.73 47.316 173.274 47.316C174.098 47.316 174.738 47.58 175.194 48.108V47.064C175.194 46.68 175.058 46.38 174.786 46.164C174.514 45.948 174.162 45.84 173.73 45.84C173.05 45.84 172.458 46.108 171.954 46.644L171.534 46.02C172.15 45.38 172.922 45.06 173.85 45.06C174.514 45.06 175.054 45.22 175.47 45.54C175.886 45.86 176.094 46.352 176.094 47.016V51ZM173.598 50.496C174.318 50.496 174.85 50.256 175.194 49.776V48.684C174.85 48.204 174.318 47.964 173.598 47.964C173.182 47.964 172.838 48.084 172.566 48.324C172.302 48.556 172.17 48.86 172.17 49.236C172.17 49.604 172.302 49.908 172.566 50.148C172.838 50.38 173.182 50.496 173.598 50.496Z" fill="white"/>
<path d="M50.148 44.6693C50.1903 44.7026 50.2418 44.7198 50.2937 44.7198C50.3287 44.7198 50.3638 44.712 50.3964 44.6962C50.4775 44.6568 50.529 44.5746 50.529 44.4844V43.2292C50.529 43.1571 50.496 43.089 50.4393 43.0443L46.6079 40.0256C46.3391 39.8139 45.9638 39.8139 45.6951 40.0256L44.253 41.1618V40.7188C44.253 40.5888 44.1476 40.4834 44.0176 40.4834H43.0135C42.8835 40.4834 42.7781 40.5888 42.7781 40.7188V42.3239L41.8636 43.0443C41.807 43.089 41.774 43.1571 41.774 43.2292V44.4844C41.774 44.5746 41.8255 44.6568 41.9066 44.6962C41.9877 44.7355 42.0842 44.7251 42.155 44.6693L42.276 44.5739V46.8674L40.0808 45.1378C39.8121 44.9261 39.4367 44.9261 39.168 45.1378L36.0897 47.5631C36.033 47.6077 36 47.6758 36 47.748V49.0032C36 49.0933 36.0515 49.1756 36.1326 49.2149C36.1652 49.2308 36.2004 49.2385 36.2353 49.2385C36.2872 49.2385 36.3387 49.2214 36.381 49.188L36.5021 49.0926V51.5293H36.2354C36.1054 51.5293 36 51.6346 36 51.7646C36 51.8946 36.1054 52 36.2354 52H50.2937C50.4237 52 50.529 51.8946 50.529 51.7646C50.529 51.6346 50.4237 51.5293 50.2937 51.5293H50.027V44.5739L50.148 44.6693ZM43.2488 40.9541H43.7823V41.5327L43.2488 41.953V40.9541ZM42.2447 43.3434L45.9864 40.3954C46.0836 40.3188 46.2194 40.3188 46.3166 40.3954L50.0583 43.3434V43.9993L46.2972 41.036C46.2545 41.0023 46.203 40.9855 46.1515 40.9855C46.1 40.9855 46.0486 41.0023 46.0058 41.036L42.2447 43.9993V43.3434ZM36.4707 47.8621L39.4594 45.5075C39.5565 45.4309 39.6923 45.4309 39.7895 45.5075L42.276 47.4666V48.1225L39.7701 46.1481C39.6846 46.0808 39.5642 46.0808 39.4788 46.1481L36.4707 48.5181V47.8621ZM36.9728 48.7218L39.6244 46.6326L42.276 48.7218V51.5293H41.2405V48.7522C41.2405 48.6222 41.1351 48.5168 41.0051 48.5168H38.2437C38.1137 48.5168 38.0083 48.6222 38.0083 48.7522V51.5293H36.9728V48.7218ZM38.479 49.9916H40.7698V50.5251H38.479V49.9916ZM40.7698 49.5209H38.479V48.9875H40.7698V49.5209ZM38.479 50.9958H40.7698V51.5293H38.479V50.9958ZM45.2885 49.7728C45.2833 49.7724 45.2781 49.772 45.2729 49.772C45.211 49.772 45.1502 49.7971 45.1065 49.841C45.0626 49.8846 45.0375 49.9455 45.0375 50.0073C45.0375 50.0691 45.0626 50.13 45.1065 50.1736C45.1502 50.2176 45.211 50.2427 45.2729 50.2427C45.2781 50.2427 45.2833 50.2422 45.2885 50.2419V51.5293H44.253V48.4854H45.2885V49.7728ZM49.5562 51.5293H45.7592V48.25C45.7592 48.1201 45.6539 48.0147 45.5239 48.0147H44.0176C43.8877 48.0147 43.7823 48.1201 43.7823 48.25V51.5293H42.7467V44.203L46.1515 41.5205L49.5562 44.203V51.5293Z" fill="white"/>
<path d="M46.7791 50.4937H48.2853C48.4153 50.4937 48.5207 50.3884 48.5207 50.2584V48.25C48.5207 48.1201 48.4153 48.0147 48.2853 48.0147H46.7791C46.6491 48.0147 46.5437 48.1201 46.5437 48.25V50.2584C46.5437 50.3884 46.6491 50.4937 46.7791 50.4937ZM47.0144 50.023V49.2385H48.05V50.023H47.0144ZM48.05 48.4854V48.7678H47.0144V48.4854H48.05Z" fill="white"/>
<path d="M46.7791 46.9791H48.2853C48.4153 46.9791 48.5207 46.8738 48.5207 46.7438V44.7355C48.5207 44.6055 48.4153 44.5001 48.2853 44.5001H46.7791C46.6491 44.5001 46.5437 44.6055 46.5437 44.7355V46.7438C46.5437 46.8738 46.6491 46.9791 46.7791 46.9791ZM47.0144 46.5084V45.7239H48.05V46.5084H47.0144ZM48.05 44.9708V45.2532H47.0144V44.9708H48.05Z" fill="white"/>
<path d="M45.5238 44.5001H44.0176C43.8876 44.5001 43.7822 44.6055 43.7822 44.7355V46.7438C43.7822 46.8738 43.8876 46.9791 44.0176 46.9791H45.5238C45.6538 46.9791 45.7592 46.8738 45.7592 46.7438V44.7355C45.7592 44.6055 45.6538 44.5001 45.5238 44.5001ZM45.2885 44.9708V45.2532H44.2529V44.9708H45.2885ZM44.2529 46.5084V45.7239H45.2885V46.5084H44.2529Z" fill="white"/>
<path d="M67.584 88H63.936V79.996H67.5C68.188 79.996 68.732 80.184 69.132 80.56C69.54 80.936 69.744 81.428 69.744 82.036C69.744 82.516 69.608 82.924 69.336 83.26C69.064 83.588 68.732 83.792 68.34 83.872C68.764 83.936 69.128 84.16 69.432 84.544C69.744 84.928 69.9 85.36 69.9 85.84C69.9 86.488 69.692 87.012 69.276 87.412C68.868 87.804 68.304 88 67.584 88ZM67.332 83.464C67.772 83.464 68.112 83.344 68.352 83.104C68.592 82.864 68.712 82.556 68.712 82.18C68.712 81.804 68.588 81.496 68.34 81.256C68.1 81.008 67.764 80.884 67.332 80.884H64.932V83.464H67.332ZM67.38 87.112C67.844 87.112 68.208 86.988 68.472 86.74C68.736 86.492 68.868 86.156 68.868 85.732C68.868 85.34 68.736 85.012 68.472 84.748C68.216 84.484 67.852 84.352 67.38 84.352H64.932V87.112H67.38ZM76.0909 88H75.1909V87.34C74.7029 87.876 74.0629 88.144 73.2709 88.144C72.7349 88.144 72.2629 87.972 71.8549 87.628C71.4469 87.284 71.2429 86.816 71.2429 86.224C71.2429 85.616 71.4429 85.148 71.8429 84.82C72.2509 84.484 72.7269 84.316 73.2709 84.316C74.0949 84.316 74.7349 84.58 75.1909 85.108V84.064C75.1909 83.68 75.0549 83.38 74.7829 83.164C74.5109 82.948 74.1589 82.84 73.7269 82.84C73.0469 82.84 72.4549 83.108 71.9509 83.644L71.5309 83.02C72.1469 82.38 72.9189 82.06 73.8469 82.06C74.5109 82.06 75.0509 82.22 75.4669 82.54C75.8829 82.86 76.0909 83.352 76.0909 84.016V88ZM73.5949 87.496C74.3149 87.496 74.8469 87.256 75.1909 86.776V85.684C74.8469 85.204 74.3149 84.964 73.5949 84.964C73.1789 84.964 72.8349 85.084 72.5629 85.324C72.2989 85.556 72.1669 85.86 72.1669 86.236C72.1669 86.604 72.2989 86.908 72.5629 87.148C72.8349 87.38 73.1789 87.496 73.5949 87.496ZM84.711 82.204H85.611V88H78.015V82.204H78.915V87.208H81.363V82.204H82.263V87.208H84.711V82.204ZM88.3974 88H87.5334V82.204H88.4334V86.632L91.4694 82.204H92.3574V88H91.4574V83.488L88.3974 88ZM102.012 88H101.112V87.34C100.624 87.876 99.9843 88.144 99.1923 88.144C98.6563 88.144 98.1843 87.972 97.7763 87.628C97.3683 87.284 97.1643 86.816 97.1643 86.224C97.1643 85.616 97.3643 85.148 97.7643 84.82C98.1723 84.484 98.6483 84.316 99.1923 84.316C100.016 84.316 100.656 84.58 101.112 85.108V84.064C101.112 83.68 100.976 83.38 100.704 83.164C100.432 82.948 100.08 82.84 99.6483 82.84C98.9683 82.84 98.3763 83.108 97.8723 83.644L97.4523 83.02C98.0683 82.38 98.8403 82.06 99.7683 82.06C100.432 82.06 100.972 82.22 101.388 82.54C101.804 82.86 102.012 83.352 102.012 84.016V88ZM99.5163 87.496C100.236 87.496 100.768 87.256 101.112 86.776V85.684C100.768 85.204 100.236 84.964 99.5163 84.964C99.1003 84.964 98.7563 85.084 98.4843 85.324C98.2203 85.556 98.0883 85.86 98.0883 86.236C98.0883 86.604 98.2203 86.908 98.4843 87.148C98.7563 87.38 99.1003 87.496 99.5163 87.496ZM109.036 88H107.884L105.796 85.396L104.836 86.344V88H103.936V82.204H104.836V85.288L107.884 82.204H109.024L106.456 84.832L109.036 88ZM114.816 89.476V88H110.22V82.204H111.12V87.208H114.144V82.204H115.044V87.208H115.716V89.476H114.816ZM117.931 88H117.067V82.204H117.967V86.632L121.003 82.204H121.891V88H120.991V83.488L117.931 88ZM124.672 88H123.808V82.204H124.708V86.632L127.744 82.204H128.632V88H127.732V83.488L124.672 88Z" fill="white"/>
<path d="M67.584 125H63.936V116.996H67.5C68.188 116.996 68.732 117.184 69.132 117.56C69.54 117.936 69.744 118.428 69.744 119.036C69.744 119.516 69.608 119.924 69.336 120.26C69.064 120.588 68.732 120.792 68.34 120.872C68.764 120.936 69.128 121.16 69.432 121.544C69.744 121.928 69.9 122.36 69.9 122.84C69.9 123.488 69.692 124.012 69.276 124.412C68.868 124.804 68.304 125 67.584 125ZM67.332 120.464C67.772 120.464 68.112 120.344 68.352 120.104C68.592 119.864 68.712 119.556 68.712 119.18C68.712 118.804 68.588 118.496 68.34 118.256C68.1 118.008 67.764 117.884 67.332 117.884H64.932V120.464H67.332ZM67.38 124.112C67.844 124.112 68.208 123.988 68.472 123.74C68.736 123.492 68.868 123.156 68.868 122.732C68.868 122.34 68.736 122.012 68.472 121.748C68.216 121.484 67.852 121.352 67.38 121.352H64.932V124.112H67.38ZM76.0909 125H75.1909V124.34C74.7029 124.876 74.0629 125.144 73.2709 125.144C72.7349 125.144 72.2629 124.972 71.8549 124.628C71.4469 124.284 71.2429 123.816 71.2429 123.224C71.2429 122.616 71.4429 122.148 71.8429 121.82C72.2509 121.484 72.7269 121.316 73.2709 121.316C74.0949 121.316 74.7349 121.58 75.1909 122.108V121.064C75.1909 120.68 75.0549 120.38 74.7829 120.164C74.5109 119.948 74.1589 119.84 73.7269 119.84C73.0469 119.84 72.4549 120.108 71.9509 120.644L71.5309 120.02C72.1469 119.38 72.9189 119.06 73.8469 119.06C74.5109 119.06 75.0509 119.22 75.4669 119.54C75.8829 119.86 76.0909 120.352 76.0909 121.016V125ZM73.5949 124.496C74.3149 124.496 74.8469 124.256 75.1909 123.776V122.684C74.8469 122.204 74.3149 121.964 73.5949 121.964C73.1789 121.964 72.8349 122.084 72.5629 122.324C72.2989 122.556 72.1669 122.86 72.1669 123.236C72.1669 123.604 72.2989 123.908 72.5629 124.148C72.8349 124.38 73.1789 124.496 73.5949 124.496ZM84.711 119.204H85.611V125H78.015V119.204H78.915V124.208H81.363V119.204H82.263V124.208H84.711V119.204ZM88.3974 125H87.5334V119.204H88.4334V123.632L91.4694 119.204H92.3574V125H91.4574V120.488L88.3974 125ZM100.044 125.144C99.1883 125.144 98.4923 124.856 97.9563 124.28C97.4203 123.696 97.1523 122.968 97.1523 122.096C97.1523 121.224 97.4203 120.5 97.9563 119.924C98.4923 119.348 99.1883 119.06 100.044 119.06C100.94 119.06 101.648 119.396 102.168 120.068L101.568 120.62C101.2 120.116 100.708 119.864 100.092 119.864C99.4843 119.864 98.9963 120.072 98.6283 120.488C98.2683 120.904 98.0883 121.44 98.0883 122.096C98.0883 122.752 98.2683 123.292 98.6283 123.716C98.9963 124.132 99.4843 124.34 100.092 124.34C100.7 124.34 101.192 124.088 101.568 123.584L102.168 124.136C101.648 124.808 100.94 125.144 100.044 125.144ZM108.65 125H107.498L105.41 122.396L104.45 123.344V125H103.55V119.204H104.45V122.288L107.498 119.204H108.638L106.07 121.832L108.65 125ZM110.698 125H109.834V119.204H110.734V123.632L113.77 119.204H114.658V125H113.758V120.488L110.698 125ZM115.891 126.476V124.256C116.187 124.2 116.419 124.024 116.587 123.728C116.755 123.424 116.891 122.868 116.995 122.06L117.367 119.204H121.399V124.208H122.071V126.476H121.171V125H116.791V126.476H115.891ZM118.159 119.996L117.895 122.168C117.759 123.184 117.479 123.864 117.055 124.208H120.499V119.996H118.159ZM128.521 125H127.369L125.281 122.396L124.321 123.344V125H123.421V119.204H124.321V122.288L127.369 119.204H128.509L125.941 121.832L128.521 125ZM130.569 125H129.705V119.204H130.605V123.632L133.641 119.204H134.529V125H133.629V120.488L130.569 125Z" fill="white"/>
<g clip-path="url(#clip0)">
<path d="M51 218.871H50.4926L49.7363 219.269C49.6512 219.222 49.5627 219.182 49.4672 219.158L48.5159 218.92V218.812C48.9368 218.518 49.1935 218.033 49.1935 217.516V217.121C49.1935 216.244 48.5062 215.51 47.6614 215.485C47.6185 215.483 47.5763 215.485 47.5338 215.487L47.7805 214.91L46.5848 213.714L45.8799 214.173C45.6121 214.022 45.3288 213.905 45.0347 213.822L44.8606 213H43.1397L42.9656 213.823C42.6714 213.905 42.3879 214.022 42.1203 214.173L41.4155 213.714L40.2207 214.909L40.4632 215.487C40.4539 215.487 40.4451 215.485 40.4358 215.485C40.0034 215.472 39.5961 215.63 39.2867 215.93C38.9769 216.23 38.8065 216.633 38.8065 217.065V217.516C38.8065 218.033 39.063 218.518 39.4839 218.812V218.92L38.8633 219.075L37.7386 218.419H37V223.098L39.2215 223.839H39.6541L39.7081 223.65L40.3891 224.058C40.4002 224.428 40.6971 224.726 41.0671 224.739C41.0801 225.108 41.3761 225.404 41.7445 225.417C41.7575 225.785 42.0535 226.081 42.4219 226.094C42.4353 226.471 42.7441 226.774 43.1241 226.774C43.2652 226.774 43.4036 226.73 43.5199 226.652L43.7199 226.828C43.8453 226.939 44.0067 227 44.1743 227H44.2161C44.5919 227 44.8976 226.696 44.9023 226.322C45.274 226.317 45.575 226.016 45.5798 225.644C45.9517 225.64 46.2529 225.338 46.2572 224.966C46.6325 224.957 46.9355 224.651 46.9355 224.273C46.9355 224.251 46.9344 224.228 46.9321 224.206L51 222.172V218.871ZM48.7419 217.121V217.516C48.7419 217.917 48.5254 218.291 48.1768 218.493L48.0639 218.558L48.0647 219.273L49.1929 219.555L46.7097 220.862V220.254C46.7097 219.95 46.5871 219.672 46.3863 219.467L47.1613 219.273V218.558L47.0486 218.493C46.7002 218.291 46.4839 217.917 46.4839 217.516V217.065C46.4839 216.757 46.6056 216.469 46.8269 216.254C47.0479 216.04 47.3412 215.924 47.6479 215.936C48.2511 215.954 48.7419 216.486 48.7419 217.121ZM44.3405 220.684L43.3183 220.358C42.8524 220.208 42.3482 220.186 41.8714 220.292L41.7419 220.32V220.254C41.7419 219.942 41.9531 219.672 42.255 219.596L43.5484 219.273V218.558L43.4357 218.493C43.0873 218.291 42.871 217.917 42.871 217.516V217.065C42.871 216.757 42.9927 216.469 43.214 216.254C43.435 216.04 43.7302 215.924 44.035 215.936C44.6382 215.954 45.129 216.486 45.129 217.121V217.516C45.129 217.917 44.9125 218.291 44.5639 218.493L44.451 218.558L44.4518 219.273L45.745 219.596C46.0469 219.672 46.2581 219.942 46.2581 220.254V221.1L46.2023 221.129H46.0639L44.6757 220.732C44.5663 220.701 44.4536 220.689 44.3405 220.684ZM41.7925 216.38C42.2166 215.558 43.0701 215.032 44 215.032C44.9211 215.032 45.7709 215.551 46.1982 216.361C46.0907 216.577 46.0323 216.816 46.0323 217.065V217.516C46.0323 218.033 46.2888 218.518 46.7097 218.812V218.92L45.8065 219.146L44.903 218.92V218.812C45.3239 218.518 45.5806 218.033 45.5806 217.516V217.121C45.5806 216.244 44.8933 215.51 44.0485 215.485C43.6163 215.472 43.2088 215.63 42.8994 215.93C42.5898 216.23 42.4194 216.633 42.4194 217.065V217.516C42.4194 218.033 42.6759 218.518 43.0968 218.812V218.92L42.1935 219.146L41.2901 218.92V218.812C41.711 218.518 41.9677 218.033 41.9677 217.516V217.121C41.9677 216.856 41.9038 216.603 41.7925 216.38ZM40.754 215.014L41.4754 214.293L42.1104 214.706L42.2319 214.631C42.5363 214.445 42.8653 214.308 43.2097 214.226L43.3486 214.192L43.5057 213.452H44.4945L44.6512 214.192L44.7901 214.225C45.1344 214.308 45.4634 214.444 45.7679 214.631L45.8894 214.706L46.5243 214.292L47.2449 215.013L46.9887 215.613C46.8144 215.688 46.6528 215.793 46.5121 215.93C46.5028 215.939 46.4949 215.948 46.4859 215.958C45.9539 215.112 45.0134 214.581 44 214.581C42.9794 214.581 42.0362 215.117 41.5055 215.971C41.3635 215.823 41.1946 215.702 41.0074 215.618L40.754 215.014ZM39.9355 219.273V218.558L39.8228 218.493C39.4744 218.291 39.2581 217.917 39.2581 217.516V217.065C39.2581 216.757 39.3798 216.469 39.6011 216.254C39.8221 216.04 40.1161 215.924 40.422 215.936C41.0253 215.954 41.5161 216.486 41.5161 217.121V217.516C41.5161 217.917 41.2996 218.291 40.951 218.493L40.838 218.558L40.8389 219.273L41.6137 219.467C41.4129 219.672 41.2903 219.95 41.2903 220.254V220.421L40.586 220.577L40.6043 220.513L40.6129 220.096L39.422 219.401L39.9355 219.273ZM37.4516 218.871H37.6162L39.2402 219.818L38.4208 223.096L37.4516 222.773V218.871ZM39.2947 223.387L38.8502 223.239L39.6463 220.055L40.1613 220.355V220.42L39.3136 223.387H39.2947ZM40.8387 224.037C40.8387 223.971 40.8656 223.905 40.9128 223.858L41.3097 223.461C41.3569 223.414 41.4222 223.387 41.4888 223.387C41.6284 223.387 41.7419 223.501 41.7419 223.64C41.7419 223.707 41.715 223.772 41.6678 223.819L41.2709 224.216C41.2237 224.263 41.1585 224.29 41.0919 224.29C40.9523 224.29 40.8387 224.177 40.8387 224.037ZM41.5161 224.715C41.5161 224.648 41.543 224.583 41.5902 224.536L41.9871 224.139C42.0343 224.091 42.0996 224.065 42.1662 224.065C42.3058 224.065 42.4194 224.178 42.4194 224.318C42.4194 224.384 42.3925 224.45 42.3453 224.497L41.9483 224.894C41.9011 224.941 41.8359 224.968 41.7693 224.968C41.6297 224.968 41.5161 224.854 41.5161 224.715ZM42.1935 225.392C42.1935 225.325 42.2205 225.26 42.2676 225.213L42.6646 224.816C42.7118 224.769 42.777 224.742 42.8436 224.742C42.9832 224.742 43.0968 224.856 43.0968 224.995C43.0968 225.062 43.0699 225.127 43.0227 225.174L42.6258 225.571C42.5786 225.618 42.5133 225.645 42.4467 225.645C42.3071 225.645 42.1935 225.532 42.1935 225.392ZM43.1241 226.323C42.9845 226.323 42.871 226.209 42.871 226.069C42.871 226.003 42.8979 225.938 42.9451 225.89L43.342 225.493C43.3892 225.446 43.4544 225.419 43.521 225.419C43.6606 225.419 43.7742 225.533 43.7742 225.673C43.7742 225.739 43.7473 225.804 43.7001 225.852L43.3032 226.248C43.256 226.296 43.1907 226.323 43.1241 226.323ZM44.2161 226.548H44.1743C44.1168 226.548 44.0616 226.527 44.0187 226.489L43.8498 226.34L44.0194 226.171C44.0799 226.11 44.1269 226.038 44.1616 225.961L44.3669 226.132C44.4206 226.177 44.4516 226.243 44.4516 226.313C44.4516 226.443 44.346 226.548 44.2161 226.548ZM46.2411 224.516H46.2021C46.1454 224.516 46.09 224.496 46.0467 224.46L44.8222 223.439L44.5329 223.786L45.722 224.777C45.7755 224.822 45.8065 224.888 45.8065 224.958C45.8065 225.088 45.7008 225.194 45.5709 225.194H45.5217C45.4669 225.194 45.4133 225.174 45.371 225.139L44.1445 224.117L43.8552 224.464L45.0444 225.455C45.0981 225.499 45.129 225.565 45.129 225.635C45.129 225.765 45.0234 225.871 44.8935 225.871C44.8069 225.871 44.7224 225.84 44.6559 225.785L44.1519 225.365C44.0409 225.138 43.8128 224.98 43.5456 224.97C43.5326 224.602 43.2366 224.306 42.8682 224.293C42.8552 223.924 42.5592 223.628 42.1908 223.615C42.1776 223.238 41.8688 222.935 41.4888 222.935C41.3032 222.935 41.1216 223.011 40.9904 223.142L40.5935 223.539C40.5698 223.563 40.5502 223.589 40.5302 223.616L39.8366 223.2L40.4447 221.072L41.9691 220.733C42.369 220.643 42.7906 220.663 43.1806 220.788L43.5132 220.894L42.3855 221.458C42.1278 221.587 41.9677 221.846 41.9677 222.134V222.179C41.9677 222.596 42.3071 222.935 42.7242 222.935C42.8613 222.935 42.9961 222.898 43.1133 222.828L43.9541 222.323C44.123 222.222 44.3497 222.244 44.4956 222.375L46.4035 224.093C46.4545 224.139 46.4839 224.205 46.4839 224.273C46.4839 224.407 46.375 224.516 46.2411 224.516ZM50.5484 221.893L46.7442 223.795C46.7318 223.782 46.7189 223.769 46.7054 223.757L44.7978 222.04C44.6307 221.889 44.4146 221.806 44.1894 221.806C44.0248 221.806 43.8632 221.851 43.7216 221.936L42.8804 222.441C42.8333 222.469 42.7793 222.484 42.7242 222.484C42.556 222.484 42.4194 222.347 42.4194 222.179V222.134C42.4194 222.018 42.484 221.914 42.5878 221.862L43.8474 221.232C44.063 221.124 44.3189 221.1 44.5512 221.167L45.9702 221.572L46.3139 221.581L50.5484 219.352V221.893Z" fill="#101010"/>
</g>
<path d="M48.9498 116.05C47.6276 114.728 45.8698 114 44 114C42.1302 114 40.3724 114.728 39.0502 116.05C37.7281 117.372 37 119.13 37 121C37 122.87 37.7281 124.628 39.0502 125.95C40.3724 127.272 42.1302 128 44 128C45.8698 128 47.6276 127.272 48.9498 125.95C50.2719 124.628 51 122.87 51 121C51 119.13 50.2719 117.372 48.9498 116.05ZM48.6404 125.64C47.4009 126.88 45.7529 127.562 44 127.562C42.2471 127.562 40.5991 126.88 39.3596 125.64C38.1201 124.401 37.4375 122.753 37.4375 121C37.4375 119.247 38.1201 117.599 39.3596 116.36C40.5991 115.12 42.2471 114.438 44 114.438C45.7529 114.438 47.4009 115.12 48.6404 116.36C49.8799 117.599 50.5625 119.247 50.5625 121C50.5625 122.753 49.8799 124.401 48.6404 125.64Z" fill="white"/>
<path d="M47.7452 117.255C47.6214 117.131 47.4566 117.062 47.2811 117.062C47.1057 117.062 46.9409 117.131 46.8171 117.255L46.4702 117.602C46.3848 117.687 46.3848 117.826 46.4702 117.911C46.5556 117.996 46.6941 117.996 46.7795 117.911L47.1266 117.564C47.1678 117.523 47.2227 117.5 47.2811 117.5C47.3395 117.5 47.3945 117.523 47.4358 117.564C47.521 117.649 47.521 117.788 47.4358 117.873L40.8732 124.436C40.832 124.477 40.7771 124.5 40.7186 124.5C40.6602 124.5 40.6053 124.477 40.564 124.436C40.4787 124.351 40.4787 124.212 40.564 124.127L46.1609 118.53C46.2464 118.444 46.2464 118.306 46.1609 118.22C46.0755 118.135 45.937 118.135 45.8516 118.22L40.2546 123.817C39.9988 124.073 39.9988 124.489 40.2546 124.745C40.3784 124.869 40.5432 124.938 40.7186 124.938C40.8941 124.938 41.0589 124.869 41.1826 124.745L47.7451 118.183C48.001 117.927 48.001 117.511 47.7452 117.255Z" fill="white"/>
<path d="M41.5938 120.562C42.6793 120.562 43.5625 119.679 43.5625 118.594C43.5625 117.508 42.6793 116.625 41.5938 116.625C40.5082 116.625 39.625 117.508 39.625 118.594C39.625 119.679 40.5082 120.562 41.5938 120.562ZM41.5938 117.062C42.4381 117.062 43.125 117.749 43.125 118.594C43.125 119.438 42.4381 120.125 41.5938 120.125C40.7494 120.125 40.0625 119.438 40.0625 118.594C40.0625 117.749 40.7494 117.062 41.5938 117.062Z" fill="white"/>
<path d="M46.4062 121.438C45.3207 121.438 44.4375 122.321 44.4375 123.406C44.4375 124.492 45.3207 125.375 46.4062 125.375C47.4918 125.375 48.375 124.492 48.375 123.406C48.375 122.321 47.4918 121.438 46.4062 121.438ZM46.4062 124.938C45.5619 124.938 44.875 124.251 44.875 123.406C44.875 122.562 45.5619 121.875 46.4062 121.875C47.2506 121.875 47.9375 122.562 47.9375 123.406C47.9375 124.251 47.2506 124.938 46.4062 124.938Z" fill="white"/>
<path d="M41.5938 119.688C42.1968 119.688 42.6875 119.197 42.6875 118.594C42.6875 118.501 42.6758 118.409 42.6528 118.319C42.6226 118.203 42.5032 118.132 42.3862 118.162C42.2692 118.193 42.1989 118.312 42.2292 118.429C42.243 118.482 42.25 118.538 42.25 118.594C42.25 118.956 41.9556 119.25 41.5937 119.25C41.2319 119.25 40.9375 118.956 40.9375 118.594C40.9375 118.232 41.2319 117.938 41.5937 117.938C41.6494 117.938 41.7047 117.944 41.7581 117.958C41.8751 117.988 41.9943 117.918 42.0244 117.801C42.0545 117.684 41.9841 117.565 41.8671 117.534C41.7782 117.512 41.6862 117.5 41.5938 117.5C40.9907 117.5 40.5 117.991 40.5 118.594C40.5 119.197 40.9907 119.688 41.5938 119.688Z" fill="white"/>
<path d="M47.1987 122.975C47.0817 123.005 47.0114 123.125 47.0417 123.241C47.0555 123.295 47.0625 123.35 47.0625 123.406C47.0625 123.768 46.7681 124.062 46.4062 124.062C46.0444 124.062 45.75 123.768 45.75 123.406C45.75 123.044 46.0444 122.75 46.4062 122.75C46.4619 122.75 46.5172 122.757 46.5706 122.771C46.6876 122.801 46.8068 122.73 46.8369 122.613C46.867 122.496 46.7966 122.377 46.6796 122.347C46.5907 122.324 46.4987 122.312 46.4062 122.312C45.8032 122.312 45.3125 122.803 45.3125 123.406C45.3125 124.009 45.8032 124.5 46.4062 124.5C47.0093 124.5 47.5 124.009 47.5 123.406C47.5 123.313 47.4883 123.221 47.4653 123.132C47.4351 123.015 47.3158 122.945 47.1987 122.975Z" fill="white"/>
<path d="M40.5251 86.0969C40.0848 86.0969 39.9897 85.7834 39.8468 85.7834C39.7476 85.7834 39.6643 85.9143 39.6643 86.0095C39.6643 86.5202 41.4454 86.8727 41.4454 85.6327C41.4454 84.5776 40.1562 84.8433 40.1562 84.2563C40.1562 84.0063 40.3624 83.8953 40.652 83.8953C40.9892 83.8953 41.0924 84.0461 41.1995 84.0461C41.3185 84.0461 41.374 83.8992 41.374 83.82C41.374 83.6017 40.9099 83.5343 40.6521 83.5343C40.2276 83.5343 39.7358 83.7089 39.7358 84.2959C39.7358 85.2479 41.025 84.9742 41.025 85.6763C41.0249 85.962 40.8107 86.0969 40.5251 86.0969Z" fill="white"/>
<path d="M42.429 83.6652C41.5831 86.4313 41.6357 86.2261 41.6357 86.2713C41.6357 86.4275 41.9917 86.5267 42.0442 86.3585L42.2069 85.7953H43.1867L43.3492 86.3585C43.4054 86.5381 43.8089 86.4126 43.7499 86.2356L42.9645 83.6652C42.902 83.4775 42.4935 83.4718 42.429 83.6652ZM42.2981 85.4581L42.6948 84.0975L43.0915 85.4581H42.2981Z" fill="white"/>
<path d="M44.0713 83.6811V86.3071C44.0713 86.3983 44.1665 86.4459 44.2578 86.4459H45.5232C45.691 86.4459 45.6932 86.073 45.5232 86.073H44.4918V83.6811C44.4918 83.4994 44.0713 83.501 44.0713 83.6811Z" fill="white"/>
<path d="M47.5622 83.9191C47.7444 83.9191 47.7504 83.5462 47.5622 83.5462H46.1501C46.0588 83.5462 45.9636 83.5938 45.9636 83.6851V86.307C45.9636 86.3983 46.0588 86.4458 46.1501 86.4458H47.5622C47.6574 86.4458 47.701 86.3507 47.701 86.2634C47.701 86.1603 47.6495 86.073 47.5622 86.073H46.3841V85.1607H46.995C47.1829 85.1607 47.1767 84.8274 46.995 84.8274H46.3841V83.9191H47.5622Z" fill="white"/>
<path d="M50.2976 86.7525C49.2688 84.9448 49.2803 85.0259 49.3222 84.9526L50.2976 83.2476C50.4476 82.9854 50.3376 82.6524 50.0644 82.5295L48.273 81.7234C48.1783 81.6807 48.2384 81.677 48.0043 79.6939C47.9713 79.3924 47.6871 79.1889 47.3933 79.2501C45.4413 79.6386 45.4502 79.6987 45.3802 79.6216L44.0601 78.1671C43.858 77.9443 43.5071 77.9444 43.305 78.1671C41.9514 79.6326 41.9962 79.672 41.8947 79.651C39.8925 79.2373 39.9632 79.2393 39.8672 79.2393C39.6068 79.2393 39.389 79.4348 39.3608 79.6939L39.2757 80.4741C39.2633 80.5879 39.3454 80.6902 39.4592 80.7027C39.5729 80.7153 39.6752 80.6328 39.6876 80.5191L39.7728 79.7389C39.7787 79.6838 39.831 79.6443 39.887 79.6558L41.8101 80.0567C41.9875 80.0937 42.1709 80.0334 42.2917 79.9002L43.6119 78.4456C43.6497 78.404 43.7153 78.4039 43.7532 78.4456L45.0733 79.9002C45.192 80.031 45.3742 80.0943 45.5549 80.0567L47.4778 79.6558C47.535 79.6439 47.5862 79.6838 47.5923 79.7389L47.8053 81.6916C47.8248 81.8705 47.9389 82.0276 48.103 82.1014L49.8943 82.9074C49.9442 82.9299 49.9667 82.9916 49.938 83.0417C48.9656 84.7851 48.8952 84.7629 48.8952 85C48.8952 85.2372 48.964 85.2118 49.938 86.9583C49.9665 87.0081 49.9444 87.07 49.8943 87.0926L48.103 87.8987C47.9389 87.9725 47.8248 88.1295 47.8053 88.3083L47.5923 90.2611C47.5862 90.3162 47.534 90.3559 47.4779 90.3442L46.5965 90.1605C46.4846 90.137 46.3748 90.209 46.3514 90.321C46.328 90.4331 46.4 90.5428 46.512 90.5662C47.428 90.7536 47.4059 90.7607 47.4979 90.7607C47.7583 90.7607 47.9761 90.5652 48.0043 90.3061C48.2392 88.3176 48.1783 88.3193 48.273 88.2767L50.0644 87.4706C50.2471 87.3884 50.3651 87.2058 50.3651 87.0053C50.3651 86.9169 50.3418 86.8295 50.2976 86.7525Z" fill="white"/>
<path d="M45.7851 89.9913L45.5551 89.9433C45.3773 89.9063 45.194 89.9668 45.0733 90.0998L43.7533 91.5544C43.7155 91.596 43.6499 91.5963 43.612 91.5544L42.2918 90.0998C42.172 89.9679 41.9869 89.9066 41.8102 89.9433L39.8873 90.3442C39.8303 90.3559 39.7788 90.3162 39.7728 90.2611L39.5598 88.3084C39.5403 88.1295 39.4262 87.9725 39.2622 87.8987L37.4708 87.0927C37.4293 87.0739 37.4145 87.0339 37.4145 87.0053C37.4145 86.9887 37.4188 86.9729 37.4271 86.9583C38.4013 85.2118 38.4699 85.2371 38.4699 85C38.4699 84.9115 38.4467 84.8239 38.4026 84.7469C37.3795 82.9499 37.4144 83.0418 37.4144 82.9947C37.4144 82.9662 37.4292 82.9262 37.4708 82.9075L39.2622 82.1014C39.4262 82.0275 39.5403 81.8705 39.5598 81.6917L39.5978 81.3431C39.6103 81.2293 39.5281 81.127 39.4143 81.1146C39.3006 81.1021 39.1983 81.1844 39.1858 81.2981C39.1393 81.6016 39.1766 81.6854 39.0921 81.7235L37.3008 82.5295C37.0276 82.6524 36.9174 82.9854 37.0674 83.2477C38.0964 85.0555 38.0848 84.9742 38.0429 85.0474C37.0688 86.7937 37 86.7689 37 87.0053C37 87.2058 37.118 87.3884 37.3008 87.4706C39.11 88.3041 39.1366 88.2501 39.1478 88.3534L39.3609 90.3061C39.3938 90.6076 39.678 90.8112 39.9717 90.7499C41.9231 90.3615 41.9148 90.3013 41.9849 90.3784L43.3051 91.833C43.5072 92.0558 43.8579 92.0557 44.0601 91.833C45.4138 90.3675 45.3688 90.3281 45.4704 90.349L45.7005 90.397C45.8126 90.4206 45.9223 90.3485 45.9457 90.2364C45.9691 90.1244 45.8972 90.0146 45.7851 89.9913Z" fill="white"/>
<path d="M45.5442 80.5206C42.3256 79.1829 38.8303 81.5705 38.8303 84.9981C38.8303 87.7356 41.0593 89.8522 43.6806 89.8522C47.4064 89.8522 49.7172 85.8443 47.9126 82.6253C47.8566 82.5255 47.7303 82.4898 47.6305 82.5458C47.5307 82.6018 47.4951 82.728 47.5511 82.8279C47.9234 83.4921 48.1203 84.2439 48.1203 85.0019C48.1203 87.3973 46.1859 89.4377 43.6806 89.4377C41.2853 89.4377 39.2448 87.5034 39.2448 84.9982C39.2448 81.853 42.4517 79.684 45.3851 80.9033C46.0531 81.1809 46.6477 81.6207 47.1046 82.1752C47.1774 82.2634 47.308 82.2761 47.3963 82.2033C47.4846 82.1305 47.4972 81.9999 47.4245 81.9116C46.9247 81.3051 46.2744 80.8241 45.5442 80.5206Z" fill="white"/>
<path d="M44.0001 414C43.2269 414 42.6001 414.627 42.6001 415.4C42.6001 416.173 43.2269 416.8 44.0001 416.8C44.773 416.799 45.3993 416.173 45.4001 415.4C45.4001 414.627 44.7733 414 44.0001 414ZM44.0001 416.333C43.4846 416.333 43.0668 415.915 43.0668 415.4C43.0668 414.885 43.4846 414.467 44.0001 414.467C44.5156 414.467 44.9334 414.885 44.9334 415.4C44.9334 415.915 44.5156 416.333 44.0001 416.333Z" fill="white"/>
<path d="M45.3999 417.033H44.37L43.9999 417.403L43.6298 417.033H42.5999C42.2133 417.033 41.8999 417.347 41.8999 417.733V419.6C41.8999 419.987 42.2133 420.3 42.5999 420.3H45.3999C45.7865 420.3 46.0999 419.987 46.0999 419.6V417.733C46.0999 417.347 45.7865 417.033 45.3999 417.033ZM45.6332 419.6C45.6332 419.729 45.5288 419.833 45.3999 419.833H42.5999C42.471 419.833 42.3666 419.729 42.3666 419.6V417.733C42.3666 417.604 42.471 417.5 42.5999 417.5H43.4366L43.9999 418.063L44.5632 417.5H45.3999C45.5288 417.5 45.6332 417.604 45.6332 417.733V419.6Z" fill="white"/>
<path d="M48.9 421.7C48.1268 421.7 47.5 422.327 47.5 423.1C47.5008 423.873 48.1271 424.499 48.9 424.5C49.6732 424.5 50.3 423.873 50.3 423.1C50.3 422.327 49.6732 421.7 48.9 421.7ZM48.9 424.033C48.3845 424.033 47.9667 423.615 47.9667 423.1C47.9667 422.585 48.3845 422.167 48.9 422.167C49.4155 422.167 49.8333 422.585 49.8333 423.1C49.8333 423.615 49.4155 424.033 48.9 424.033Z" fill="white"/>
<path d="M50.3 424.733H49.2701L48.9 425.103L48.53 424.733H47.5C47.1134 424.733 46.8 425.047 46.8 425.433V427.3C46.8 427.687 47.1134 428 47.5 428H50.3C50.6867 428 51 427.687 51 427.3V425.433C51 425.047 50.6867 424.733 50.3 424.733ZM50.5334 427.3C50.5334 427.429 50.4289 427.533 50.3 427.533H47.5C47.3712 427.533 47.2667 427.429 47.2667 427.3V425.433C47.2667 425.304 47.3712 425.2 47.5 425.2H48.3368L48.9 425.763L49.4633 425.2H50.3C50.4289 425.2 50.5334 425.304 50.5334 425.433V427.3Z" fill="white"/>
<path d="M39.1 421.7C38.3271 421.701 37.7007 422.327 37.7 423.1C37.7 423.873 38.3267 424.5 39.1 424.5C39.8732 424.5 40.5 423.873 40.5 423.1C40.5 422.327 39.8732 421.7 39.1 421.7ZM39.1 424.033C38.5845 424.033 38.1666 423.615 38.1666 423.1C38.1666 422.585 38.5845 422.167 39.1 422.167C39.6154 422.167 40.0333 422.585 40.0333 423.1C40.0333 423.615 39.6154 424.033 39.1 424.033Z" fill="white"/>
<path d="M40.5 424.733H39.4701L39.1 425.103L38.7299 424.733H37.7C37.3134 424.733 37 425.047 37 425.433V427.3C37 427.687 37.3134 428 37.7 428H40.5C40.8866 428 41.2 427.687 41.2 427.3V425.433C41.2 425.047 40.8866 424.733 40.5 424.733ZM40.7333 427.3C40.7333 427.429 40.6289 427.533 40.5 427.533H37.7C37.5711 427.533 37.4667 427.429 37.4667 427.3V425.433C37.4667 425.304 37.5711 425.2 37.7 425.2H38.5367L39.1 425.763L39.6633 425.2H40.5C40.6289 425.2 40.7333 425.304 40.7333 425.433V427.3Z" fill="white"/>
<path d="M41.3648 419.202C41.2737 419.111 41.126 419.111 41.0349 419.202L39.4016 420.835C39.3089 420.925 39.3063 421.072 39.3958 421.165C39.4853 421.258 39.6331 421.26 39.7258 421.171C39.7277 421.169 39.7296 421.167 39.7315 421.165L41.3648 419.532C41.4559 419.441 41.4559 419.293 41.3648 419.202Z" fill="white"/>
<path d="M48.5983 420.835L46.965 419.202C46.8723 419.112 46.7246 419.115 46.6351 419.207C46.5477 419.298 46.5477 419.441 46.6351 419.532L48.2684 421.165C48.3122 421.209 48.3715 421.233 48.4334 421.233C48.5622 421.233 48.6667 421.129 48.6667 421C48.6667 420.938 48.6421 420.879 48.5983 420.835Z" fill="white"/>
<path d="M46.1001 426.133H41.9001C41.7712 426.133 41.6667 426.238 41.6667 426.367C41.6667 426.496 41.7712 426.6 41.9001 426.6H46.1001C46.2289 426.6 46.3334 426.496 46.3334 426.367C46.3334 426.238 46.2289 426.133 46.1001 426.133Z" fill="white"/>
<defs>
<clipPath id="clip0">
<rect x="37" y="213" width="14" height="14" fill="white"/>
</clipPath>
</defs>
</svg>
