<svg width="100" height="100" viewBox="0 0 100 100" fill="none" xmlns="http://www.w3.org/2000/svg">
<circle cx="50" cy="50" r="50" fill="#FBD44B"/>
<mask id="mask0" mask-type="alpha" maskUnits="userSpaceOnUse" x="0" y="0" width="100" height="100">
<circle cx="50" cy="50" r="50" fill="#FAFAFA"/>
</mask>
<g mask="url(#mask0)">
<circle cx="27" cy="22" r="43" fill="#83B4FF"/>
<circle cx="93.5" cy="38.5" r="46.5" fill="#FF9F69"/>
</g>
<path d="M36.06 56.24C33.6867 56.24 31.8067 55.5333 30.42 54.12L31.96 51.96C33.1067 53.16 34.52 53.76 36.2 53.76C36.9333 53.76 37.5 53.62 37.9 53.34C38.3133 53.0467 38.52 52.6933 38.52 52.28C38.52 51.92 38.3267 51.62 37.94 51.38C37.5667 51.14 37.0933 50.9667 36.52 50.86C35.96 50.7533 35.3467 50.6 34.68 50.4C34.0133 50.2 33.3933 49.9733 32.82 49.72C32.26 49.4667 31.7867 49.0667 31.4 48.52C31.0267 47.9733 30.84 47.3067 30.84 46.52C30.84 45.3733 31.3 44.4133 32.22 43.64C33.14 42.8533 34.3667 42.46 35.9 42.46C38.02 42.46 39.7533 43.08 41.1 44.32L39.52 46.4C38.4667 45.4267 37.1733 44.94 35.64 44.94C35.04 44.94 34.5733 45.06 34.24 45.3C33.9067 45.54 33.74 45.8667 33.74 46.28C33.74 46.6 33.9267 46.8733 34.3 47.1C34.6867 47.3133 35.16 47.4733 35.72 47.58C36.2933 47.6867 36.9067 47.8467 37.56 48.06C38.2267 48.26 38.84 48.4933 39.4 48.76C39.9733 49.0133 40.4467 49.42 40.82 49.98C41.2067 50.5267 41.4 51.1867 41.4 51.96C41.4 53.24 40.94 54.2733 40.02 55.06C39.1133 55.8467 37.7933 56.24 36.06 56.24ZM51.7922 56H49.2522V55C48.5589 55.8267 47.5389 56.24 46.1922 56.24C45.3255 56.24 44.5455 55.96 43.8522 55.4C43.1722 54.8267 42.8322 54.04 42.8322 53.04C42.8322 52 43.1655 51.22 43.8322 50.7C44.5122 50.18 45.2989 49.92 46.1922 49.92C47.5655 49.92 48.5855 50.3133 49.2522 51.1V49.8C49.2522 49.3067 49.0589 48.9133 48.6722 48.62C48.2855 48.3267 47.7722 48.18 47.1322 48.18C46.0789 48.18 45.1389 48.56 44.3122 49.32L43.3522 47.62C44.4989 46.6067 45.9055 46.1 47.5722 46.1C48.8122 46.1 49.8255 46.3867 50.6122 46.96C51.3989 47.5333 51.7922 48.4667 51.7922 49.76V56ZM47.2122 54.52C48.1589 54.52 48.8389 54.24 49.2522 53.68V52.48C48.8389 51.92 48.1589 51.64 47.2122 51.64C46.6922 51.64 46.2589 51.7733 45.9122 52.04C45.5655 52.2933 45.3922 52.6467 45.3922 53.1C45.3922 53.54 45.5655 53.8867 45.9122 54.14C46.2589 54.3933 46.6922 54.52 47.2122 54.52ZM57.0516 56H54.5116V42.66H57.0516V56ZM64.3102 56.24C62.8168 56.24 61.5835 55.7733 60.6102 54.84C59.6368 53.9067 59.1502 52.68 59.1502 51.16C59.1502 49.7333 59.6168 48.5333 60.5502 47.56C61.4968 46.5867 62.6968 46.1 64.1502 46.1C65.5902 46.1 66.7568 46.5933 67.6502 47.58C68.5435 48.5533 68.9902 49.8333 68.9902 51.42V51.98H61.8102C61.8902 52.62 62.1768 53.1533 62.6702 53.58C63.1635 54.0067 63.8035 54.22 64.5902 54.22C65.0168 54.22 65.4768 54.1333 65.9702 53.96C66.4768 53.7867 66.8768 53.5533 67.1702 53.26L68.2902 54.9C67.3168 55.7933 65.9902 56.24 64.3102 56.24ZM66.5302 50.26C66.4902 49.7133 66.2702 49.22 65.8702 48.78C65.4835 48.34 64.9102 48.12 64.1502 48.12C63.4302 48.12 62.8702 48.34 62.4702 48.78C62.0702 49.2067 61.8368 49.7 61.7702 50.26H66.5302Z" fill="white"/>
</svg>
