<svg width="100" height="100" viewBox="0 0 100 100" fill="none" xmlns="http://www.w3.org/2000/svg">
<circle cx="50" cy="50" r="50" fill="#FFFDFD"/>
<mask id="mask0" mask-type="alpha" maskUnits="userSpaceOnUse" x="0" y="0" width="100" height="100">
<circle cx="50" cy="50" r="50" fill="#101010"/>
</mask>
<g mask="url(#mask0)">
<rect y="12" width="100" height="1" fill="#C5C5C5" fill-opacity="0.1"/>
<rect y="28" width="100" height="1" fill="#C5C5C5" fill-opacity="0.1"/>
<rect y="44" width="100" height="1" fill="#C5C5C5" fill-opacity="0.1"/>
<rect y="60" width="100" height="1" fill="#C5C5C5" fill-opacity="0.1"/>
<rect y="76" width="100" height="1" fill="#C5C5C5" fill-opacity="0.1"/>
<rect y="92" width="100" height="1" fill="#C5C5C5" fill-opacity="0.1"/>
<path d="M-3 34.5V67H103.5V21.5L79 46L40.5 28L15.5 53L-3 34.5Z" fill="url(#paint0_linear)" stroke="#FF9F69" stroke-width="0.5"/>
<path d="M-1 122V67.3901C4.7042 66.9459 16.5909 63.8199 27.9879 60.5C42.0702 56.3979 55.4048 52 55.4048 52C55.4048 52 64.2333 54.4823 102 67.3901V122H-1Z" fill="url(#paint1_linear)" stroke="#3D73FF" stroke-width="0.5"/>
</g>
<circle cx="55" cy="52" r="2" fill="#3D73FF"/>
<circle cx="79" cy="45" r="2" fill="#FF9F69"/>
<circle cx="41" cy="28" r="2" fill="#FF9F69"/>
<circle cx="16" cy="52" r="2" fill="#FF9F69"/>
<defs>
<linearGradient id="paint0_linear" x1="50.25" y1="21.5" x2="50.25" y2="67" gradientUnits="userSpaceOnUse">
<stop stop-color="#FBD44B"/>
<stop offset="1" stop-color="#FBD44B" stop-opacity="0.15"/>
</linearGradient>
<linearGradient id="paint1_linear" x1="50.5" y1="52" x2="50.5" y2="122" gradientUnits="userSpaceOnUse">
<stop stop-color="#92B0FF"/>
<stop offset="1" stop-color="white" stop-opacity="0.62"/>
</linearGradient>
</defs>
</svg>
