<svg width="21" height="21" viewBox="0 0 21 21" fill="none" xmlns="http://www.w3.org/2000/svg">
<g clip-path="url(#clip0)">
<path d="M7.59644 19.1056C8.08939 20.2201 9.20501 21 10.5 21C11.7949 21 12.9105 20.2201 13.4035 19.1056H7.59644Z" fill="black"/>
<path d="M10.4998 2.00635C11.3543 2.00635 12.1748 2.15712 12.9363 2.43316V2.33937C12.9363 1.04943 11.8868 0 10.597 0H10.4031C9.11315 0 8.06372 1.04943 8.06372 2.33937V2.43197C8.82475 2.15675 9.64501 2.00635 10.4998 2.00635Z" fill="black"/>
<path d="M18.1895 17.8731H2.81048C2.51953 17.8731 2.25302 17.6769 2.1925 17.3923C2.1326 17.1105 2.26103 16.8323 2.52158 16.712C2.58341 16.6719 3.0488 16.3465 3.51473 15.3619C4.37045 13.5538 4.55007 11.0068 4.55007 9.18858C4.55007 5.90787 7.21913 3.23889 10.4998 3.23889C13.7727 3.23889 16.4368 5.89501 16.4495 9.16496C16.4498 9.17281 16.4499 9.18069 16.4499 9.18858C16.4499 11.0068 16.6296 13.5538 17.4853 15.3619C17.9512 16.3465 18.4166 16.6719 18.4784 16.712C18.739 16.8323 18.8675 17.1104 18.8075 17.3923C18.747 17.6769 18.4805 17.8731 18.1895 17.8731ZM18.4853 16.7163H18.4857H18.4853Z" fill="black"/>
</g>
<defs>
<clipPath id="clip0">
<rect width="21" height="21" fill="white"/>
</clipPath>
</defs>
</svg>
