<svg width="531" height="100" viewBox="0 0 531 100" fill="none" xmlns="http://www.w3.org/2000/svg">
<line x1="55" y1="52" x2="99" y2="52" stroke="#FBD44B" stroke-width="2" stroke-linejoin="round" stroke-dasharray="4 4"/>
<line x1="162" y1="52" x2="206" y2="52" stroke="#FBD44B" stroke-width="2" stroke-linejoin="round" stroke-dasharray="4 4"/>
<line x1="269" y1="52" x2="313" y2="52" stroke="#FBD44B" stroke-width="2" stroke-linejoin="round" stroke-dasharray="4 4"/>
<circle cx="463.5" cy="53.5" r="23.5" fill="#FBD44B"/>
<circle cx="463.5" cy="53.5" r="34.5" stroke="#FFF1C0" stroke-width="2"/>
<circle cx="463.5" cy="53.5" r="28.5" stroke="#FBD44B" stroke-width="2"/>
<circle cx="23.5" cy="53.5" r="23.5" fill="#FBD44B"/>
<path d="M26.35 63H22.09V48.48L18.76 51.87L16.33 49.32L22.63 42.99H26.35V63Z" fill="white"/>
<circle cx="130.5" cy="53.5" r="23.5" fill="#FBD44B"/>
<path d="M137.47 63H122.41V59.67C126.69 56.49 129.52 54.23 130.9 52.89C132.3 51.53 133 50.26 133 49.08C133 48.26 132.68 47.62 132.04 47.16C131.4 46.7 130.64 46.47 129.76 46.47C127.66 46.47 125.87 47.24 124.39 48.78L121.96 45.96C122.9 44.88 124.05 44.07 125.41 43.53C126.79 42.97 128.21 42.69 129.67 42.69C131.87 42.69 133.69 43.27 135.13 44.43C136.59 45.59 137.32 47.14 137.32 49.08C137.32 50.72 136.67 52.33 135.37 53.91C134.09 55.47 132.07 57.25 129.31 59.25H137.47V63Z" fill="white"/>
<circle cx="237.5" cy="53.5" r="23.5" fill="#FBD44B"/>
<path d="M237.49 63.36C235.73 63.36 234.17 63.07 232.81 62.49C231.45 61.89 230.38 61.11 229.6 60.15L231.82 57.3C232.5 58 233.34 58.56 234.34 58.98C235.34 59.38 236.34 59.58 237.34 59.58C238.54 59.58 239.47 59.35 240.13 58.89C240.79 58.41 241.12 57.79 241.12 57.03C241.12 56.23 240.8 55.65 240.16 55.29C239.52 54.91 238.5 54.72 237.1 54.72C235.84 54.72 235.01 54.74 234.61 54.78V50.94C234.85 50.96 235.68 50.97 237.1 50.97C239.56 50.97 240.79 50.26 240.79 48.84C240.79 48.08 240.44 47.5 239.74 47.1C239.06 46.68 238.17 46.47 237.07 46.47C235.13 46.47 233.44 47.16 232 48.54L229.87 45.87C231.75 43.75 234.3 42.69 237.52 42.69C239.86 42.69 241.7 43.18 243.04 44.16C244.4 45.14 245.08 46.46 245.08 48.12C245.08 49.32 244.65 50.33 243.79 51.15C242.93 51.95 241.9 52.46 240.7 52.68C241.88 52.8 242.95 53.29 243.91 54.15C244.89 54.99 245.38 56.1 245.38 57.48C245.38 59.22 244.66 60.64 243.22 61.74C241.78 62.82 239.87 63.36 237.49 63.36Z" fill="white"/>
<line x1="376" y1="52" x2="420" y2="52" stroke="#FBD44B" stroke-width="2" stroke-linejoin="round" stroke-dasharray="4 4"/>
<circle cx="344.5" cy="53.5" r="23.5" fill="#FBD44B"/>
<path d="M472.609 44.8261C471.483 44.8261 470.952 44.4358 470.339 43.9833C470.123 43.825 469.896 43.66 469.638 43.5109C469.634 43.5085 469.631 43.5058 469.627 43.504C469.137 43.2222 468.531 43 467.651 43C466.299 43 465.589 43.5227 464.963 43.9833C464.35 44.4358 463.82 44.8261 462.693 44.8261C461.568 44.8261 461.039 44.4358 460.426 43.9833C459.8 43.5227 459.091 43 457.739 43H455.391C455.175 43 455 43.204 455 43.4565V63.5435C455 63.796 455.175 64 455.391 64H457.739C457.955 64 458.13 63.796 458.13 63.5435V54.887C458.996 54.9672 459.47 55.3161 460.007 55.7119C460.632 56.1729 461.341 56.6952 462.693 56.6952C464.046 56.6952 464.756 56.1725 465.381 55.7119C465.995 55.2599 466.525 54.8696 467.651 54.8696C468.777 54.8696 469.307 55.2599 469.921 55.7124C470.547 56.1729 471.256 56.6957 472.609 56.6957C472.825 56.6957 473 56.4917 473 56.2391V45.2826C473 45.0301 472.825 44.8261 472.609 44.8261ZM472.217 45.7235V50.287C471.35 50.2067 470.876 49.8579 470.339 49.462C470.19 49.3525 470.035 49.2393 469.87 49.1307V44.7184C469.887 44.7311 469.904 44.7429 469.921 44.7559C470.483 45.1698 471.114 45.6341 472.217 45.7235ZM469.087 44.2189V48.7275C468.697 48.5792 468.237 48.4783 467.651 48.4783C466.931 48.4783 466.397 48.6281 465.957 48.8363V44.3604C466.388 44.099 466.878 43.913 467.651 43.913C468.275 43.913 468.713 44.0354 469.087 44.2189ZM465.174 44.9063V49.3082C465.102 49.3594 465.032 49.4109 464.963 49.4615C464.35 49.914 463.82 50.3043 462.693 50.3043C462.45 50.3043 462.238 50.2829 462.043 50.2495V45.689C462.244 45.7182 462.456 45.7391 462.693 45.7391C463.9 45.7391 464.594 45.3236 465.174 44.9063ZM461.261 45.4908V49.9999C460.959 49.8518 460.699 49.6644 460.425 49.462C459.864 49.048 459.231 48.5879 458.13 48.4974V43.9304C458.996 44.0107 459.47 44.3595 460.007 44.7554C460.362 45.0173 460.749 45.2958 461.261 45.4908ZM457.348 63.087H455.783V43.913H457.348V63.087ZM458.13 53.9757V49.4087C458.996 49.4889 459.47 49.8378 460.007 50.2337C460.362 50.4956 460.749 50.774 461.261 50.9686V55.4777C460.959 55.3297 460.699 55.1422 460.425 54.9398C459.864 54.5263 459.231 54.0662 458.13 53.9757ZM462.693 55.7826C462.45 55.7826 462.238 55.7612 462.043 55.7278V51.1672C462.244 51.1964 462.456 51.2174 462.693 51.2174C463.9 51.2174 464.594 50.8019 465.174 50.3846V54.7864C465.102 54.8377 465.032 54.8892 464.963 54.9398C464.35 55.3923 463.82 55.7826 462.693 55.7826ZM465.957 54.3145V49.8387C466.388 49.5772 466.878 49.3913 467.651 49.3913C468.275 49.3913 468.714 49.5137 469.087 49.6971V54.2057C468.697 54.0575 468.237 53.9565 467.651 53.9565C466.931 53.9565 466.396 54.1063 465.957 54.3145ZM470.339 54.9398C470.19 54.8303 470.035 54.7171 469.87 54.6085V50.1962C469.887 50.2089 469.904 50.2208 469.921 50.2337C470.483 50.6472 471.116 51.1073 472.217 51.1978V55.7648C471.35 55.6854 470.877 55.3361 470.339 54.9398Z" fill="white"/>
<path d="M348.58 63H344.32V58.86H334.75V55.5L342.7 42.99H348.58V55.11H351.16V58.86H348.58V63ZM344.32 55.11V46.77L338.92 55.11H344.32Z" fill="white"/>
<circle cx="497.5" cy="14.5" r="4.5" fill="#FBD44B"/>
<circle cx="522.5" cy="54.5" r="8.5" fill="#FBD44B"/>
<circle cx="419.5" cy="27.5" r="2.5" fill="#FBD44B"/>
<circle cx="438.5" cy="5.5" r="5.5" fill="#FBD44B"/>
<circle cx="423.5" cy="90.5" r="2.5" fill="#FBD44B"/>
<circle cx="482.5" cy="95.5" r="4.5" fill="#FBD44B"/>
<circle cx="516.5" cy="88.5" r="2.5" fill="#FBD44B"/>
</svg>
