<svg width="496" height="71" viewBox="0 0 496 71" fill="none" xmlns="http://www.w3.org/2000/svg">
<circle cx="35.5" cy="35.5" r="23.5" fill="#FBD44B"/>
<circle cx="151.5" cy="35.5" r="23.5" fill="#E1E1E1"/>
<circle cx="258.5" cy="35.5" r="23.5" fill="#E1E1E1"/>
<circle cx="365.5" cy="35.5" r="23.5" fill="#E1E1E1"/>
<circle cx="35.5" cy="35.5" r="34.5" stroke="#FFF1C0" stroke-width="2"/>
<circle cx="35.5" cy="35.5" r="28.5" stroke="#FBD44B" stroke-width="2"/>
<line x1="76" y1="34" x2="120" y2="34" stroke="#DCDCDC" stroke-width="2" stroke-linejoin="round" stroke-dasharray="4 4"/>
<line x1="183" y1="34" x2="227" y2="34" stroke="#DCDCDC" stroke-width="2" stroke-linejoin="round" stroke-dasharray="4 4"/>
<line x1="290" y1="34" x2="334" y2="34" stroke="#DCDCDC" stroke-width="2" stroke-linejoin="round" stroke-dasharray="4 4"/>
<path d="M38.35 45H34.09V30.48L30.76 33.87L28.33 31.32L34.63 24.99H38.35V45Z" fill="white"/>
<path d="M158.47 45H143.41V41.67C147.69 38.49 150.52 36.23 151.9 34.89C153.3 33.53 154 32.26 154 31.08C154 30.26 153.68 29.62 153.04 29.16C152.4 28.7 151.64 28.47 150.76 28.47C148.66 28.47 146.87 29.24 145.39 30.78L142.96 27.96C143.9 26.88 145.05 26.07 146.41 25.53C147.79 24.97 149.21 24.69 150.67 24.69C152.87 24.69 154.69 25.27 156.13 26.43C157.59 27.59 158.32 29.14 158.32 31.08C158.32 32.72 157.67 34.33 156.37 35.91C155.09 37.47 153.07 39.25 150.31 41.25H158.47V45Z" fill="#C8C8C8"/>
<path d="M258.49 45.36C256.73 45.36 255.17 45.07 253.81 44.49C252.45 43.89 251.38 43.11 250.6 42.15L252.82 39.3C253.5 40 254.34 40.56 255.34 40.98C256.34 41.38 257.34 41.58 258.34 41.58C259.54 41.58 260.47 41.35 261.13 40.89C261.79 40.41 262.12 39.79 262.12 39.03C262.12 38.23 261.8 37.65 261.16 37.29C260.52 36.91 259.5 36.72 258.1 36.72C256.84 36.72 256.01 36.74 255.61 36.78V32.94C255.85 32.96 256.68 32.97 258.1 32.97C260.56 32.97 261.79 32.26 261.79 30.84C261.79 30.08 261.44 29.5 260.74 29.1C260.06 28.68 259.17 28.47 258.07 28.47C256.13 28.47 254.44 29.16 253 30.54L250.87 27.87C252.75 25.75 255.3 24.69 258.52 24.69C260.86 24.69 262.7 25.18 264.04 26.16C265.4 27.14 266.08 28.46 266.08 30.12C266.08 31.32 265.65 32.33 264.79 33.15C263.93 33.95 262.9 34.46 261.7 34.68C262.88 34.8 263.95 35.29 264.91 36.15C265.89 36.99 266.38 38.1 266.38 39.48C266.38 41.22 265.66 42.64 264.22 43.74C262.78 44.82 260.87 45.36 258.49 45.36Z" fill="#C8C8C8"/>
<path d="M369.58 45H365.32V40.86H355.75V37.5L363.7 24.99H369.58V37.11H372.16V40.86H369.58V45ZM365.32 37.11V28.77L359.92 37.11H365.32Z" fill="#C8C8C8"/>
<circle cx="472.5" cy="35.5" r="23.5" fill="#E1E1E1"/>
<path d="M481.609 26.8261C480.483 26.8261 479.952 26.4358 479.339 25.9833C479.123 25.825 478.896 25.66 478.638 25.5109C478.634 25.5085 478.631 25.5058 478.627 25.504C478.137 25.2222 477.531 25 476.651 25C475.299 25 474.589 25.5227 473.963 25.9833C473.35 26.4358 472.82 26.8261 471.693 26.8261C470.568 26.8261 470.039 26.4358 469.426 25.9833C468.8 25.5227 468.091 25 466.739 25H464.391C464.175 25 464 25.204 464 25.4565V45.5435C464 45.796 464.175 46 464.391 46H466.739C466.955 46 467.13 45.796 467.13 45.5435V36.887C467.996 36.9672 468.47 37.3161 469.007 37.7119C469.632 38.1729 470.341 38.6952 471.693 38.6952C473.046 38.6952 473.756 38.1725 474.381 37.7119C474.995 37.2599 475.525 36.8696 476.651 36.8696C477.777 36.8696 478.307 37.2599 478.921 37.7124C479.547 38.1729 480.256 38.6957 481.609 38.6957C481.825 38.6957 482 38.4917 482 38.2391V27.2826C482 27.0301 481.825 26.8261 481.609 26.8261ZM481.217 27.7235V32.287C480.35 32.2067 479.876 31.8579 479.339 31.462C479.19 31.3525 479.035 31.2393 478.87 31.1307V26.7184C478.887 26.7311 478.904 26.7429 478.921 26.7559C479.483 27.1698 480.114 27.6341 481.217 27.7235ZM478.087 26.2189V30.7275C477.697 30.5792 477.237 30.4783 476.651 30.4783C475.931 30.4783 475.397 30.6281 474.957 30.8363V26.3604C475.388 26.099 475.878 25.913 476.651 25.913C477.275 25.913 477.713 26.0354 478.087 26.2189ZM474.174 26.9063V31.3082C474.102 31.3594 474.032 31.4109 473.963 31.4615C473.35 31.914 472.82 32.3043 471.693 32.3043C471.45 32.3043 471.238 32.2829 471.043 32.2495V27.689C471.244 27.7182 471.456 27.7391 471.693 27.7391C472.9 27.7391 473.594 27.3236 474.174 26.9063ZM470.261 27.4908V31.9999C469.959 31.8518 469.699 31.6644 469.425 31.462C468.864 31.048 468.231 30.5879 467.13 30.4974V25.9304C467.996 26.0107 468.47 26.3595 469.007 26.7554C469.362 27.0173 469.749 27.2958 470.261 27.4908ZM466.348 45.087H464.783V25.913H466.348V45.087ZM467.13 35.9757V31.4087C467.996 31.4889 468.47 31.8378 469.007 32.2337C469.362 32.4956 469.749 32.774 470.261 32.9686V37.4777C469.959 37.3297 469.699 37.1422 469.425 36.9398C468.864 36.5263 468.231 36.0662 467.13 35.9757ZM471.693 37.7826C471.45 37.7826 471.238 37.7612 471.043 37.7278V33.1672C471.244 33.1964 471.456 33.2174 471.693 33.2174C472.9 33.2174 473.594 32.8019 474.174 32.3846V36.7864C474.102 36.8377 474.032 36.8892 473.963 36.9398C473.35 37.3923 472.82 37.7826 471.693 37.7826ZM474.957 36.3145V31.8387C475.388 31.5772 475.878 31.3913 476.651 31.3913C477.275 31.3913 477.714 31.5137 478.087 31.6971V36.2057C477.697 36.0575 477.237 35.9565 476.651 35.9565C475.931 35.9565 475.396 36.1063 474.957 36.3145ZM479.339 36.9398C479.19 36.8303 479.035 36.7171 478.87 36.6085V32.1962C478.887 32.2089 478.904 32.2208 478.921 32.2337C479.483 32.6472 480.116 33.1073 481.217 33.1978V37.7648C480.35 37.6854 479.877 37.3361 479.339 36.9398Z" fill="#C6C6C6"/>
<line x1="397" y1="34" x2="441" y2="34" stroke="#DCDCDC" stroke-width="2" stroke-linejoin="round" stroke-dasharray="4 4"/>
</svg>
