<svg width="499" height="71" viewBox="0 0 499 71" fill="none" xmlns="http://www.w3.org/2000/svg">
<line x1="55" y1="34" x2="99" y2="34" stroke="#FBD44B" stroke-width="2" stroke-linejoin="round" stroke-dasharray="4 4"/>
<line x1="162" y1="34" x2="206" y2="34" stroke="#FBD44B" stroke-width="2" stroke-linejoin="round" stroke-dasharray="4 4"/>
<line x1="269" y1="34" x2="313" y2="34" stroke="#FBD44B" stroke-width="2" stroke-linejoin="round" stroke-dasharray="4 4"/>
<circle cx="356.5" cy="35.5" r="23.5" fill="#FBD44B"/>
<circle cx="356.5" cy="35.5" r="34.5" stroke="#FFF1C0" stroke-width="2"/>
<circle cx="356.5" cy="35.5" r="28.5" stroke="#FBD44B" stroke-width="2"/>
<path d="M360.58 45H356.32V40.86H346.75V37.5L354.7 24.99H360.58V37.11H363.16V40.86H360.58V45ZM356.32 37.11V28.77L350.92 37.11H356.32Z" fill="white"/>
<circle cx="23.5" cy="35.5" r="23.5" fill="#FBD44B"/>
<path d="M26.35 45H22.09V30.48L18.76 33.87L16.33 31.32L22.63 24.99H26.35V45Z" fill="white"/>
<circle cx="130.5" cy="35.5" r="23.5" fill="#FBD44B"/>
<path d="M137.47 45H122.41V41.67C126.69 38.49 129.52 36.23 130.9 34.89C132.3 33.53 133 32.26 133 31.08C133 30.26 132.68 29.62 132.04 29.16C131.4 28.7 130.64 28.47 129.76 28.47C127.66 28.47 125.87 29.24 124.39 30.78L121.96 27.96C122.9 26.88 124.05 26.07 125.41 25.53C126.79 24.97 128.21 24.69 129.67 24.69C131.87 24.69 133.69 25.27 135.13 26.43C136.59 27.59 137.32 29.14 137.32 31.08C137.32 32.72 136.67 34.33 135.37 35.91C134.09 37.47 132.07 39.25 129.31 41.25H137.47V45Z" fill="white"/>
<circle cx="237.5" cy="35.5" r="23.5" fill="#FBD44B"/>
<path d="M237.49 45.36C235.73 45.36 234.17 45.07 232.81 44.49C231.45 43.89 230.38 43.11 229.6 42.15L231.82 39.3C232.5 40 233.34 40.56 234.34 40.98C235.34 41.38 236.34 41.58 237.34 41.58C238.54 41.58 239.47 41.35 240.13 40.89C240.79 40.41 241.12 39.79 241.12 39.03C241.12 38.23 240.8 37.65 240.16 37.29C239.52 36.91 238.5 36.72 237.1 36.72C235.84 36.72 235.01 36.74 234.61 36.78V32.94C234.85 32.96 235.68 32.97 237.1 32.97C239.56 32.97 240.79 32.26 240.79 30.84C240.79 30.08 240.44 29.5 239.74 29.1C239.06 28.68 238.17 28.47 237.07 28.47C235.13 28.47 233.44 29.16 232 30.54L229.87 27.87C231.75 25.75 234.3 24.69 237.52 24.69C239.86 24.69 241.7 25.18 243.04 26.16C244.4 27.14 245.08 28.46 245.08 30.12C245.08 31.32 244.65 32.33 243.79 33.15C242.93 33.95 241.9 34.46 240.7 34.68C241.88 34.8 242.95 35.29 243.91 36.15C244.89 36.99 245.38 38.1 245.38 39.48C245.38 41.22 244.66 42.64 243.22 43.74C241.78 44.82 239.87 45.36 237.49 45.36Z" fill="white"/>
<line x1="400" y1="34" x2="444" y2="34" stroke="#E8E8E8" stroke-width="2" stroke-linejoin="round" stroke-dasharray="4 4"/>
<circle cx="475.5" cy="35.5" r="23.5" fill="#E1E1E1"/>
<path d="M484.609 26.8261C483.483 26.8261 482.952 26.4358 482.339 25.9833C482.123 25.825 481.896 25.66 481.638 25.5109C481.634 25.5085 481.631 25.5058 481.627 25.504C481.137 25.2222 480.531 25 479.651 25C478.299 25 477.589 25.5227 476.963 25.9833C476.35 26.4358 475.82 26.8261 474.693 26.8261C473.568 26.8261 473.039 26.4358 472.426 25.9833C471.8 25.5227 471.091 25 469.739 25H467.391C467.175 25 467 25.204 467 25.4565V45.5435C467 45.796 467.175 46 467.391 46H469.739C469.955 46 470.13 45.796 470.13 45.5435V36.887C470.996 36.9672 471.47 37.3161 472.007 37.7119C472.632 38.1729 473.341 38.6952 474.693 38.6952C476.046 38.6952 476.756 38.1725 477.381 37.7119C477.995 37.2599 478.525 36.8696 479.651 36.8696C480.777 36.8696 481.307 37.2599 481.921 37.7124C482.547 38.1729 483.256 38.6957 484.609 38.6957C484.825 38.6957 485 38.4917 485 38.2391V27.2826C485 27.0301 484.825 26.8261 484.609 26.8261ZM484.217 27.7235V32.287C483.35 32.2067 482.876 31.8579 482.339 31.462C482.19 31.3525 482.035 31.2393 481.87 31.1307V26.7184C481.887 26.7311 481.904 26.7429 481.921 26.7559C482.483 27.1698 483.114 27.6341 484.217 27.7235ZM481.087 26.2189V30.7275C480.697 30.5792 480.237 30.4783 479.651 30.4783C478.931 30.4783 478.397 30.6281 477.957 30.8363V26.3604C478.388 26.099 478.878 25.913 479.651 25.913C480.275 25.913 480.713 26.0354 481.087 26.2189ZM477.174 26.9063V31.3082C477.102 31.3594 477.032 31.4109 476.963 31.4615C476.35 31.914 475.82 32.3043 474.693 32.3043C474.45 32.3043 474.238 32.2829 474.043 32.2495V27.689C474.244 27.7182 474.456 27.7391 474.693 27.7391C475.9 27.7391 476.594 27.3236 477.174 26.9063ZM473.261 27.4908V31.9999C472.959 31.8518 472.699 31.6644 472.425 31.462C471.864 31.048 471.231 30.5879 470.13 30.4974V25.9304C470.996 26.0107 471.47 26.3595 472.007 26.7554C472.362 27.0173 472.749 27.2958 473.261 27.4908ZM469.348 45.087H467.783V25.913H469.348V45.087ZM470.13 35.9757V31.4087C470.996 31.4889 471.47 31.8378 472.007 32.2337C472.362 32.4956 472.749 32.774 473.261 32.9686V37.4777C472.959 37.3297 472.699 37.1422 472.425 36.9398C471.864 36.5263 471.231 36.0662 470.13 35.9757ZM474.693 37.7826C474.45 37.7826 474.238 37.7612 474.043 37.7278V33.1672C474.244 33.1964 474.456 33.2174 474.693 33.2174C475.9 33.2174 476.594 32.8019 477.174 32.3846V36.7864C477.102 36.8377 477.032 36.8892 476.963 36.9398C476.35 37.3923 475.82 37.7826 474.693 37.7826ZM477.957 36.3145V31.8387C478.388 31.5772 478.878 31.3913 479.651 31.3913C480.275 31.3913 480.714 31.5137 481.087 31.6971V36.2057C480.697 36.0575 480.237 35.9565 479.651 35.9565C478.931 35.9565 478.396 36.1063 477.957 36.3145ZM482.339 36.9398C482.19 36.8303 482.035 36.7171 481.87 36.6085V32.1962C481.887 32.2089 481.904 32.2208 481.921 32.2337C482.483 32.6472 483.116 33.1073 484.217 33.1978V37.7648C483.35 37.6854 482.877 37.3361 482.339 36.9398Z" fill="#C6C6C6"/>
</svg>
