<svg width="499" height="71" viewBox="0 0 499 71" fill="none" xmlns="http://www.w3.org/2000/svg">
<line x1="55" y1="34" x2="99" y2="34" stroke="#FBD44B" stroke-width="2" stroke-linejoin="round" stroke-dasharray="4 4"/>
<line x1="162" y1="34" x2="206" y2="34" stroke="#FBD44B" stroke-width="2" stroke-linejoin="round" stroke-dasharray="4 4"/>
<line x1="293" y1="34" x2="337" y2="34" stroke="#DCDCDC" stroke-width="2" stroke-linejoin="round" stroke-dasharray="4 4"/>
<circle cx="249.5" cy="35.5" r="23.5" fill="#FBD44B"/>
<circle cx="249.5" cy="35.5" r="34.5" stroke="#FFF1C0" stroke-width="2"/>
<circle cx="249.5" cy="35.5" r="28.5" stroke="#FBD44B" stroke-width="2"/>
<path d="M249.49 45.36C247.73 45.36 246.17 45.07 244.81 44.49C243.45 43.89 242.38 43.11 241.6 42.15L243.82 39.3C244.5 40 245.34 40.56 246.34 40.98C247.34 41.38 248.34 41.58 249.34 41.58C250.54 41.58 251.47 41.35 252.13 40.89C252.79 40.41 253.12 39.79 253.12 39.03C253.12 38.23 252.8 37.65 252.16 37.29C251.52 36.91 250.5 36.72 249.1 36.72C247.84 36.72 247.01 36.74 246.61 36.78V32.94C246.85 32.96 247.68 32.97 249.1 32.97C251.56 32.97 252.79 32.26 252.79 30.84C252.79 30.08 252.44 29.5 251.74 29.1C251.06 28.68 250.17 28.47 249.07 28.47C247.13 28.47 245.44 29.16 244 30.54L241.87 27.87C243.75 25.75 246.3 24.69 249.52 24.69C251.86 24.69 253.7 25.18 255.04 26.16C256.4 27.14 257.08 28.46 257.08 30.12C257.08 31.32 256.65 32.33 255.79 33.15C254.93 33.95 253.9 34.46 252.7 34.68C253.88 34.8 254.95 35.29 255.91 36.15C256.89 36.99 257.38 38.1 257.38 39.48C257.38 41.22 256.66 42.64 255.22 43.74C253.78 44.82 251.87 45.36 249.49 45.36Z" fill="white"/>
<circle cx="23.5" cy="35.5" r="23.5" fill="#FBD44B"/>
<path d="M26.35 45H22.09V30.48L18.76 33.87L16.33 31.32L22.63 24.99H26.35V45Z" fill="white"/>
<circle cx="130.5" cy="35.5" r="23.5" fill="#FBD44B"/>
<path d="M138.47 45H123.41V41.67C127.69 38.49 130.52 36.23 131.9 34.89C133.3 33.53 134 32.26 134 31.08C134 30.26 133.68 29.62 133.04 29.16C132.4 28.7 131.64 28.47 130.76 28.47C128.66 28.47 126.87 29.24 125.39 30.78L122.96 27.96C123.9 26.88 125.05 26.07 126.41 25.53C127.79 24.97 129.21 24.69 130.67 24.69C132.87 24.69 134.69 25.27 136.13 26.43C137.59 27.59 138.32 29.14 138.32 31.08C138.32 32.72 137.67 34.33 136.37 35.91C135.09 37.47 133.07 39.25 130.31 41.25H138.47V45Z" fill="white"/>
<circle cx="368.5" cy="35.5" r="23.5" fill="#E1E1E1"/>
<path d="M372.58 45H368.32V40.86H358.75V37.5L366.7 24.99H372.58V37.11H375.16V40.86H372.58V45ZM368.32 37.11V28.77L362.92 37.11H368.32Z" fill="#C8C8C8"/>
<line x1="400" y1="34" x2="444" y2="34" stroke="#DCDCDC" stroke-width="2" stroke-linejoin="round" stroke-dasharray="4 4"/>
<circle cx="475.5" cy="35.5" r="23.5" fill="#E1E1E1"/>
<path d="M483.609 26.8261C482.483 26.8261 481.952 26.4358 481.339 25.9833C481.123 25.825 480.896 25.66 480.638 25.5109C480.634 25.5085 480.631 25.5058 480.627 25.504C480.137 25.2222 479.531 25 478.651 25C477.299 25 476.589 25.5227 475.963 25.9833C475.35 26.4358 474.82 26.8261 473.693 26.8261C472.568 26.8261 472.039 26.4358 471.426 25.9833C470.8 25.5227 470.091 25 468.739 25H466.391C466.175 25 466 25.204 466 25.4565V45.5435C466 45.796 466.175 46 466.391 46H468.739C468.955 46 469.13 45.796 469.13 45.5435V36.887C469.996 36.9672 470.47 37.3161 471.007 37.7119C471.632 38.1729 472.341 38.6952 473.693 38.6952C475.046 38.6952 475.756 38.1725 476.381 37.7119C476.995 37.2599 477.525 36.8696 478.651 36.8696C479.777 36.8696 480.307 37.2599 480.921 37.7124C481.547 38.1729 482.256 38.6957 483.609 38.6957C483.825 38.6957 484 38.4917 484 38.2391V27.2826C484 27.0301 483.825 26.8261 483.609 26.8261ZM483.217 27.7235V32.287C482.35 32.2067 481.876 31.8579 481.339 31.462C481.19 31.3525 481.035 31.2393 480.87 31.1307V26.7184C480.887 26.7311 480.904 26.7429 480.921 26.7559C481.483 27.1698 482.114 27.6341 483.217 27.7235ZM480.087 26.2189V30.7275C479.697 30.5792 479.237 30.4783 478.651 30.4783C477.931 30.4783 477.397 30.6281 476.957 30.8363V26.3604C477.388 26.099 477.878 25.913 478.651 25.913C479.275 25.913 479.713 26.0354 480.087 26.2189ZM476.174 26.9063V31.3082C476.102 31.3594 476.032 31.4109 475.963 31.4615C475.35 31.914 474.82 32.3043 473.693 32.3043C473.45 32.3043 473.238 32.2829 473.043 32.2495V27.689C473.244 27.7182 473.456 27.7391 473.693 27.7391C474.9 27.7391 475.594 27.3236 476.174 26.9063ZM472.261 27.4908V31.9999C471.959 31.8518 471.699 31.6644 471.425 31.462C470.864 31.048 470.231 30.5879 469.13 30.4974V25.9304C469.996 26.0107 470.47 26.3595 471.007 26.7554C471.362 27.0173 471.749 27.2958 472.261 27.4908ZM468.348 45.087H466.783V25.913H468.348V45.087ZM469.13 35.9757V31.4087C469.996 31.4889 470.47 31.8378 471.007 32.2337C471.362 32.4956 471.749 32.774 472.261 32.9686V37.4777C471.959 37.3297 471.699 37.1422 471.425 36.9398C470.864 36.5263 470.231 36.0662 469.13 35.9757ZM473.693 37.7826C473.45 37.7826 473.238 37.7612 473.043 37.7278V33.1672C473.244 33.1964 473.456 33.2174 473.693 33.2174C474.9 33.2174 475.594 32.8019 476.174 32.3846V36.7864C476.102 36.8377 476.032 36.8892 475.963 36.9398C475.35 37.3923 474.82 37.7826 473.693 37.7826ZM476.957 36.3145V31.8387C477.388 31.5772 477.878 31.3913 478.651 31.3913C479.275 31.3913 479.714 31.5137 480.087 31.6971V36.2057C479.697 36.0575 479.237 35.9565 478.651 35.9565C477.931 35.9565 477.396 36.1063 476.957 36.3145ZM481.339 36.9398C481.19 36.8303 481.035 36.7171 480.87 36.6085V32.1962C480.887 32.2089 480.904 32.2208 480.921 32.2337C481.483 32.6472 482.116 33.1073 483.217 33.1978V37.7648C482.35 37.6854 481.877 37.3361 481.339 36.9398Z" fill="#C6C6C6"/>
</svg>
