<svg width="41" height="41" viewBox="0 0 41 41" fill="none" xmlns="http://www.w3.org/2000/svg">
<circle cx="20.5" cy="20.5" r="20.5" fill="#FBD44B"/>
<path d="M30.4227 13.9844C30.0334 13.5398 29.4786 13.2949 28.8605 13.2949H24.1935V10.6152C24.1935 10.2754 23.9181 10 23.5783 10H20.2834C19.9436 10 19.6682 10.2754 19.6682 10.6152V13.2949H13.913L13.7625 12.1669C13.6004 10.9519 12.7545 10 11.8366 10H10.7383C10.3985 10 10.123 10.2754 10.123 10.6152C10.123 10.9551 10.3985 11.2305 10.7383 11.2305H11.8366C12.034 11.2305 12.452 11.6478 12.5428 12.3296L14.3039 25.5382C14.3815 26.1204 14.6806 26.6655 15.1462 27.0731C15.4914 27.3754 15.8995 27.5765 16.327 27.6606C16.1528 27.9809 16.054 28.3478 16.054 28.7373C16.054 29.985 17.0689 31 18.3166 31C19.5642 31 20.5793 29.985 20.5793 28.7373C20.5793 28.3655 20.4886 28.0148 20.3291 27.7051H23.5529C23.3934 28.0148 23.3027 28.3655 23.3027 28.7373C23.3027 29.985 24.3177 31 25.5654 31C26.813 31 27.828 29.985 27.828 28.7373C27.828 28.3655 27.7373 28.0148 27.5779 27.7051H29.1899C29.5295 27.7051 29.8051 27.4296 29.8051 27.0899C29.8051 26.7501 29.5295 26.4747 29.1899 26.4747H16.779C16.1778 26.4747 15.603 25.9713 15.5235 25.3754L15.3948 24.4101H27.5424C28.1297 24.4101 28.7095 24.1856 29.1751 23.7782C29.6406 23.3706 29.9397 22.8254 30.0176 22.2432L30.8999 15.6246C30.9816 15.0118 30.8122 14.4292 30.4227 13.9844ZM19.3488 28.7373C19.3488 29.3065 18.8858 29.7695 18.3166 29.7695C17.7475 29.7695 17.2844 29.3065 17.2844 28.7373C17.2844 28.1682 17.7475 27.7051 18.3166 27.7051C18.8858 27.7051 19.3488 28.1682 19.3488 28.7373ZM26.5977 28.7373C26.5977 29.3065 26.1347 29.7695 25.5654 29.7695C24.9963 29.7695 24.5333 29.3065 24.5333 28.7373C24.5333 28.1682 24.9963 27.7051 25.5654 27.7051C26.1347 27.7051 26.5977 28.1682 26.5977 28.7373ZM20.8986 11.2305H22.963V13.9031C22.963 13.9055 22.9627 13.9077 22.9627 13.9101C22.9627 13.9125 22.963 13.9149 22.963 13.9173V17.2051C22.963 17.5448 23.2384 17.8204 23.5783 17.8204H23.7952L21.9676 19.6334L20.14 17.8204H20.2834C20.6232 17.8204 20.8986 17.5448 20.8986 17.2051V11.2305ZM29.6801 15.4618L28.7978 22.0805C28.7183 22.6762 28.1435 23.1796 27.5424 23.1796H15.2308L14.077 14.5253H19.6682V16.5899H18.6461C18.3968 16.5899 18.1722 16.7403 18.0774 16.9707C17.9823 17.2013 18.0359 17.4663 18.2129 17.6419L21.5344 20.9368C21.6542 21.0558 21.8109 21.1152 21.9676 21.1152C22.1243 21.1152 22.281 21.0558 22.4008 20.9368L25.7223 17.6419C25.8993 17.4663 25.9528 17.2013 25.8578 16.9707C25.763 16.7403 25.5384 16.5899 25.2891 16.5899H24.1935V14.5253H28.8605C29.1187 14.5253 29.3448 14.6211 29.497 14.795C29.6492 14.969 29.7143 15.2058 29.6801 15.4618Z" fill="black"/>
</svg>
