<svg width="263" height="18" viewBox="0 0 263 18" fill="none" xmlns="http://www.w3.org/2000/svg">
<path d="M14.9475 0.689298V3.44098H2.64891V14.4478H14.9475V17.1995H0V0.885859H14.9475V0.689298Z" fill="white"/>
<path d="M94.6044 7.56848V17.1994H91.9554V0.8858L99.3346 9.14085L106.714 0.8858V17.1994H104.065V7.56848L99.3346 13.0718L94.6044 7.56848Z" fill="white"/>
<path d="M133.392 0.689298C135.663 0.689298 137.366 1.47552 138.879 3.04792C140.393 4.62032 141.15 6.5858 141.15 8.74785C141.15 11.1064 140.393 12.8754 138.879 14.4478C137.366 16.0202 135.474 16.8064 133.392 16.8064C131.122 16.8064 129.419 16.0202 127.905 14.4478C126.392 12.8754 125.635 10.9099 125.635 8.74785C125.635 6.5858 126.392 4.62032 127.905 3.04792C129.419 1.47552 131.122 0.689298 133.392 0.689298ZM133.392 3.44098C131.879 3.44098 130.743 4.03067 129.608 5.01342C128.662 5.99616 128.094 7.37201 128.094 8.94441C128.094 10.5168 128.662 11.6961 129.608 12.8754C130.743 13.8582 131.879 14.4478 133.392 14.4478C134.906 14.4478 136.041 13.8582 137.176 12.8754C138.123 11.6961 138.69 10.5168 138.69 8.94441C138.69 7.37201 138.123 6.19271 137.176 5.01342C136.041 4.03067 134.906 3.44098 133.392 3.44098Z" fill="white"/>
<path d="M159.881 0.689298H174.829V3.44098H168.774V17.0029H166.125V3.44098H160.071V0.689298H159.881Z" fill="white"/>
<path d="M193.182 0.689298H195.831V17.0029H193.182V0.689298Z" fill="white"/>
<path d="M222.32 0.689298C224.591 0.689298 226.294 1.47552 227.807 3.04792C229.321 4.62032 230.078 6.5858 230.078 8.74785C230.078 11.1064 229.321 12.8754 227.807 14.4478C226.294 16.0202 224.402 16.8064 222.32 16.8064C220.05 16.8064 218.347 16.0202 216.833 14.4478C215.32 12.8754 214.563 10.9099 214.563 8.74785C214.563 6.5858 215.32 4.62032 216.833 3.04792C218.158 1.47552 220.05 0.689298 222.32 0.689298ZM222.32 3.44098C220.807 3.44098 219.671 4.03067 218.536 5.01342C217.59 5.99616 217.022 7.37201 217.022 8.94441C217.022 10.5168 217.59 11.6961 218.536 12.8754C219.671 13.8582 220.807 14.4478 222.32 14.4478C223.834 14.4478 224.969 13.8582 226.104 12.8754C227.05 11.6961 227.618 10.5168 227.618 8.94441C227.618 7.37201 227.05 6.19271 226.104 5.01342C224.969 3.83412 223.834 3.44098 222.32 3.44098Z" fill="white"/>
<path d="M248.053 0.492676L259.973 10.7133V0.492676H263V16.8063L251.08 6.58573V16.8063H248.053V0.492676Z" fill="white"/>
<path d="M74.7374 7.37192H31.2195V10.1236H74.7374V7.37192Z" fill="white"/>
<path d="M14.7583 7.37192H0V10.1236H14.7583V7.37192Z" fill="white"/>
<path d="M14.7583 14.2512H0V17.0029H14.7583V14.2512Z" fill="white"/>
<path d="M14.7583 0.689298H0V3.44098H14.7583V0.689298Z" fill="white"/>
</svg>
