<svg width="370" height="24" viewBox="0 0 370 24" fill="none" xmlns="http://www.w3.org/2000/svg">
<path d="M21.0288 0.282456V4.23537H3.7266V20.0471H21.0288V24H0V0.564825H21.0288V0.282456Z" fill="white"/>
<path d="M133.094 10.1647V23.9999H129.367V0.564739L139.748 12.4235L150.13 0.564739V23.9999H146.403V10.1647L139.748 18.0705L133.094 10.1647Z" fill="white"/>
<path d="M187.662 0.282456C190.856 0.282456 193.252 1.4119 195.382 3.67071C197.511 5.92953 198.576 8.75303 198.576 11.8589C198.576 15.2471 197.511 17.7883 195.382 20.0471C193.252 22.3059 190.59 23.4353 187.662 23.4353C184.468 23.4353 182.072 22.3059 179.943 20.0471C177.813 17.7883 176.748 14.9648 176.748 11.8589C176.748 8.75303 177.813 5.92953 179.943 3.67071C182.072 1.4119 184.468 0.282456 187.662 0.282456ZM187.662 4.23536C185.533 4.23536 183.936 5.08247 182.338 6.49423C181.007 7.90599 180.209 9.88245 180.209 12.1413C180.209 14.4001 181.007 16.0942 182.338 17.7883C183.936 19.2001 185.533 20.0471 187.662 20.0471C189.792 20.0471 191.389 19.2001 192.986 17.7883C194.317 16.0942 195.115 14.4001 195.115 12.1413C195.115 9.88245 194.317 8.18834 192.986 6.49423C191.389 5.08247 189.792 4.23536 187.662 4.23536Z" fill="white"/>
<path d="M224.928 0.282456H245.957V4.23536H237.439V23.7176H233.712V4.23536H225.195V0.282456H224.928Z" fill="white"/>
<path d="M271.777 0.282456H275.504V23.7176H271.777V0.282456Z" fill="white"/>
<path d="M312.77 0.282456C315.964 0.282456 318.36 1.4119 320.489 3.67071C322.619 5.92953 323.684 8.75303 323.684 11.8589C323.684 15.2471 322.619 17.7883 320.489 20.0471C318.36 22.3059 315.698 23.4353 312.77 23.4353C309.576 23.4353 307.18 22.3059 305.05 20.0471C302.921 17.7883 301.856 14.9648 301.856 11.8589C301.856 8.75303 302.921 5.92953 305.05 3.67071C306.914 1.4119 309.576 0.282456 312.77 0.282456ZM312.77 4.23536C310.64 4.23536 309.043 5.08247 307.446 6.49423C306.115 7.90599 305.317 9.88245 305.317 12.1413C305.317 14.4001 306.115 16.0942 307.446 17.7883C309.043 19.2001 310.64 20.0471 312.77 20.0471C314.899 20.0471 316.496 19.2001 318.094 17.7883C319.425 16.0942 320.223 14.4001 320.223 12.1413C320.223 9.88245 319.425 8.18834 318.094 6.49423C316.496 4.80012 314.899 4.23536 312.77 4.23536Z" fill="white"/>
<path d="M348.971 0L365.741 14.6823V0H370V23.4353L353.23 8.75293V23.4353H348.971V0Z" fill="white"/>
<path d="M105.144 9.88233H43.9209V13.8352H105.144V9.88233Z" fill="white"/>
<path d="M20.7626 9.88233H0V13.8352H20.7626V9.88233Z" fill="white"/>
<path d="M20.7626 19.7647H0V23.7176H20.7626V19.7647Z" fill="white"/>
<path d="M20.7626 0.282456H0V4.23536H20.7626V0.282456Z" fill="white"/>
</svg>
